%TF.GenerationSoftware,KiCad,Pcbnew,7.0.8*%
%TF.CreationDate,2025-01-06T14:28:22+01:00*%
%TF.ProjectId,Arduino_UNO,41726475-696e-46f5-9f55-4e4f2e6b6963,rev?*%
%TF.SameCoordinates,Original*%
%TF.FileFunction,Soldermask,Top*%
%TF.FilePolarity,Negative*%
%FSLAX46Y46*%
G04 Gerber Fmt 4.6, Leading zero omitted, Abs format (unit mm)*
G04 Created by KiCad (PCBNEW 7.0.8) date 2025-01-06 14:28:22*
%MOMM*%
%LPD*%
G01*
G04 APERTURE LIST*
G04 Aperture macros list*
%AMRoundRect*
0 Rectangle with rounded corners*
0 $1 Rounding radius*
0 $2 $3 $4 $5 $6 $7 $8 $9 X,Y pos of 4 corners*
0 Add a 4 corners polygon primitive as box body*
4,1,4,$2,$3,$4,$5,$6,$7,$8,$9,$2,$3,0*
0 Add four circle primitives for the rounded corners*
1,1,$1+$1,$2,$3*
1,1,$1+$1,$4,$5*
1,1,$1+$1,$6,$7*
1,1,$1+$1,$8,$9*
0 Add four rect primitives between the rounded corners*
20,1,$1+$1,$2,$3,$4,$5,0*
20,1,$1+$1,$4,$5,$6,$7,0*
20,1,$1+$1,$6,$7,$8,$9,0*
20,1,$1+$1,$8,$9,$2,$3,0*%
G04 Aperture macros list end*
%ADD10R,1.700000X1.700000*%
%ADD11O,1.700000X1.700000*%
%ADD12C,1.600000*%
%ADD13O,1.600000X1.600000*%
%ADD14R,1.600000X1.600000*%
%ADD15C,1.800000*%
%ADD16R,1.800000X1.800000*%
%ADD17C,3.200000*%
%ADD18O,1.200000X1.600000*%
%ADD19O,1.200000X1.200000*%
%ADD20RoundRect,0.102000X0.754000X0.754000X-0.754000X0.754000X-0.754000X-0.754000X0.754000X-0.754000X0*%
%ADD21C,1.712000*%
%ADD22C,3.204000*%
G04 APERTURE END LIST*
D10*
%TO.C,J1*%
X127940000Y-97460000D03*
D11*
X130480000Y-97460000D03*
X133020000Y-97460000D03*
X135560000Y-97460000D03*
X138100000Y-97460000D03*
X140640000Y-97460000D03*
X143180000Y-97460000D03*
X145720000Y-97460000D03*
%TD*%
D10*
%TO.C,J3*%
X150800000Y-97460000D03*
D11*
X153340000Y-97460000D03*
X155880000Y-97460000D03*
X158420000Y-97460000D03*
X160960000Y-97460000D03*
X163500000Y-97460000D03*
%TD*%
D10*
%TO.C,J2*%
X118796000Y-49200000D03*
D11*
X121336000Y-49200000D03*
X123876000Y-49200000D03*
X126416000Y-49200000D03*
X128956000Y-49200000D03*
X131496000Y-49200000D03*
X134036000Y-49200000D03*
X136576000Y-49200000D03*
X139116000Y-49200000D03*
X141656000Y-49200000D03*
%TD*%
D10*
%TO.C,J4*%
X145720000Y-49200000D03*
D11*
X148260000Y-49200000D03*
X150800000Y-49200000D03*
X153340000Y-49200000D03*
X155880000Y-49200000D03*
X158420000Y-49200000D03*
X160960000Y-49200000D03*
X163500000Y-49200000D03*
%TD*%
D12*
%TO.C,C2*%
X139450000Y-93396000D03*
X144450000Y-93396000D03*
%TD*%
%TO.C,R2*%
X123368000Y-93650000D03*
D13*
X113208000Y-93650000D03*
%TD*%
D12*
%TO.C,R7*%
X162992000Y-92888000D03*
D13*
X152832000Y-92888000D03*
%TD*%
D12*
%TO.C,R3*%
X128702000Y-89078000D03*
D13*
X138862000Y-89078000D03*
%TD*%
D14*
%TO.C,U1*%
X121326000Y-88814000D03*
D13*
X121326000Y-86274000D03*
X121326000Y-83734000D03*
X121326000Y-81194000D03*
X113706000Y-81194000D03*
X113706000Y-83734000D03*
X113706000Y-86274000D03*
X113706000Y-88814000D03*
%TD*%
D12*
%TO.C,C4*%
X127726000Y-83998000D03*
X132726000Y-83998000D03*
%TD*%
D15*
%TO.C,D3*%
X147752000Y-67747000D03*
D16*
X147752000Y-70287000D03*
%TD*%
D12*
%TO.C,R1*%
X136068000Y-81458000D03*
D13*
X146228000Y-81458000D03*
%TD*%
D12*
%TO.C,R9*%
X156718000Y-54026000D03*
D13*
X156718000Y-64186000D03*
%TD*%
D16*
%TO.C,D1*%
X159690000Y-70282000D03*
D15*
X159690000Y-67742000D03*
%TD*%
D17*
%TO.C,MH1*%
X115240000Y-49200000D03*
%TD*%
D12*
%TO.C,C3*%
X105334000Y-80228000D03*
X105334000Y-85228000D03*
%TD*%
%TO.C,R10*%
X151968000Y-54026000D03*
D13*
X151968000Y-64186000D03*
%TD*%
D16*
%TO.C,D2*%
X153594000Y-70287000D03*
D15*
X153594000Y-67747000D03*
%TD*%
D12*
%TO.C,R5*%
X155118000Y-77902000D03*
D13*
X165278000Y-77902000D03*
%TD*%
D17*
%TO.C,MH2*%
X113970000Y-97460000D03*
%TD*%
D12*
%TO.C,R4*%
X149276000Y-92634000D03*
D13*
X149276000Y-82474000D03*
%TD*%
D17*
%TO.C,MH3*%
X166040000Y-64440000D03*
%TD*%
D12*
%TO.C,C1*%
X148514000Y-77862000D03*
X148514000Y-72862000D03*
%TD*%
D17*
%TO.C,MH4*%
X166040000Y-92380000D03*
%TD*%
D12*
%TO.C,R6*%
X126162000Y-93650000D03*
D13*
X136322000Y-93650000D03*
%TD*%
D12*
%TO.C,R8*%
X161468000Y-54026000D03*
D13*
X161468000Y-64186000D03*
%TD*%
D18*
%TO.C,U3*%
X156896000Y-82607000D03*
D19*
X155179667Y-83164670D03*
X154118915Y-84624670D03*
X154118915Y-86429330D03*
X155179667Y-87889330D03*
X156896000Y-88447000D03*
X158612333Y-87889330D03*
X159673085Y-86429330D03*
X159673085Y-84624670D03*
X158612333Y-83164670D03*
%TD*%
D20*
%TO.C,U2*%
X127178000Y-54464000D03*
D21*
X124638000Y-54464000D03*
X122098000Y-54464000D03*
X119558000Y-54464000D03*
D22*
X134368000Y-54964000D03*
X112368000Y-54964000D03*
X112368000Y-76964000D03*
X134368000Y-76964000D03*
%TD*%
D10*
%TO.C,J5*%
X142672000Y-55042000D03*
D11*
X142672000Y-57582000D03*
X142672000Y-60122000D03*
X142672000Y-62662000D03*
X142672000Y-65202000D03*
X142672000Y-67742000D03*
X142672000Y-70282000D03*
X142672000Y-72822000D03*
%TD*%
M02*
