M48
; DRILL file {KiCad 7.0.8} date Mon Jan  6 14:27:38 2025
; FORMAT={-:-/ absolute / inch / decimal}
; #@! TF.CreationDate,2025-01-06T14:27:38+01:00
; #@! TF.GenerationSoftware,Kicad,Pcbnew,7.0.8
; #@! TF.FileFunction,Plated,1,2,PTH
FMAT,2
INCH
; #@! TA.AperFunction,Plated,PTH,ComponentDrill
T1C0.0276
; #@! TA.AperFunction,Plated,PTH,ComponentDrill
T2C0.0315
; #@! TA.AperFunction,Plated,PTH,ComponentDrill
T3C0.0354
; #@! TA.AperFunction,Plated,PTH,ComponentDrill
T4C0.0394
; #@! TA.AperFunction,Plated,PTH,ComponentDrill
T5C0.0787
%
G90
G05
T1
X6.0677Y-3.3317
X6.0677Y-3.4027
X6.1094Y-3.2742
X6.1094Y-3.4602
X6.177Y-3.2522
X6.177Y-3.4822
X6.2446Y-3.2742
X6.2446Y-3.4602
X6.2863Y-3.3317
X6.2863Y-3.4027
T2
X4.147Y-3.1586
X4.147Y-3.3554
X4.457Y-3.687
X4.4766Y-3.1966
X4.4766Y-3.2966
X4.4766Y-3.3966
X4.4766Y-3.4966
X4.7766Y-3.1966
X4.7766Y-3.2966
X4.7766Y-3.3966
X4.7766Y-3.4966
X4.857Y-3.687
X4.967Y-3.687
X5.0286Y-3.307
X5.067Y-3.507
X5.2254Y-3.307
X5.357Y-3.207
X5.367Y-3.687
X5.467Y-3.507
X5.4902Y-3.677
X5.687Y-3.677
X5.757Y-3.207
X5.847Y-2.8686
X5.847Y-3.0654
X5.877Y-3.247
X5.877Y-3.647
X5.983Y-2.127
X5.983Y-2.527
X6.017Y-3.657
X6.107Y-3.067
X6.17Y-2.127
X6.17Y-2.527
X6.357Y-2.127
X6.357Y-2.527
X6.417Y-3.657
X6.507Y-3.067
T3
X5.817Y-2.6672
X5.817Y-2.7672
X6.047Y-2.6672
X6.047Y-2.7672
X6.287Y-2.667
X6.287Y-2.767
T4
X4.677Y-1.937
X4.707Y-2.1443
X4.777Y-1.937
X4.807Y-2.1443
X4.877Y-1.937
X4.907Y-2.1443
X4.977Y-1.937
X5.007Y-2.1443
X5.037Y-3.837
X5.077Y-1.937
X5.137Y-3.837
X5.177Y-1.937
X5.237Y-3.837
X5.277Y-1.937
X5.337Y-3.837
X5.377Y-1.937
X5.437Y-3.837
X5.477Y-1.937
X5.537Y-3.837
X5.577Y-1.937
X5.617Y-2.167
X5.617Y-2.267
X5.617Y-2.367
X5.617Y-2.467
X5.617Y-2.567
X5.617Y-2.667
X5.617Y-2.767
X5.617Y-2.867
X5.637Y-3.837
X5.737Y-1.937
X5.737Y-3.837
X5.837Y-1.937
X5.937Y-1.937
X5.937Y-3.837
X6.037Y-1.937
X6.037Y-3.837
X6.137Y-1.937
X6.137Y-3.837
X6.237Y-1.937
X6.237Y-3.837
X6.337Y-1.937
X6.337Y-3.837
X6.437Y-1.937
X6.437Y-3.837
T5
X4.4239Y-2.1639
X4.4239Y-3.0301
X5.2901Y-2.1639
X5.2901Y-3.0301
T0
M30
