%TF.GenerationSoftware,KiCad,Pcbnew,7.0.8*%
%TF.CreationDate,2025-01-06T14:28:22+01:00*%
%TF.ProjectId,Arduino_UNO,41726475-696e-46f5-9f55-4e4f2e6b6963,rev?*%
%TF.SameCoordinates,Original*%
%TF.FileFunction,Copper,L2,Bot*%
%TF.FilePolarity,Positive*%
%FSLAX46Y46*%
G04 Gerber Fmt 4.6, Leading zero omitted, Abs format (unit mm)*
G04 Created by KiCad (PCBNEW 7.0.8) date 2025-01-06 14:28:22*
%MOMM*%
%LPD*%
G01*
G04 APERTURE LIST*
%ADD10C,0.300000*%
%TA.AperFunction,NonConductor*%
%ADD11C,0.300000*%
%TD*%
%TA.AperFunction,ComponentPad*%
%ADD12R,1.700000X1.700000*%
%TD*%
%TA.AperFunction,ComponentPad*%
%ADD13O,1.700000X1.700000*%
%TD*%
%TA.AperFunction,ComponentPad*%
%ADD14C,1.600000*%
%TD*%
%TA.AperFunction,ComponentPad*%
%ADD15O,1.600000X1.600000*%
%TD*%
%TA.AperFunction,ComponentPad*%
%ADD16R,1.600000X1.600000*%
%TD*%
%TA.AperFunction,ComponentPad*%
%ADD17C,1.800000*%
%TD*%
%TA.AperFunction,ComponentPad*%
%ADD18R,1.800000X1.800000*%
%TD*%
%TA.AperFunction,ComponentPad*%
%ADD19O,1.200000X1.600000*%
%TD*%
%TA.AperFunction,ComponentPad*%
%ADD20O,1.200000X1.200000*%
%TD*%
%TA.AperFunction,ComponentPad*%
%ADD21R,1.508000X1.508000*%
%TD*%
%TA.AperFunction,ComponentPad*%
%ADD22C,1.508000*%
%TD*%
%TA.AperFunction,ComponentPad*%
%ADD23C,3.000000*%
%TD*%
%TA.AperFunction,Conductor*%
%ADD24C,0.800000*%
%TD*%
G04 APERTURE END LIST*
D10*
D11*
X101237685Y-47905082D02*
X101166257Y-47976510D01*
X101166257Y-47976510D02*
X101094828Y-48119368D01*
X101094828Y-48119368D02*
X101094828Y-48476510D01*
X101094828Y-48476510D02*
X101166257Y-48619368D01*
X101166257Y-48619368D02*
X101237685Y-48690796D01*
X101237685Y-48690796D02*
X101380542Y-48762225D01*
X101380542Y-48762225D02*
X101523400Y-48762225D01*
X101523400Y-48762225D02*
X101737685Y-48690796D01*
X101737685Y-48690796D02*
X102594828Y-47833653D01*
X102594828Y-47833653D02*
X102594828Y-48762225D01*
X101094828Y-49690796D02*
X101094828Y-49833653D01*
X101094828Y-49833653D02*
X101166257Y-49976510D01*
X101166257Y-49976510D02*
X101237685Y-50047939D01*
X101237685Y-50047939D02*
X101380542Y-50119367D01*
X101380542Y-50119367D02*
X101666257Y-50190796D01*
X101666257Y-50190796D02*
X102023400Y-50190796D01*
X102023400Y-50190796D02*
X102309114Y-50119367D01*
X102309114Y-50119367D02*
X102451971Y-50047939D01*
X102451971Y-50047939D02*
X102523400Y-49976510D01*
X102523400Y-49976510D02*
X102594828Y-49833653D01*
X102594828Y-49833653D02*
X102594828Y-49690796D01*
X102594828Y-49690796D02*
X102523400Y-49547939D01*
X102523400Y-49547939D02*
X102451971Y-49476510D01*
X102451971Y-49476510D02*
X102309114Y-49405081D01*
X102309114Y-49405081D02*
X102023400Y-49333653D01*
X102023400Y-49333653D02*
X101666257Y-49333653D01*
X101666257Y-49333653D02*
X101380542Y-49405081D01*
X101380542Y-49405081D02*
X101237685Y-49476510D01*
X101237685Y-49476510D02*
X101166257Y-49547939D01*
X101166257Y-49547939D02*
X101094828Y-49690796D01*
X101237685Y-50762224D02*
X101166257Y-50833652D01*
X101166257Y-50833652D02*
X101094828Y-50976510D01*
X101094828Y-50976510D02*
X101094828Y-51333652D01*
X101094828Y-51333652D02*
X101166257Y-51476510D01*
X101166257Y-51476510D02*
X101237685Y-51547938D01*
X101237685Y-51547938D02*
X101380542Y-51619367D01*
X101380542Y-51619367D02*
X101523400Y-51619367D01*
X101523400Y-51619367D02*
X101737685Y-51547938D01*
X101737685Y-51547938D02*
X102594828Y-50690795D01*
X102594828Y-50690795D02*
X102594828Y-51619367D01*
X101594828Y-52905081D02*
X102594828Y-52905081D01*
X101023400Y-52547938D02*
X102094828Y-52190795D01*
X102094828Y-52190795D02*
X102094828Y-53119366D01*
X102023400Y-53690794D02*
X102023400Y-54833652D01*
X101237685Y-55476509D02*
X101166257Y-55547937D01*
X101166257Y-55547937D02*
X101094828Y-55690795D01*
X101094828Y-55690795D02*
X101094828Y-56047937D01*
X101094828Y-56047937D02*
X101166257Y-56190795D01*
X101166257Y-56190795D02*
X101237685Y-56262223D01*
X101237685Y-56262223D02*
X101380542Y-56333652D01*
X101380542Y-56333652D02*
X101523400Y-56333652D01*
X101523400Y-56333652D02*
X101737685Y-56262223D01*
X101737685Y-56262223D02*
X102594828Y-55405080D01*
X102594828Y-55405080D02*
X102594828Y-56333652D01*
X101094828Y-57262223D02*
X101094828Y-57405080D01*
X101094828Y-57405080D02*
X101166257Y-57547937D01*
X101166257Y-57547937D02*
X101237685Y-57619366D01*
X101237685Y-57619366D02*
X101380542Y-57690794D01*
X101380542Y-57690794D02*
X101666257Y-57762223D01*
X101666257Y-57762223D02*
X102023400Y-57762223D01*
X102023400Y-57762223D02*
X102309114Y-57690794D01*
X102309114Y-57690794D02*
X102451971Y-57619366D01*
X102451971Y-57619366D02*
X102523400Y-57547937D01*
X102523400Y-57547937D02*
X102594828Y-57405080D01*
X102594828Y-57405080D02*
X102594828Y-57262223D01*
X102594828Y-57262223D02*
X102523400Y-57119366D01*
X102523400Y-57119366D02*
X102451971Y-57047937D01*
X102451971Y-57047937D02*
X102309114Y-56976508D01*
X102309114Y-56976508D02*
X102023400Y-56905080D01*
X102023400Y-56905080D02*
X101666257Y-56905080D01*
X101666257Y-56905080D02*
X101380542Y-56976508D01*
X101380542Y-56976508D02*
X101237685Y-57047937D01*
X101237685Y-57047937D02*
X101166257Y-57119366D01*
X101166257Y-57119366D02*
X101094828Y-57262223D01*
X101237685Y-58333651D02*
X101166257Y-58405079D01*
X101166257Y-58405079D02*
X101094828Y-58547937D01*
X101094828Y-58547937D02*
X101094828Y-58905079D01*
X101094828Y-58905079D02*
X101166257Y-59047937D01*
X101166257Y-59047937D02*
X101237685Y-59119365D01*
X101237685Y-59119365D02*
X101380542Y-59190794D01*
X101380542Y-59190794D02*
X101523400Y-59190794D01*
X101523400Y-59190794D02*
X101737685Y-59119365D01*
X101737685Y-59119365D02*
X102594828Y-58262222D01*
X102594828Y-58262222D02*
X102594828Y-59190794D01*
X101094828Y-60547936D02*
X101094828Y-59833650D01*
X101094828Y-59833650D02*
X101809114Y-59762222D01*
X101809114Y-59762222D02*
X101737685Y-59833650D01*
X101737685Y-59833650D02*
X101666257Y-59976508D01*
X101666257Y-59976508D02*
X101666257Y-60333650D01*
X101666257Y-60333650D02*
X101737685Y-60476508D01*
X101737685Y-60476508D02*
X101809114Y-60547936D01*
X101809114Y-60547936D02*
X101951971Y-60619365D01*
X101951971Y-60619365D02*
X102309114Y-60619365D01*
X102309114Y-60619365D02*
X102451971Y-60547936D01*
X102451971Y-60547936D02*
X102523400Y-60476508D01*
X102523400Y-60476508D02*
X102594828Y-60333650D01*
X102594828Y-60333650D02*
X102594828Y-59976508D01*
X102594828Y-59976508D02*
X102523400Y-59833650D01*
X102523400Y-59833650D02*
X102451971Y-59762222D01*
X102023400Y-61262221D02*
X102023400Y-62405079D01*
X101809114Y-63619364D02*
X101880542Y-63833650D01*
X101880542Y-63833650D02*
X101951971Y-63905079D01*
X101951971Y-63905079D02*
X102094828Y-63976507D01*
X102094828Y-63976507D02*
X102309114Y-63976507D01*
X102309114Y-63976507D02*
X102451971Y-63905079D01*
X102451971Y-63905079D02*
X102523400Y-63833650D01*
X102523400Y-63833650D02*
X102594828Y-63690793D01*
X102594828Y-63690793D02*
X102594828Y-63119364D01*
X102594828Y-63119364D02*
X101094828Y-63119364D01*
X101094828Y-63119364D02*
X101094828Y-63619364D01*
X101094828Y-63619364D02*
X101166257Y-63762222D01*
X101166257Y-63762222D02*
X101237685Y-63833650D01*
X101237685Y-63833650D02*
X101380542Y-63905079D01*
X101380542Y-63905079D02*
X101523400Y-63905079D01*
X101523400Y-63905079D02*
X101666257Y-63833650D01*
X101666257Y-63833650D02*
X101737685Y-63762222D01*
X101737685Y-63762222D02*
X101809114Y-63619364D01*
X101809114Y-63619364D02*
X101809114Y-63119364D01*
X102523400Y-65190793D02*
X102594828Y-65047936D01*
X102594828Y-65047936D02*
X102594828Y-64762222D01*
X102594828Y-64762222D02*
X102523400Y-64619364D01*
X102523400Y-64619364D02*
X102380542Y-64547936D01*
X102380542Y-64547936D02*
X101809114Y-64547936D01*
X101809114Y-64547936D02*
X101666257Y-64619364D01*
X101666257Y-64619364D02*
X101594828Y-64762222D01*
X101594828Y-64762222D02*
X101594828Y-65047936D01*
X101594828Y-65047936D02*
X101666257Y-65190793D01*
X101666257Y-65190793D02*
X101809114Y-65262222D01*
X101809114Y-65262222D02*
X101951971Y-65262222D01*
X101951971Y-65262222D02*
X102094828Y-64547936D01*
X101594828Y-66547936D02*
X102809114Y-66547936D01*
X102809114Y-66547936D02*
X102951971Y-66476507D01*
X102951971Y-66476507D02*
X103023400Y-66405078D01*
X103023400Y-66405078D02*
X103094828Y-66262221D01*
X103094828Y-66262221D02*
X103094828Y-66047936D01*
X103094828Y-66047936D02*
X103023400Y-65905078D01*
X102523400Y-66547936D02*
X102594828Y-66405078D01*
X102594828Y-66405078D02*
X102594828Y-66119364D01*
X102594828Y-66119364D02*
X102523400Y-65976507D01*
X102523400Y-65976507D02*
X102451971Y-65905078D01*
X102451971Y-65905078D02*
X102309114Y-65833650D01*
X102309114Y-65833650D02*
X101880542Y-65833650D01*
X101880542Y-65833650D02*
X101737685Y-65905078D01*
X101737685Y-65905078D02*
X101666257Y-65976507D01*
X101666257Y-65976507D02*
X101594828Y-66119364D01*
X101594828Y-66119364D02*
X101594828Y-66405078D01*
X101594828Y-66405078D02*
X101666257Y-66547936D01*
X102594828Y-67262221D02*
X101094828Y-67262221D01*
X102594828Y-67905079D02*
X101809114Y-67905079D01*
X101809114Y-67905079D02*
X101666257Y-67833650D01*
X101666257Y-67833650D02*
X101594828Y-67690793D01*
X101594828Y-67690793D02*
X101594828Y-67476507D01*
X101594828Y-67476507D02*
X101666257Y-67333650D01*
X101666257Y-67333650D02*
X101737685Y-67262221D01*
X102594828Y-68619364D02*
X101594828Y-68619364D01*
X101094828Y-68619364D02*
X101166257Y-68547936D01*
X101166257Y-68547936D02*
X101237685Y-68619364D01*
X101237685Y-68619364D02*
X101166257Y-68690793D01*
X101166257Y-68690793D02*
X101094828Y-68619364D01*
X101094828Y-68619364D02*
X101237685Y-68619364D01*
X101594828Y-69333650D02*
X102594828Y-69333650D01*
X101737685Y-69333650D02*
X101666257Y-69405079D01*
X101666257Y-69405079D02*
X101594828Y-69547936D01*
X101594828Y-69547936D02*
X101594828Y-69762222D01*
X101594828Y-69762222D02*
X101666257Y-69905079D01*
X101666257Y-69905079D02*
X101809114Y-69976508D01*
X101809114Y-69976508D02*
X102594828Y-69976508D01*
X102023400Y-70690793D02*
X102023400Y-71833651D01*
X101809114Y-73047936D02*
X101880542Y-73262222D01*
X101880542Y-73262222D02*
X101951971Y-73333651D01*
X101951971Y-73333651D02*
X102094828Y-73405079D01*
X102094828Y-73405079D02*
X102309114Y-73405079D01*
X102309114Y-73405079D02*
X102451971Y-73333651D01*
X102451971Y-73333651D02*
X102523400Y-73262222D01*
X102523400Y-73262222D02*
X102594828Y-73119365D01*
X102594828Y-73119365D02*
X102594828Y-72547936D01*
X102594828Y-72547936D02*
X101094828Y-72547936D01*
X101094828Y-72547936D02*
X101094828Y-73047936D01*
X101094828Y-73047936D02*
X101166257Y-73190794D01*
X101166257Y-73190794D02*
X101237685Y-73262222D01*
X101237685Y-73262222D02*
X101380542Y-73333651D01*
X101380542Y-73333651D02*
X101523400Y-73333651D01*
X101523400Y-73333651D02*
X101666257Y-73262222D01*
X101666257Y-73262222D02*
X101737685Y-73190794D01*
X101737685Y-73190794D02*
X101809114Y-73047936D01*
X101809114Y-73047936D02*
X101809114Y-72547936D01*
X102594828Y-74047936D02*
X101594828Y-74047936D01*
X101880542Y-74047936D02*
X101737685Y-74119365D01*
X101737685Y-74119365D02*
X101666257Y-74190794D01*
X101666257Y-74190794D02*
X101594828Y-74333651D01*
X101594828Y-74333651D02*
X101594828Y-74476508D01*
X101594828Y-75619365D02*
X102594828Y-75619365D01*
X101594828Y-74976507D02*
X102380542Y-74976507D01*
X102380542Y-74976507D02*
X102523400Y-75047936D01*
X102523400Y-75047936D02*
X102594828Y-75190793D01*
X102594828Y-75190793D02*
X102594828Y-75405079D01*
X102594828Y-75405079D02*
X102523400Y-75547936D01*
X102523400Y-75547936D02*
X102451971Y-75619365D01*
X101594828Y-76976508D02*
X102809114Y-76976508D01*
X102809114Y-76976508D02*
X102951971Y-76905079D01*
X102951971Y-76905079D02*
X103023400Y-76833650D01*
X103023400Y-76833650D02*
X103094828Y-76690793D01*
X103094828Y-76690793D02*
X103094828Y-76476508D01*
X103094828Y-76476508D02*
X103023400Y-76333650D01*
X102523400Y-76976508D02*
X102594828Y-76833650D01*
X102594828Y-76833650D02*
X102594828Y-76547936D01*
X102594828Y-76547936D02*
X102523400Y-76405079D01*
X102523400Y-76405079D02*
X102451971Y-76333650D01*
X102451971Y-76333650D02*
X102309114Y-76262222D01*
X102309114Y-76262222D02*
X101880542Y-76262222D01*
X101880542Y-76262222D02*
X101737685Y-76333650D01*
X101737685Y-76333650D02*
X101666257Y-76405079D01*
X101666257Y-76405079D02*
X101594828Y-76547936D01*
X101594828Y-76547936D02*
X101594828Y-76833650D01*
X101594828Y-76833650D02*
X101666257Y-76976508D01*
X102594828Y-77690793D02*
X101594828Y-77690793D01*
X101094828Y-77690793D02*
X101166257Y-77619365D01*
X101166257Y-77619365D02*
X101237685Y-77690793D01*
X101237685Y-77690793D02*
X101166257Y-77762222D01*
X101166257Y-77762222D02*
X101094828Y-77690793D01*
X101094828Y-77690793D02*
X101237685Y-77690793D01*
X102523400Y-78976508D02*
X102594828Y-78833651D01*
X102594828Y-78833651D02*
X102594828Y-78547937D01*
X102594828Y-78547937D02*
X102523400Y-78405079D01*
X102523400Y-78405079D02*
X102380542Y-78333651D01*
X102380542Y-78333651D02*
X101809114Y-78333651D01*
X101809114Y-78333651D02*
X101666257Y-78405079D01*
X101666257Y-78405079D02*
X101594828Y-78547937D01*
X101594828Y-78547937D02*
X101594828Y-78833651D01*
X101594828Y-78833651D02*
X101666257Y-78976508D01*
X101666257Y-78976508D02*
X101809114Y-79047937D01*
X101809114Y-79047937D02*
X101951971Y-79047937D01*
X101951971Y-79047937D02*
X102094828Y-78333651D01*
X101023400Y-78547937D02*
X101237685Y-78762222D01*
X102594828Y-79690793D02*
X101594828Y-79690793D01*
X101880542Y-79690793D02*
X101737685Y-79762222D01*
X101737685Y-79762222D02*
X101666257Y-79833651D01*
X101666257Y-79833651D02*
X101594828Y-79976508D01*
X101594828Y-79976508D02*
X101594828Y-80119365D01*
X102523400Y-81190793D02*
X102594828Y-81047936D01*
X102594828Y-81047936D02*
X102594828Y-80762222D01*
X102594828Y-80762222D02*
X102523400Y-80619364D01*
X102523400Y-80619364D02*
X102380542Y-80547936D01*
X102380542Y-80547936D02*
X101809114Y-80547936D01*
X101809114Y-80547936D02*
X101666257Y-80619364D01*
X101666257Y-80619364D02*
X101594828Y-80762222D01*
X101594828Y-80762222D02*
X101594828Y-81047936D01*
X101594828Y-81047936D02*
X101666257Y-81190793D01*
X101666257Y-81190793D02*
X101809114Y-81262222D01*
X101809114Y-81262222D02*
X101951971Y-81262222D01*
X101951971Y-81262222D02*
X102094828Y-80547936D01*
X102023400Y-81905078D02*
X102023400Y-83047936D01*
X101094828Y-83547936D02*
X102594828Y-84047936D01*
X102594828Y-84047936D02*
X101094828Y-84547936D01*
X102594828Y-85690793D02*
X101809114Y-85690793D01*
X101809114Y-85690793D02*
X101666257Y-85619364D01*
X101666257Y-85619364D02*
X101594828Y-85476507D01*
X101594828Y-85476507D02*
X101594828Y-85190793D01*
X101594828Y-85190793D02*
X101666257Y-85047935D01*
X102523400Y-85690793D02*
X102594828Y-85547935D01*
X102594828Y-85547935D02*
X102594828Y-85190793D01*
X102594828Y-85190793D02*
X102523400Y-85047935D01*
X102523400Y-85047935D02*
X102380542Y-84976507D01*
X102380542Y-84976507D02*
X102237685Y-84976507D01*
X102237685Y-84976507D02*
X102094828Y-85047935D01*
X102094828Y-85047935D02*
X102023400Y-85190793D01*
X102023400Y-85190793D02*
X102023400Y-85547935D01*
X102023400Y-85547935D02*
X101951971Y-85690793D01*
X102594828Y-86619364D02*
X102523400Y-86476507D01*
X102523400Y-86476507D02*
X102380542Y-86405078D01*
X102380542Y-86405078D02*
X101094828Y-86405078D01*
X102523400Y-87762221D02*
X102594828Y-87619364D01*
X102594828Y-87619364D02*
X102594828Y-87333650D01*
X102594828Y-87333650D02*
X102523400Y-87190792D01*
X102523400Y-87190792D02*
X102380542Y-87119364D01*
X102380542Y-87119364D02*
X101809114Y-87119364D01*
X101809114Y-87119364D02*
X101666257Y-87190792D01*
X101666257Y-87190792D02*
X101594828Y-87333650D01*
X101594828Y-87333650D02*
X101594828Y-87619364D01*
X101594828Y-87619364D02*
X101666257Y-87762221D01*
X101666257Y-87762221D02*
X101809114Y-87833650D01*
X101809114Y-87833650D02*
X101951971Y-87833650D01*
X101951971Y-87833650D02*
X102094828Y-87119364D01*
X101594828Y-88476506D02*
X102594828Y-88476506D01*
X101737685Y-88476506D02*
X101666257Y-88547935D01*
X101666257Y-88547935D02*
X101594828Y-88690792D01*
X101594828Y-88690792D02*
X101594828Y-88905078D01*
X101594828Y-88905078D02*
X101666257Y-89047935D01*
X101666257Y-89047935D02*
X101809114Y-89119364D01*
X101809114Y-89119364D02*
X102594828Y-89119364D01*
X101594828Y-89619364D02*
X101594828Y-90190792D01*
X101094828Y-89833649D02*
X102380542Y-89833649D01*
X102380542Y-89833649D02*
X102523400Y-89905078D01*
X102523400Y-89905078D02*
X102594828Y-90047935D01*
X102594828Y-90047935D02*
X102594828Y-90190792D01*
X102594828Y-90690792D02*
X101594828Y-90690792D01*
X101094828Y-90690792D02*
X101166257Y-90619364D01*
X101166257Y-90619364D02*
X101237685Y-90690792D01*
X101237685Y-90690792D02*
X101166257Y-90762221D01*
X101166257Y-90762221D02*
X101094828Y-90690792D01*
X101094828Y-90690792D02*
X101237685Y-90690792D01*
X101594828Y-91405078D02*
X102594828Y-91405078D01*
X101737685Y-91405078D02*
X101666257Y-91476507D01*
X101666257Y-91476507D02*
X101594828Y-91619364D01*
X101594828Y-91619364D02*
X101594828Y-91833650D01*
X101594828Y-91833650D02*
X101666257Y-91976507D01*
X101666257Y-91976507D02*
X101809114Y-92047936D01*
X101809114Y-92047936D02*
X102594828Y-92047936D01*
D12*
%TO.P,J1,1,Pin_1*%
%TO.N,unconnected-(J1-Pin_1-Pad1)*%
X127940000Y-97460000D03*
D13*
%TO.P,J1,2,Pin_2*%
%TO.N,unconnected-(J1-Pin_2-Pad2)*%
X130480000Y-97460000D03*
%TO.P,J1,3,Pin_3*%
%TO.N,unconnected-(J1-Pin_3-Pad3)*%
X133020000Y-97460000D03*
%TO.P,J1,4,Pin_4*%
%TO.N,+3V3*%
X135560000Y-97460000D03*
%TO.P,J1,5,Pin_5*%
%TO.N,+5V*%
X138100000Y-97460000D03*
%TO.P,J1,6,Pin_6*%
%TO.N,GND*%
X140640000Y-97460000D03*
%TO.P,J1,7,Pin_7*%
X143180000Y-97460000D03*
%TO.P,J1,8,Pin_8*%
%TO.N,VCC*%
X145720000Y-97460000D03*
%TD*%
D12*
%TO.P,J3,1,Pin_1*%
%TO.N,ADC1*%
X150800000Y-97460000D03*
D13*
%TO.P,J3,2,Pin_2*%
%TO.N,ADC2*%
X153340000Y-97460000D03*
%TO.P,J3,3,Pin_3*%
%TO.N,unconnected-(J3-Pin_3-Pad3)*%
X155880000Y-97460000D03*
%TO.P,J3,4,Pin_4*%
%TO.N,unconnected-(J3-Pin_4-Pad4)*%
X158420000Y-97460000D03*
%TO.P,J3,5,Pin_5*%
%TO.N,OLED_SDA*%
X160960000Y-97460000D03*
%TO.P,J3,6,Pin_6*%
%TO.N,OLED_SCL*%
X163500000Y-97460000D03*
%TD*%
D12*
%TO.P,J2,1,Pin_1*%
%TO.N,OLED_SCL*%
X118796000Y-49200000D03*
D13*
%TO.P,J2,2,Pin_2*%
%TO.N,OLED_SDA*%
X121336000Y-49200000D03*
%TO.P,J2,3,Pin_3*%
%TO.N,unconnected-(J2-Pin_3-Pad3)*%
X123876000Y-49200000D03*
%TO.P,J2,4,Pin_4*%
%TO.N,GND*%
X126416000Y-49200000D03*
%TO.P,J2,5,Pin_5*%
%TO.N,unconnected-(J2-Pin_5-Pad5)*%
X128956000Y-49200000D03*
%TO.P,J2,6,Pin_6*%
%TO.N,unconnected-(J2-Pin_6-Pad6)*%
X131496000Y-49200000D03*
%TO.P,J2,7,Pin_7*%
%TO.N,Rx_LoRa*%
X134036000Y-49200000D03*
%TO.P,J2,8,Pin_8*%
%TO.N,Tx_LoRa*%
X136576000Y-49200000D03*
%TO.P,J2,9,Pin_9*%
%TO.N,unconnected-(J2-Pin_9-Pad9)*%
X139116000Y-49200000D03*
%TO.P,J2,10,Pin_10*%
%TO.N,unconnected-(J2-Pin_10-Pad10)*%
X141656000Y-49200000D03*
%TD*%
D12*
%TO.P,J4,1,Pin_1*%
%TO.N,RST*%
X145720000Y-49200000D03*
D13*
%TO.P,J4,2,Pin_2*%
%TO.N,LED_R*%
X148260000Y-49200000D03*
%TO.P,J4,3,Pin_3*%
%TO.N,LED_J*%
X150800000Y-49200000D03*
%TO.P,J4,4,Pin_4*%
%TO.N,LED_V*%
X153340000Y-49200000D03*
%TO.P,J4,5,Pin_5*%
%TO.N,unconnected-(J4-Pin_5-Pad5)*%
X155880000Y-49200000D03*
%TO.P,J4,6,Pin_6*%
%TO.N,unconnected-(J4-Pin_6-Pad6)*%
X158420000Y-49200000D03*
%TO.P,J4,7,Pin_7*%
%TO.N,unconnected-(J4-Pin_7-Pad7)*%
X160960000Y-49200000D03*
%TO.P,J4,8,Pin_8*%
%TO.N,unconnected-(J4-Pin_8-Pad8)*%
X163500000Y-49200000D03*
%TD*%
D14*
%TO.P,C2,1*%
%TO.N,ADC1*%
X139450000Y-93396000D03*
%TO.P,C2,2*%
%TO.N,GND*%
X144450000Y-93396000D03*
%TD*%
%TO.P,R2,1*%
%TO.N,Net-(U1--IN)*%
X123368000Y-93650000D03*
D15*
%TO.P,R2,2*%
%TO.N,GND*%
X113208000Y-93650000D03*
%TD*%
D14*
%TO.P,R7,1*%
%TO.N,Net-(U3-ResB)*%
X162992000Y-92888000D03*
D15*
%TO.P,R7,2*%
%TO.N,+12V*%
X152832000Y-92888000D03*
%TD*%
D14*
%TO.P,R3,1*%
%TO.N,Net-(U1--IN)*%
X128702000Y-89078000D03*
D15*
%TO.P,R3,2*%
%TO.N,Net-(U1-OUT)*%
X138862000Y-89078000D03*
%TD*%
D16*
%TO.P,U1,1,NC_2*%
%TO.N,unconnected-(U1-NC_2-Pad1)*%
X121326000Y-88814000D03*
D15*
%TO.P,U1,2,-IN*%
%TO.N,Net-(U1--IN)*%
X121326000Y-86274000D03*
%TO.P,U1,3,+IN*%
%TO.N,Net-(U1-+IN)*%
X121326000Y-83734000D03*
%TO.P,U1,4,V-*%
%TO.N,GND*%
X121326000Y-81194000D03*
%TO.P,U1,5,EXTCLOCKINPUT*%
%TO.N,unconnected-(U1-EXTCLOCKINPUT-Pad5)*%
X113706000Y-81194000D03*
%TO.P,U1,6,OUT*%
%TO.N,Net-(U1-OUT)*%
X113706000Y-83734000D03*
%TO.P,U1,7,V+*%
%TO.N,+5V*%
X113706000Y-86274000D03*
%TO.P,U1,8,NC*%
%TO.N,unconnected-(U1-NC-Pad8)*%
X113706000Y-88814000D03*
%TD*%
D14*
%TO.P,C4,1*%
%TO.N,Net-(U1--IN)*%
X127726000Y-83998000D03*
%TO.P,C4,2*%
%TO.N,Net-(U1-OUT)*%
X132726000Y-83998000D03*
%TD*%
D17*
%TO.P,D3,2,A*%
%TO.N,Net-(D3-A)*%
X147752000Y-67747000D03*
D18*
%TO.P,D3,1,K*%
%TO.N,GND*%
X147752000Y-70287000D03*
%TD*%
D14*
%TO.P,R1,1*%
%TO.N,Net-(U1-+IN)*%
X136068000Y-81458000D03*
D15*
%TO.P,R1,2*%
%TO.N,GND*%
X146228000Y-81458000D03*
%TD*%
D14*
%TO.P,R9,1*%
%TO.N,LED_J*%
X156718000Y-54026000D03*
D15*
%TO.P,R9,2*%
%TO.N,Net-(D2-A)*%
X156718000Y-64186000D03*
%TD*%
D18*
%TO.P,D1,1,K*%
%TO.N,GND*%
X159690000Y-70282000D03*
D17*
%TO.P,D1,2,A*%
%TO.N,Net-(D1-A)*%
X159690000Y-67742000D03*
%TD*%
D14*
%TO.P,C3,1*%
%TO.N,+5V*%
X105334000Y-80228000D03*
%TO.P,C3,2*%
%TO.N,GND*%
X105334000Y-85228000D03*
%TD*%
%TO.P,R10,1*%
%TO.N,LED_R*%
X151968000Y-54026000D03*
D15*
%TO.P,R10,2*%
%TO.N,Net-(D3-A)*%
X151968000Y-64186000D03*
%TD*%
D18*
%TO.P,D2,1,K*%
%TO.N,GND*%
X153594000Y-70287000D03*
D17*
%TO.P,D2,2,A*%
%TO.N,Net-(D2-A)*%
X153594000Y-67747000D03*
%TD*%
D14*
%TO.P,R5,1*%
%TO.N,Net-(U1-+IN)*%
X155118000Y-77902000D03*
D15*
%TO.P,R5,2*%
%TO.N,GAS1*%
X165278000Y-77902000D03*
%TD*%
D14*
%TO.P,R4,1*%
%TO.N,ADC2*%
X149276000Y-92634000D03*
D15*
%TO.P,R4,2*%
%TO.N,+5V*%
X149276000Y-82474000D03*
%TD*%
D14*
%TO.P,C1,1*%
%TO.N,Net-(U1-+IN)*%
X148514000Y-77862000D03*
%TO.P,C1,2*%
%TO.N,GND*%
X148514000Y-72862000D03*
%TD*%
%TO.P,R6,1*%
%TO.N,Net-(U1-OUT)*%
X126162000Y-93650000D03*
D15*
%TO.P,R6,2*%
%TO.N,ADC1*%
X136322000Y-93650000D03*
%TD*%
D14*
%TO.P,R8,1*%
%TO.N,LED_V*%
X161468000Y-54026000D03*
D15*
%TO.P,R8,2*%
%TO.N,Net-(D1-A)*%
X161468000Y-64186000D03*
%TD*%
D19*
%TO.P,U3,1,TempA*%
%TO.N,GND*%
X156896000Y-82607000D03*
D20*
%TO.P,U3,2,Gas1A*%
%TO.N,GAS1*%
X155179667Y-83164670D03*
%TO.P,U3,3,ResA*%
%TO.N,GND*%
X154118915Y-84624670D03*
%TO.P,U3,4,Gas1B*%
%TO.N,+5V*%
X154118915Y-86429330D03*
%TO.P,U3,5,NC*%
%TO.N,unconnected-(U3-NC-Pad5)*%
X155179667Y-87889330D03*
%TO.P,U3,6,TempB*%
%TO.N,ADC2*%
X156896000Y-88447000D03*
%TO.P,U3,7,Gas2A*%
%TO.N,unconnected-(U3-Gas2A-Pad7)*%
X158612333Y-87889330D03*
%TO.P,U3,8,ResB*%
%TO.N,Net-(U3-ResB)*%
X159673085Y-86429330D03*
%TO.P,U3,9,Gas2B*%
%TO.N,unconnected-(U3-Gas2B-Pad9)*%
X159673085Y-84624670D03*
%TO.P,U3,10,NC*%
%TO.N,unconnected-(U3-NC-Pad10)*%
X158612333Y-83164670D03*
%TD*%
D21*
%TO.P,U2,1,GND*%
%TO.N,GND*%
X127178000Y-54464000D03*
D22*
%TO.P,U2,2,VCC*%
%TO.N,+5V*%
X124638000Y-54464000D03*
%TO.P,U2,3,SCL*%
%TO.N,OLED_SCL*%
X122098000Y-54464000D03*
%TO.P,U2,4,SDA*%
%TO.N,OLED_SDA*%
X119558000Y-54464000D03*
D23*
%TO.P,U2,S1*%
%TO.N,N/C*%
X134368000Y-54964000D03*
%TO.P,U2,S2*%
X112368000Y-54964000D03*
%TO.P,U2,S3*%
X112368000Y-76964000D03*
%TO.P,U2,S4*%
X134368000Y-76964000D03*
%TD*%
D12*
%TO.P,J5,1,Pin_1*%
%TO.N,Tx_LoRa*%
X142672000Y-55042000D03*
D13*
%TO.P,J5,2,Pin_2*%
%TO.N,Rx_LoRa*%
X142672000Y-57582000D03*
%TO.P,J5,3,Pin_3*%
%TO.N,unconnected-(J5-Pin_3-Pad3)*%
X142672000Y-60122000D03*
%TO.P,J5,4,Pin_4*%
%TO.N,unconnected-(J5-Pin_4-Pad4)*%
X142672000Y-62662000D03*
%TO.P,J5,5,Pin_5*%
%TO.N,RST*%
X142672000Y-65202000D03*
%TO.P,J5,6,Pin_6*%
%TO.N,+3.3V*%
X142672000Y-67742000D03*
%TO.P,J5,7,Pin_7*%
%TO.N,unconnected-(J5-Pin_7-Pad7)*%
X142672000Y-70282000D03*
%TO.P,J5,8,Pin_8*%
%TO.N,GND*%
X142672000Y-72822000D03*
%TD*%
D24*
%TO.N,GND*%
X150832000Y-80474000D02*
X147212000Y-80474000D01*
X147212000Y-80474000D02*
X146228000Y-81458000D01*
X151276000Y-80918000D02*
X150832000Y-80474000D01*
X153966670Y-84624670D02*
X151276000Y-81934000D01*
X154118915Y-84624670D02*
X153966670Y-84624670D01*
X151276000Y-81934000D02*
X151276000Y-80918000D01*
X151094000Y-70282000D02*
X148514000Y-72862000D01*
X159690000Y-70282000D02*
X151094000Y-70282000D01*
X151089000Y-70287000D02*
X148514000Y-72862000D01*
X153594000Y-70287000D02*
X151089000Y-70287000D01*
X147752000Y-70287000D02*
X147752000Y-72100000D01*
X147752000Y-72100000D02*
X148514000Y-72862000D01*
%TO.N,LED_J*%
X155057914Y-54026000D02*
X156718000Y-54026000D01*
X150800000Y-49768086D02*
X155057914Y-54026000D01*
X150800000Y-49200000D02*
X150800000Y-49768086D01*
%TO.N,Net-(U1-OUT)*%
X121812000Y-95650000D02*
X116002000Y-89840000D01*
X116002000Y-89840000D02*
X116002000Y-85230000D01*
X114506000Y-83734000D02*
X113706000Y-83734000D01*
X124962000Y-95650000D02*
X121812000Y-95650000D01*
X126162000Y-94450000D02*
X124962000Y-95650000D01*
X126162000Y-93650000D02*
X126162000Y-94450000D01*
X116002000Y-85230000D02*
X114506000Y-83734000D01*
%TO.N,Net-(U1-+IN)*%
X122616000Y-83734000D02*
X121326000Y-83734000D01*
X124892000Y-81458000D02*
X122616000Y-83734000D01*
X136068000Y-81458000D02*
X124892000Y-81458000D01*
%TO.N,+5V*%
X137084000Y-99525000D02*
X138100000Y-98509000D01*
X112479000Y-99525000D02*
X137084000Y-99525000D01*
X111208000Y-98254000D02*
X112479000Y-99525000D01*
X111208000Y-87972000D02*
X111208000Y-98254000D01*
X112906000Y-86274000D02*
X111208000Y-87972000D01*
X113706000Y-86274000D02*
X112906000Y-86274000D01*
X138100000Y-98509000D02*
X138100000Y-97460000D01*
X113706000Y-86274000D02*
X111380000Y-86274000D01*
X153231330Y-86429330D02*
X149276000Y-82474000D01*
X111380000Y-86274000D02*
X105334000Y-80228000D01*
X154118915Y-86429330D02*
X153231330Y-86429330D01*
%TO.N,Net-(U1-+IN)*%
X139664000Y-77862000D02*
X136068000Y-81458000D01*
X155078000Y-77862000D02*
X155118000Y-77902000D01*
X148514000Y-77862000D02*
X139664000Y-77862000D01*
X148514000Y-77862000D02*
X155078000Y-77862000D01*
%TO.N,ADC1*%
X147357343Y-94017343D02*
X150800000Y-97460000D01*
X141450000Y-91396000D02*
X145530000Y-91396000D01*
X139196000Y-93650000D02*
X139450000Y-93396000D01*
X139450000Y-93396000D02*
X141450000Y-91396000D01*
X136322000Y-93650000D02*
X139196000Y-93650000D01*
X147357343Y-93223343D02*
X147357343Y-94017343D01*
X145530000Y-91396000D02*
X147357343Y-93223343D01*
%TO.N,Net-(U1--IN)*%
X128702000Y-84974000D02*
X127726000Y-83998000D01*
X123368000Y-92126000D02*
X123368000Y-93650000D01*
X125450000Y-86274000D02*
X127726000Y-83998000D01*
X126416000Y-89078000D02*
X123368000Y-92126000D01*
X121326000Y-86274000D02*
X125450000Y-86274000D01*
X128702000Y-89078000D02*
X128702000Y-84974000D01*
X128702000Y-89078000D02*
X126416000Y-89078000D01*
%TO.N,Net-(U1-OUT)*%
X133782000Y-89078000D02*
X138862000Y-89078000D01*
X138862000Y-89078000D02*
X138862000Y-87300000D01*
X126162000Y-93650000D02*
X129210000Y-93650000D01*
X129210000Y-93650000D02*
X133782000Y-89078000D01*
X138862000Y-87300000D02*
X136576000Y-85014000D01*
X133742000Y-85014000D02*
X132726000Y-83998000D01*
X136576000Y-85014000D02*
X133742000Y-85014000D01*
%TO.N,Net-(D1-A)*%
X159690000Y-67742000D02*
X159690000Y-65964000D01*
X159690000Y-65964000D02*
X161468000Y-64186000D01*
%TO.N,Net-(D2-A)*%
X153594000Y-66218000D02*
X155626000Y-64186000D01*
X155626000Y-64186000D02*
X156718000Y-64186000D01*
X153594000Y-67747000D02*
X153594000Y-66218000D01*
%TO.N,Net-(D3-A)*%
X151968000Y-64186000D02*
X150038000Y-64186000D01*
X150038000Y-64186000D02*
X147752000Y-66472000D01*
X147752000Y-66472000D02*
X147752000Y-67747000D01*
%TO.N,OLED_SDA*%
X119558000Y-52581573D02*
X121336000Y-50803573D01*
X119558000Y-54464000D02*
X119558000Y-52581573D01*
X121336000Y-50803573D02*
X121336000Y-49200000D01*
%TO.N,Rx_LoRa*%
X140222000Y-55989056D02*
X141814944Y-57582000D01*
X134036000Y-49200000D02*
X134036000Y-50216000D01*
X134036000Y-50216000D02*
X135835123Y-52015123D01*
X135835123Y-52015123D02*
X136532381Y-52015123D01*
X136532381Y-52015123D02*
X140222000Y-55704742D01*
X141814944Y-57582000D02*
X142672000Y-57582000D01*
X140222000Y-55704742D02*
X140222000Y-55989056D01*
%TO.N,Tx_LoRa*%
X141822000Y-55042000D02*
X136576000Y-49796000D01*
X136576000Y-49796000D02*
X136576000Y-49200000D01*
X142672000Y-55042000D02*
X141822000Y-55042000D01*
%TO.N,ADC2*%
X152147056Y-95410000D02*
X151544000Y-95410000D01*
X156896000Y-88447000D02*
X156896000Y-88718581D01*
X153340000Y-96602944D02*
X152147056Y-95410000D01*
X156896000Y-88718581D02*
X155925251Y-89689330D01*
X149276000Y-92634000D02*
X152220670Y-89689330D01*
X153340000Y-97460000D02*
X153340000Y-96602944D01*
X151544000Y-95410000D02*
X149276000Y-93142000D01*
X149276000Y-93142000D02*
X149276000Y-92634000D01*
X152220670Y-89689330D02*
X155925251Y-89689330D01*
%TO.N,RST*%
X145720000Y-63004000D02*
X143522000Y-65202000D01*
X145720000Y-49200000D02*
X145720000Y-63004000D01*
X143522000Y-65202000D02*
X142672000Y-65202000D01*
%TO.N,LED_R*%
X148260000Y-51740000D02*
X148260000Y-49200000D01*
X151968000Y-54026000D02*
X150546000Y-54026000D01*
X150546000Y-54026000D02*
X148260000Y-51740000D01*
%TO.N,LED_V*%
X153340000Y-50045344D02*
X154780656Y-51486000D01*
X159690000Y-54026000D02*
X161468000Y-54026000D01*
X157150000Y-51486000D02*
X159690000Y-54026000D01*
X154780656Y-51486000D02*
X157150000Y-51486000D01*
X153340000Y-49200000D02*
X153340000Y-50045344D01*
%TO.N,GAS1*%
X158855416Y-77902000D02*
X155096000Y-81661416D01*
X165278000Y-77902000D02*
X158855416Y-77902000D01*
X155096000Y-81661416D02*
X155096000Y-83081003D01*
%TO.N,Net-(U3-ResB)*%
X162992000Y-89723413D02*
X162992000Y-92888000D01*
X159697917Y-86429330D02*
X162992000Y-89723413D01*
X159673085Y-86429330D02*
X159697917Y-86429330D01*
%TD*%
%TA.AperFunction,Conductor*%
%TO.N,GND*%
G36*
X104254870Y-81411133D02*
G01*
X104341640Y-81485241D01*
X104390343Y-81526838D01*
X104390346Y-81526839D01*
X104605140Y-81658466D01*
X104814391Y-81745140D01*
X104837889Y-81754873D01*
X105082852Y-81813683D01*
X105188194Y-81821973D01*
X105253483Y-81846856D01*
X105266147Y-81857910D01*
X110356483Y-86948246D01*
X110389968Y-87009569D01*
X110384984Y-87079261D01*
X110352343Y-87127561D01*
X110330416Y-87147551D01*
X110317017Y-87159766D01*
X110267564Y-87225251D01*
X110265787Y-87227495D01*
X110213350Y-87290644D01*
X110213344Y-87290652D01*
X110201860Y-87311271D01*
X110197172Y-87318465D01*
X110195781Y-87320309D01*
X110182943Y-87337309D01*
X110146350Y-87410793D01*
X110145015Y-87413325D01*
X110105083Y-87485017D01*
X110097582Y-87507399D01*
X110094294Y-87515337D01*
X110083773Y-87536466D01*
X110083771Y-87536470D01*
X110083771Y-87536472D01*
X110081629Y-87544000D01*
X110061306Y-87615425D01*
X110060459Y-87618160D01*
X110034382Y-87695962D01*
X110034380Y-87695973D01*
X110031119Y-87719344D01*
X110029346Y-87727750D01*
X110022885Y-87750458D01*
X110022885Y-87750462D01*
X110015310Y-87832204D01*
X110014980Y-87835048D01*
X110003644Y-87916314D01*
X110003644Y-87916317D01*
X110003644Y-87916319D01*
X110005376Y-87953772D01*
X110007434Y-87998300D01*
X110007500Y-88001163D01*
X110007500Y-98224835D01*
X110007434Y-98227698D01*
X110003644Y-98309684D01*
X110014980Y-98390950D01*
X110015310Y-98393794D01*
X110022884Y-98475535D01*
X110029347Y-98498249D01*
X110031121Y-98506659D01*
X110034381Y-98530031D01*
X110034382Y-98530033D01*
X110056645Y-98596460D01*
X110060459Y-98607837D01*
X110061306Y-98610573D01*
X110082774Y-98686026D01*
X110083771Y-98689528D01*
X110094295Y-98710663D01*
X110097580Y-98718595D01*
X110105085Y-98740987D01*
X110105086Y-98740989D01*
X110145024Y-98812690D01*
X110146360Y-98815224D01*
X110182937Y-98888679D01*
X110182944Y-98888692D01*
X110197170Y-98907531D01*
X110201856Y-98914723D01*
X110213348Y-98935353D01*
X110265782Y-98998496D01*
X110267560Y-99000742D01*
X110317016Y-99066233D01*
X110317018Y-99066236D01*
X110377673Y-99121530D01*
X110379745Y-99123508D01*
X110969056Y-99712819D01*
X111002541Y-99774142D01*
X110997557Y-99843834D01*
X110955685Y-99899767D01*
X110890221Y-99924184D01*
X110881375Y-99924500D01*
X100765049Y-99924500D01*
X100758968Y-99924201D01*
X100640221Y-99912505D01*
X100616381Y-99907763D01*
X100599445Y-99902625D01*
X100510968Y-99875786D01*
X100488517Y-99866486D01*
X100391372Y-99814561D01*
X100371160Y-99801056D01*
X100286011Y-99731176D01*
X100268823Y-99713988D01*
X100198943Y-99628839D01*
X100185438Y-99608627D01*
X100133510Y-99511476D01*
X100124215Y-99489037D01*
X100092234Y-99383612D01*
X100087494Y-99359777D01*
X100075799Y-99241032D01*
X100075500Y-99234951D01*
X100075500Y-93127448D01*
X100095185Y-93060409D01*
X100147989Y-93014654D01*
X100199500Y-93003448D01*
X104050340Y-93003448D01*
X104050340Y-86054503D01*
X104070025Y-85987464D01*
X104122829Y-85941709D01*
X104191987Y-85931765D01*
X104235856Y-85951799D01*
X104254974Y-85953472D01*
X104936046Y-85272399D01*
X104948835Y-85353148D01*
X105006359Y-85466045D01*
X105095955Y-85555641D01*
X105208852Y-85613165D01*
X105289599Y-85625953D01*
X104608526Y-86307025D01*
X104608526Y-86307026D01*
X104681512Y-86358131D01*
X104681516Y-86358133D01*
X104887673Y-86454265D01*
X104887682Y-86454269D01*
X105107389Y-86513139D01*
X105107400Y-86513141D01*
X105333998Y-86532966D01*
X105334002Y-86532966D01*
X105560599Y-86513141D01*
X105560610Y-86513139D01*
X105780317Y-86454269D01*
X105780331Y-86454264D01*
X105986478Y-86358136D01*
X106059472Y-86307025D01*
X105378401Y-85625953D01*
X105459148Y-85613165D01*
X105572045Y-85555641D01*
X105661641Y-85466045D01*
X105719165Y-85353148D01*
X105731953Y-85272400D01*
X106413025Y-85953472D01*
X106464136Y-85880478D01*
X106560264Y-85674331D01*
X106560269Y-85674317D01*
X106619139Y-85454610D01*
X106619141Y-85454599D01*
X106638966Y-85228002D01*
X106638966Y-85227997D01*
X106619141Y-85001400D01*
X106619139Y-85001389D01*
X106560269Y-84781682D01*
X106560265Y-84781673D01*
X106464133Y-84575516D01*
X106464131Y-84575512D01*
X106413026Y-84502526D01*
X106413025Y-84502526D01*
X105731953Y-85183598D01*
X105719165Y-85102852D01*
X105661641Y-84989955D01*
X105572045Y-84900359D01*
X105459148Y-84842835D01*
X105378400Y-84830046D01*
X106059472Y-84148974D01*
X106059471Y-84148973D01*
X105986483Y-84097866D01*
X105986481Y-84097865D01*
X105780326Y-84001734D01*
X105780317Y-84001730D01*
X105560610Y-83942860D01*
X105560599Y-83942858D01*
X105334002Y-83923034D01*
X105333998Y-83923034D01*
X105107400Y-83942858D01*
X105107389Y-83942860D01*
X104887682Y-84001730D01*
X104887673Y-84001734D01*
X104681513Y-84097868D01*
X104608527Y-84148972D01*
X104608526Y-84148973D01*
X105289600Y-84830046D01*
X105208852Y-84842835D01*
X105095955Y-84900359D01*
X105006359Y-84989955D01*
X104948835Y-85102852D01*
X104936046Y-85183599D01*
X104254973Y-84502526D01*
X104236472Y-84504145D01*
X104221337Y-84516244D01*
X104151839Y-84523436D01*
X104089484Y-84491913D01*
X104054071Y-84431683D01*
X104050340Y-84401495D01*
X104050340Y-81505424D01*
X104070025Y-81438385D01*
X104122829Y-81392630D01*
X104191987Y-81382686D01*
X104254870Y-81411133D01*
G37*
%TD.AperFunction*%
%TA.AperFunction,Conductor*%
G36*
X163484404Y-46755185D02*
G01*
X163505046Y-46771819D01*
X164163248Y-47430021D01*
X164196733Y-47491344D01*
X164191749Y-47561036D01*
X164149877Y-47616969D01*
X164084413Y-47641386D01*
X164028117Y-47632264D01*
X164011613Y-47625428D01*
X164011611Y-47625427D01*
X163873921Y-47592370D01*
X163758994Y-47564779D01*
X163758992Y-47564778D01*
X163758991Y-47564778D01*
X163500000Y-47544396D01*
X163241009Y-47564778D01*
X162988389Y-47625427D01*
X162748376Y-47724843D01*
X162526859Y-47860588D01*
X162332719Y-48026400D01*
X162329311Y-48029311D01*
X162324287Y-48035193D01*
X162265781Y-48073383D01*
X162195913Y-48073881D01*
X162136868Y-48036526D01*
X162135767Y-48035256D01*
X162130689Y-48029311D01*
X161933140Y-47860588D01*
X161711628Y-47724846D01*
X161711627Y-47724845D01*
X161711623Y-47724843D01*
X161510138Y-47641386D01*
X161471610Y-47625427D01*
X161471611Y-47625427D01*
X161333921Y-47592370D01*
X161218994Y-47564779D01*
X161218992Y-47564778D01*
X161218991Y-47564778D01*
X160960000Y-47544396D01*
X160701009Y-47564778D01*
X160448389Y-47625427D01*
X160208376Y-47724843D01*
X159986859Y-47860588D01*
X159792719Y-48026400D01*
X159789311Y-48029311D01*
X159784287Y-48035193D01*
X159725781Y-48073383D01*
X159655913Y-48073881D01*
X159596868Y-48036526D01*
X159595767Y-48035256D01*
X159590689Y-48029311D01*
X159393140Y-47860588D01*
X159171628Y-47724846D01*
X159171627Y-47724845D01*
X159171623Y-47724843D01*
X158970138Y-47641386D01*
X158931610Y-47625427D01*
X158931611Y-47625427D01*
X158793921Y-47592370D01*
X158678994Y-47564779D01*
X158678992Y-47564778D01*
X158678991Y-47564778D01*
X158420000Y-47544396D01*
X158161009Y-47564778D01*
X157908389Y-47625427D01*
X157668376Y-47724843D01*
X157446859Y-47860588D01*
X157252719Y-48026400D01*
X157249311Y-48029311D01*
X157244287Y-48035193D01*
X157185781Y-48073383D01*
X157115913Y-48073881D01*
X157056868Y-48036526D01*
X157055767Y-48035256D01*
X157050689Y-48029311D01*
X156853140Y-47860588D01*
X156631628Y-47724846D01*
X156631627Y-47724845D01*
X156631623Y-47724843D01*
X156430138Y-47641386D01*
X156391610Y-47625427D01*
X156391611Y-47625427D01*
X156253921Y-47592370D01*
X156138994Y-47564779D01*
X156138992Y-47564778D01*
X156138991Y-47564778D01*
X155880000Y-47544396D01*
X155621009Y-47564778D01*
X155368389Y-47625427D01*
X155128376Y-47724843D01*
X154906859Y-47860588D01*
X154712719Y-48026400D01*
X154709311Y-48029311D01*
X154704287Y-48035193D01*
X154645781Y-48073383D01*
X154575913Y-48073881D01*
X154516868Y-48036526D01*
X154515767Y-48035256D01*
X154510689Y-48029311D01*
X154313140Y-47860588D01*
X154091628Y-47724846D01*
X154091627Y-47724845D01*
X154091623Y-47724843D01*
X153890138Y-47641386D01*
X153851610Y-47625427D01*
X153851611Y-47625427D01*
X153713921Y-47592370D01*
X153598994Y-47564779D01*
X153598992Y-47564778D01*
X153598991Y-47564778D01*
X153340000Y-47544396D01*
X153081009Y-47564778D01*
X152828389Y-47625427D01*
X152588376Y-47724843D01*
X152366859Y-47860588D01*
X152172719Y-48026400D01*
X152169311Y-48029311D01*
X152164287Y-48035193D01*
X152105781Y-48073383D01*
X152035913Y-48073881D01*
X151976868Y-48036526D01*
X151975767Y-48035256D01*
X151970689Y-48029311D01*
X151773140Y-47860588D01*
X151551628Y-47724846D01*
X151551627Y-47724845D01*
X151551623Y-47724843D01*
X151350138Y-47641386D01*
X151311610Y-47625427D01*
X151311611Y-47625427D01*
X151173921Y-47592370D01*
X151058994Y-47564779D01*
X151058992Y-47564778D01*
X151058991Y-47564778D01*
X150800000Y-47544396D01*
X150541009Y-47564778D01*
X150288389Y-47625427D01*
X150048376Y-47724843D01*
X149826859Y-47860588D01*
X149632719Y-48026400D01*
X149629311Y-48029311D01*
X149624287Y-48035193D01*
X149565781Y-48073383D01*
X149495913Y-48073881D01*
X149436868Y-48036526D01*
X149435767Y-48035256D01*
X149430689Y-48029311D01*
X149233140Y-47860588D01*
X149011628Y-47724846D01*
X149011627Y-47724845D01*
X149011623Y-47724843D01*
X148810138Y-47641386D01*
X148771610Y-47625427D01*
X148771611Y-47625427D01*
X148633921Y-47592370D01*
X148518994Y-47564779D01*
X148518992Y-47564778D01*
X148518991Y-47564778D01*
X148260000Y-47544396D01*
X148001009Y-47564778D01*
X147748389Y-47625427D01*
X147508373Y-47724845D01*
X147324204Y-47837703D01*
X147256759Y-47855947D01*
X147190156Y-47834830D01*
X147171734Y-47819656D01*
X147072262Y-47720184D01*
X146919523Y-47624211D01*
X146749254Y-47564631D01*
X146749249Y-47564630D01*
X146614960Y-47549500D01*
X146614954Y-47549500D01*
X144825046Y-47549500D01*
X144825039Y-47549500D01*
X144690750Y-47564630D01*
X144690745Y-47564631D01*
X144520476Y-47624211D01*
X144367737Y-47720184D01*
X144240184Y-47847737D01*
X144144211Y-48000476D01*
X144084631Y-48170745D01*
X144084630Y-48170750D01*
X144069500Y-48305039D01*
X144069500Y-50094960D01*
X144084630Y-50229249D01*
X144084631Y-50229254D01*
X144144211Y-50399523D01*
X144240184Y-50552262D01*
X144367740Y-50679818D01*
X144461471Y-50738712D01*
X144507763Y-50791046D01*
X144519500Y-50843706D01*
X144519500Y-53889169D01*
X144499815Y-53956208D01*
X144447011Y-54001963D01*
X144377853Y-54011907D01*
X144314297Y-53982882D01*
X144278459Y-53930124D01*
X144247790Y-53842480D01*
X144231866Y-53817137D01*
X144151816Y-53689738D01*
X144024262Y-53562184D01*
X143972865Y-53529889D01*
X143871523Y-53466211D01*
X143701254Y-53406631D01*
X143701249Y-53406630D01*
X143566960Y-53391500D01*
X143566954Y-53391500D01*
X141920625Y-53391500D01*
X141853586Y-53371815D01*
X141832944Y-53355181D01*
X139481554Y-51003791D01*
X139448069Y-50942468D01*
X139453053Y-50872776D01*
X139494925Y-50816843D01*
X139540284Y-50795538D01*
X139627610Y-50774573D01*
X139867628Y-50675154D01*
X140089140Y-50539412D01*
X140286689Y-50370689D01*
X140291710Y-50364809D01*
X140350213Y-50326617D01*
X140420081Y-50326116D01*
X140479128Y-50363468D01*
X140480197Y-50364702D01*
X140485311Y-50370689D01*
X140682860Y-50539412D01*
X140904372Y-50675154D01*
X140904374Y-50675154D01*
X140904376Y-50675156D01*
X140934984Y-50687834D01*
X141144390Y-50774573D01*
X141397006Y-50835221D01*
X141656000Y-50855604D01*
X141914994Y-50835221D01*
X142167610Y-50774573D01*
X142407628Y-50675154D01*
X142629140Y-50539412D01*
X142826689Y-50370689D01*
X142995412Y-50173140D01*
X143131154Y-49951628D01*
X143230573Y-49711610D01*
X143291221Y-49458994D01*
X143311604Y-49200000D01*
X143291221Y-48941006D01*
X143230573Y-48688390D01*
X143131154Y-48448372D01*
X142995412Y-48226860D01*
X142826689Y-48029311D01*
X142629140Y-47860588D01*
X142407628Y-47724846D01*
X142407627Y-47724845D01*
X142407623Y-47724843D01*
X142206138Y-47641386D01*
X142167610Y-47625427D01*
X142167611Y-47625427D01*
X142029921Y-47592370D01*
X141914994Y-47564779D01*
X141914992Y-47564778D01*
X141914991Y-47564778D01*
X141656000Y-47544396D01*
X141397009Y-47564778D01*
X141144389Y-47625427D01*
X140904376Y-47724843D01*
X140682859Y-47860588D01*
X140488719Y-48026400D01*
X140485311Y-48029311D01*
X140480287Y-48035193D01*
X140421781Y-48073383D01*
X140351913Y-48073881D01*
X140292868Y-48036526D01*
X140291767Y-48035256D01*
X140286689Y-48029311D01*
X140089140Y-47860588D01*
X139867628Y-47724846D01*
X139867627Y-47724845D01*
X139867623Y-47724843D01*
X139666138Y-47641386D01*
X139627610Y-47625427D01*
X139627611Y-47625427D01*
X139489921Y-47592370D01*
X139374994Y-47564779D01*
X139374992Y-47564778D01*
X139374991Y-47564778D01*
X139116000Y-47544396D01*
X138857009Y-47564778D01*
X138604389Y-47625427D01*
X138364376Y-47724843D01*
X138142859Y-47860588D01*
X137948719Y-48026400D01*
X137945311Y-48029311D01*
X137940287Y-48035193D01*
X137881781Y-48073383D01*
X137811913Y-48073881D01*
X137752868Y-48036526D01*
X137751767Y-48035256D01*
X137746689Y-48029311D01*
X137549140Y-47860588D01*
X137327628Y-47724846D01*
X137327627Y-47724845D01*
X137327623Y-47724843D01*
X137126138Y-47641386D01*
X137087610Y-47625427D01*
X137087611Y-47625427D01*
X136949921Y-47592370D01*
X136834994Y-47564779D01*
X136834992Y-47564778D01*
X136834991Y-47564778D01*
X136576000Y-47544396D01*
X136317009Y-47564778D01*
X136064389Y-47625427D01*
X135824376Y-47724843D01*
X135602859Y-47860588D01*
X135408719Y-48026400D01*
X135405311Y-48029311D01*
X135400287Y-48035193D01*
X135341781Y-48073383D01*
X135271913Y-48073881D01*
X135212868Y-48036526D01*
X135211767Y-48035256D01*
X135206689Y-48029311D01*
X135009140Y-47860588D01*
X134787628Y-47724846D01*
X134787627Y-47724845D01*
X134787623Y-47724843D01*
X134586138Y-47641386D01*
X134547610Y-47625427D01*
X134547611Y-47625427D01*
X134409921Y-47592370D01*
X134294994Y-47564779D01*
X134294992Y-47564778D01*
X134294991Y-47564778D01*
X134036000Y-47544396D01*
X133777009Y-47564778D01*
X133524389Y-47625427D01*
X133284376Y-47724843D01*
X133062859Y-47860588D01*
X132868719Y-48026400D01*
X132865311Y-48029311D01*
X132860287Y-48035193D01*
X132801781Y-48073383D01*
X132731913Y-48073881D01*
X132672868Y-48036526D01*
X132671767Y-48035256D01*
X132666689Y-48029311D01*
X132469140Y-47860588D01*
X132247628Y-47724846D01*
X132247627Y-47724845D01*
X132247623Y-47724843D01*
X132046138Y-47641386D01*
X132007610Y-47625427D01*
X132007611Y-47625427D01*
X131869921Y-47592370D01*
X131754994Y-47564779D01*
X131754992Y-47564778D01*
X131754991Y-47564778D01*
X131496000Y-47544396D01*
X131237009Y-47564778D01*
X130984389Y-47625427D01*
X130744376Y-47724843D01*
X130522859Y-47860588D01*
X130328719Y-48026400D01*
X130325311Y-48029311D01*
X130320287Y-48035193D01*
X130261781Y-48073383D01*
X130191913Y-48073881D01*
X130132868Y-48036526D01*
X130131767Y-48035256D01*
X130126689Y-48029311D01*
X129929140Y-47860588D01*
X129707628Y-47724846D01*
X129707627Y-47724845D01*
X129707623Y-47724843D01*
X129506138Y-47641386D01*
X129467610Y-47625427D01*
X129467611Y-47625427D01*
X129329921Y-47592370D01*
X129214994Y-47564779D01*
X129214992Y-47564778D01*
X129214991Y-47564778D01*
X128956000Y-47544396D01*
X128697009Y-47564778D01*
X128444389Y-47625427D01*
X128204376Y-47724843D01*
X127982859Y-47860588D01*
X127785311Y-48029311D01*
X127616586Y-48226861D01*
X127598258Y-48256771D01*
X127546445Y-48303646D01*
X127477515Y-48315067D01*
X127413353Y-48287410D01*
X127404850Y-48279662D01*
X127287078Y-48161891D01*
X127093578Y-48026399D01*
X126879492Y-47926570D01*
X126879486Y-47926567D01*
X126666000Y-47869364D01*
X126666000Y-48764498D01*
X126558315Y-48715320D01*
X126451763Y-48700000D01*
X126380237Y-48700000D01*
X126273685Y-48715320D01*
X126166000Y-48764498D01*
X126166000Y-47869364D01*
X126165999Y-47869364D01*
X125952513Y-47926567D01*
X125952507Y-47926570D01*
X125738422Y-48026399D01*
X125738420Y-48026400D01*
X125544926Y-48161886D01*
X125427150Y-48279662D01*
X125365827Y-48313146D01*
X125296135Y-48308162D01*
X125240202Y-48266290D01*
X125233742Y-48256771D01*
X125215413Y-48226861D01*
X125084755Y-48073881D01*
X125046689Y-48029311D01*
X124849140Y-47860588D01*
X124627628Y-47724846D01*
X124627627Y-47724845D01*
X124627623Y-47724843D01*
X124426138Y-47641386D01*
X124387610Y-47625427D01*
X124387611Y-47625427D01*
X124249921Y-47592370D01*
X124134994Y-47564779D01*
X124134992Y-47564778D01*
X124134991Y-47564778D01*
X123876000Y-47544396D01*
X123617009Y-47564778D01*
X123364389Y-47625427D01*
X123124376Y-47724843D01*
X122902859Y-47860588D01*
X122708719Y-48026400D01*
X122705311Y-48029311D01*
X122700287Y-48035193D01*
X122641781Y-48073383D01*
X122571913Y-48073881D01*
X122512868Y-48036526D01*
X122511767Y-48035256D01*
X122506689Y-48029311D01*
X122309140Y-47860588D01*
X122087628Y-47724846D01*
X122087627Y-47724845D01*
X122087623Y-47724843D01*
X121886138Y-47641386D01*
X121847610Y-47625427D01*
X121847611Y-47625427D01*
X121709921Y-47592370D01*
X121594994Y-47564779D01*
X121594992Y-47564778D01*
X121594991Y-47564778D01*
X121336000Y-47544396D01*
X121077009Y-47564778D01*
X120824389Y-47625427D01*
X120584373Y-47724845D01*
X120400204Y-47837703D01*
X120332759Y-47855947D01*
X120266156Y-47834830D01*
X120247734Y-47819656D01*
X120148262Y-47720184D01*
X119995523Y-47624211D01*
X119825254Y-47564631D01*
X119825249Y-47564630D01*
X119690960Y-47549500D01*
X119690954Y-47549500D01*
X117901046Y-47549500D01*
X117901039Y-47549500D01*
X117766750Y-47564630D01*
X117766745Y-47564631D01*
X117596476Y-47624211D01*
X117443737Y-47720184D01*
X117316184Y-47847737D01*
X117220211Y-48000476D01*
X117160631Y-48170745D01*
X117160630Y-48170750D01*
X117145500Y-48305039D01*
X117145500Y-50094960D01*
X117160630Y-50229249D01*
X117160631Y-50229254D01*
X117220211Y-50399523D01*
X117302594Y-50530634D01*
X117316184Y-50552262D01*
X117443738Y-50679816D01*
X117480618Y-50702989D01*
X117594542Y-50774573D01*
X117596478Y-50775789D01*
X117652912Y-50795536D01*
X117766745Y-50835368D01*
X117766750Y-50835369D01*
X117840747Y-50843706D01*
X117901040Y-50850499D01*
X117901043Y-50850500D01*
X117901046Y-50850500D01*
X119291948Y-50850500D01*
X119358987Y-50870185D01*
X119404742Y-50922989D01*
X119414686Y-50992147D01*
X119385661Y-51055703D01*
X119379632Y-51062177D01*
X119003551Y-51438258D01*
X118729744Y-51712065D01*
X118727673Y-51714042D01*
X118667022Y-51769333D01*
X118617564Y-51834824D01*
X118615787Y-51837068D01*
X118563350Y-51900217D01*
X118563344Y-51900225D01*
X118551860Y-51920844D01*
X118547172Y-51928038D01*
X118539575Y-51938098D01*
X118532943Y-51946882D01*
X118496350Y-52020366D01*
X118495015Y-52022898D01*
X118455083Y-52094590D01*
X118447582Y-52116972D01*
X118444294Y-52124910D01*
X118433773Y-52146039D01*
X118433771Y-52146043D01*
X118433771Y-52146045D01*
X118428036Y-52166201D01*
X118411306Y-52224998D01*
X118410459Y-52227733D01*
X118384382Y-52305535D01*
X118384380Y-52305546D01*
X118381119Y-52328917D01*
X118379346Y-52337323D01*
X118372885Y-52360031D01*
X118372885Y-52360035D01*
X118365310Y-52441777D01*
X118364980Y-52444621D01*
X118353644Y-52525887D01*
X118357434Y-52607873D01*
X118357500Y-52610736D01*
X118357500Y-53430286D01*
X118337815Y-53497325D01*
X118327792Y-53510816D01*
X118296494Y-53547462D01*
X118296488Y-53547470D01*
X118168646Y-53756089D01*
X118168644Y-53756092D01*
X118075011Y-53982144D01*
X118075011Y-53982146D01*
X118017891Y-54220067D01*
X117998693Y-54464000D01*
X118017891Y-54707932D01*
X118075011Y-54945853D01*
X118075011Y-54945855D01*
X118168644Y-55171907D01*
X118168646Y-55171910D01*
X118296490Y-55380532D01*
X118296496Y-55380541D01*
X118455400Y-55566594D01*
X118455405Y-55566599D01*
X118632673Y-55718000D01*
X118641462Y-55725506D01*
X118641467Y-55725509D01*
X118850089Y-55853353D01*
X118850092Y-55853355D01*
X119076145Y-55946988D01*
X119076146Y-55946988D01*
X119076148Y-55946989D01*
X119314071Y-56004109D01*
X119558000Y-56023307D01*
X119801929Y-56004109D01*
X120039852Y-55946989D01*
X120039854Y-55946988D01*
X120039855Y-55946988D01*
X120265907Y-55853355D01*
X120265908Y-55853354D01*
X120265911Y-55853353D01*
X120474538Y-55725506D01*
X120660597Y-55566597D01*
X120733710Y-55480991D01*
X120792216Y-55442799D01*
X120862084Y-55442300D01*
X120921131Y-55479654D01*
X120922261Y-55480959D01*
X120995403Y-55566597D01*
X120995405Y-55566599D01*
X121172673Y-55718000D01*
X121181462Y-55725506D01*
X121181467Y-55725509D01*
X121390089Y-55853353D01*
X121390092Y-55853355D01*
X121616145Y-55946988D01*
X121616146Y-55946988D01*
X121616148Y-55946989D01*
X121854071Y-56004109D01*
X122098000Y-56023307D01*
X122341929Y-56004109D01*
X122579852Y-55946989D01*
X122579854Y-55946988D01*
X122579855Y-55946988D01*
X122805907Y-55853355D01*
X122805908Y-55853354D01*
X122805911Y-55853353D01*
X123014538Y-55725506D01*
X123200597Y-55566597D01*
X123273710Y-55480991D01*
X123332216Y-55442799D01*
X123402084Y-55442300D01*
X123461131Y-55479654D01*
X123462261Y-55480959D01*
X123535403Y-55566597D01*
X123535405Y-55566599D01*
X123712673Y-55718000D01*
X123721462Y-55725506D01*
X123721467Y-55725509D01*
X123930089Y-55853353D01*
X123930092Y-55853355D01*
X124156145Y-55946988D01*
X124156146Y-55946988D01*
X124156148Y-55946989D01*
X124394071Y-56004109D01*
X124638000Y-56023307D01*
X124881929Y-56004109D01*
X125119852Y-55946989D01*
X125119854Y-55946988D01*
X125119855Y-55946988D01*
X125345907Y-55853355D01*
X125345908Y-55853354D01*
X125345911Y-55853353D01*
X125554538Y-55725506D01*
X125740597Y-55566597D01*
X125810345Y-55484931D01*
X125868852Y-55446739D01*
X125938719Y-55446240D01*
X125997766Y-55483594D01*
X126003901Y-55491153D01*
X126066809Y-55575187D01*
X126066812Y-55575190D01*
X126181906Y-55661350D01*
X126181913Y-55661354D01*
X126316620Y-55711596D01*
X126316627Y-55711598D01*
X126376155Y-55717999D01*
X126376172Y-55718000D01*
X126928000Y-55718000D01*
X126928000Y-54899501D01*
X127035685Y-54948680D01*
X127142237Y-54964000D01*
X127213763Y-54964000D01*
X127320315Y-54948680D01*
X127428000Y-54899501D01*
X127428000Y-55718000D01*
X127979828Y-55718000D01*
X127979844Y-55717999D01*
X128039372Y-55711598D01*
X128039379Y-55711596D01*
X128174086Y-55661354D01*
X128174093Y-55661350D01*
X128289187Y-55575190D01*
X128289190Y-55575187D01*
X128375350Y-55460093D01*
X128375354Y-55460086D01*
X128425596Y-55325379D01*
X128425598Y-55325372D01*
X128431999Y-55265844D01*
X128432000Y-55265827D01*
X128432000Y-54714000D01*
X127611686Y-54714000D01*
X127637493Y-54673844D01*
X127678000Y-54535889D01*
X127678000Y-54392111D01*
X127637493Y-54254156D01*
X127611686Y-54214000D01*
X128432000Y-54214000D01*
X128432000Y-53662172D01*
X128431999Y-53662155D01*
X128425598Y-53602627D01*
X128425596Y-53602620D01*
X128375354Y-53467913D01*
X128375350Y-53467906D01*
X128289190Y-53352812D01*
X128289187Y-53352809D01*
X128174093Y-53266649D01*
X128174086Y-53266645D01*
X128039379Y-53216403D01*
X128039372Y-53216401D01*
X127979844Y-53210000D01*
X127428000Y-53210000D01*
X127428000Y-54028498D01*
X127320315Y-53979320D01*
X127213763Y-53964000D01*
X127142237Y-53964000D01*
X127035685Y-53979320D01*
X126928000Y-54028498D01*
X126928000Y-53210000D01*
X126376155Y-53210000D01*
X126316627Y-53216401D01*
X126316620Y-53216403D01*
X126181913Y-53266645D01*
X126181906Y-53266649D01*
X126066812Y-53352809D01*
X126003900Y-53436847D01*
X125947965Y-53478718D01*
X125878273Y-53483701D01*
X125816951Y-53450214D01*
X125810344Y-53443066D01*
X125740599Y-53361405D01*
X125740594Y-53361400D01*
X125554541Y-53202496D01*
X125554532Y-53202490D01*
X125345910Y-53074646D01*
X125345907Y-53074644D01*
X125119854Y-52981011D01*
X124881932Y-52923891D01*
X124638000Y-52904693D01*
X124394067Y-52923891D01*
X124156146Y-52981011D01*
X124156144Y-52981011D01*
X123930092Y-53074644D01*
X123930089Y-53074646D01*
X123721467Y-53202490D01*
X123721458Y-53202496D01*
X123535405Y-53361400D01*
X123462290Y-53447007D01*
X123403783Y-53485200D01*
X123333915Y-53485698D01*
X123274869Y-53448344D01*
X123273710Y-53447007D01*
X123219211Y-53383197D01*
X123200597Y-53361403D01*
X123200595Y-53361401D01*
X123200594Y-53361400D01*
X123014541Y-53202496D01*
X123014532Y-53202490D01*
X122805910Y-53074646D01*
X122805907Y-53074644D01*
X122579854Y-52981011D01*
X122341932Y-52923891D01*
X122098000Y-52904693D01*
X121854067Y-52923891D01*
X121616146Y-52981011D01*
X121616144Y-52981011D01*
X121390092Y-53074644D01*
X121390089Y-53074646D01*
X121181467Y-53202490D01*
X121181458Y-53202496D01*
X120995405Y-53361400D01*
X120995404Y-53361401D01*
X120976789Y-53383197D01*
X120918282Y-53421389D01*
X120848414Y-53421887D01*
X120789368Y-53384533D01*
X120759891Y-53321186D01*
X120758500Y-53302664D01*
X120758500Y-53130197D01*
X120778185Y-53063158D01*
X120794814Y-53042521D01*
X122164264Y-51673070D01*
X122166303Y-51671123D01*
X122226981Y-51615809D01*
X122276453Y-51550295D01*
X122278182Y-51548111D01*
X122330653Y-51484926D01*
X122342146Y-51464288D01*
X122346827Y-51457104D01*
X122361058Y-51438262D01*
X122397637Y-51364798D01*
X122398971Y-51362269D01*
X122438915Y-51290558D01*
X122446416Y-51268174D01*
X122449707Y-51260231D01*
X122460227Y-51239105D01*
X122460226Y-51239105D01*
X122460229Y-51239101D01*
X122482702Y-51160112D01*
X122483524Y-51157460D01*
X122509619Y-51079605D01*
X122512881Y-51056211D01*
X122514654Y-51047814D01*
X122520225Y-51028236D01*
X122521115Y-51025109D01*
X122528691Y-50943337D01*
X122529010Y-50940582D01*
X122540356Y-50859254D01*
X122536566Y-50777264D01*
X122536500Y-50774401D01*
X122536500Y-50495487D01*
X122556185Y-50428448D01*
X122608989Y-50382693D01*
X122678147Y-50372749D01*
X122741030Y-50401196D01*
X122902860Y-50539412D01*
X123124372Y-50675154D01*
X123124374Y-50675154D01*
X123124376Y-50675156D01*
X123154984Y-50687834D01*
X123364390Y-50774573D01*
X123617006Y-50835221D01*
X123876000Y-50855604D01*
X124134994Y-50835221D01*
X124387610Y-50774573D01*
X124627628Y-50675154D01*
X124849140Y-50539412D01*
X125046689Y-50370689D01*
X125215412Y-50173140D01*
X125233740Y-50143230D01*
X125285550Y-50096355D01*
X125354479Y-50084931D01*
X125418643Y-50112587D01*
X125427149Y-50120337D01*
X125544921Y-50238108D01*
X125738421Y-50373600D01*
X125952507Y-50473429D01*
X125952516Y-50473433D01*
X126166000Y-50530634D01*
X126166000Y-49635501D01*
X126273685Y-49684680D01*
X126380237Y-49700000D01*
X126451763Y-49700000D01*
X126558315Y-49684680D01*
X126666000Y-49635501D01*
X126666000Y-50530633D01*
X126879483Y-50473433D01*
X126879492Y-50473429D01*
X127093578Y-50373600D01*
X127287082Y-50238105D01*
X127404850Y-50120338D01*
X127466173Y-50086853D01*
X127535865Y-50091837D01*
X127591798Y-50133709D01*
X127598258Y-50143229D01*
X127616584Y-50173135D01*
X127616585Y-50173137D01*
X127616588Y-50173140D01*
X127785311Y-50370689D01*
X127982860Y-50539412D01*
X128204372Y-50675154D01*
X128204374Y-50675154D01*
X128204376Y-50675156D01*
X128234984Y-50687834D01*
X128444390Y-50774573D01*
X128697006Y-50835221D01*
X128956000Y-50855604D01*
X129214994Y-50835221D01*
X129467610Y-50774573D01*
X129707628Y-50675154D01*
X129929140Y-50539412D01*
X130126689Y-50370689D01*
X130131710Y-50364809D01*
X130190213Y-50326617D01*
X130260081Y-50326116D01*
X130319128Y-50363468D01*
X130320197Y-50364702D01*
X130325311Y-50370689D01*
X130522860Y-50539412D01*
X130744372Y-50675154D01*
X130744374Y-50675154D01*
X130744376Y-50675156D01*
X130774984Y-50687834D01*
X130984390Y-50774573D01*
X131237006Y-50835221D01*
X131496000Y-50855604D01*
X131754994Y-50835221D01*
X132007610Y-50774573D01*
X132247628Y-50675154D01*
X132469140Y-50539412D01*
X132652653Y-50382676D01*
X132716411Y-50354107D01*
X132785497Y-50364544D01*
X132837973Y-50410675D01*
X132852447Y-50443028D01*
X132854566Y-50450474D01*
X132857348Y-50460252D01*
X132859121Y-50468657D01*
X132862381Y-50492032D01*
X132862382Y-50492033D01*
X132882568Y-50552262D01*
X132888459Y-50569837D01*
X132889306Y-50572573D01*
X132897950Y-50602955D01*
X132911771Y-50651528D01*
X132922295Y-50672663D01*
X132925580Y-50680595D01*
X132933085Y-50702987D01*
X132933086Y-50702989D01*
X132973024Y-50774690D01*
X132974360Y-50777224D01*
X133010937Y-50850679D01*
X133010944Y-50850692D01*
X133025170Y-50869531D01*
X133029856Y-50876723D01*
X133041348Y-50897353D01*
X133093782Y-50960496D01*
X133095560Y-50962742D01*
X133145016Y-51028233D01*
X133145018Y-51028236D01*
X133205673Y-51083530D01*
X133207745Y-51085508D01*
X134576791Y-52454554D01*
X134610276Y-52515877D01*
X134605292Y-52585569D01*
X134563420Y-52641502D01*
X134497956Y-52665919D01*
X134481001Y-52665970D01*
X134368000Y-52658564D01*
X134067080Y-52678287D01*
X134067079Y-52678287D01*
X134067069Y-52678288D01*
X133771316Y-52737118D01*
X133771301Y-52737122D01*
X133485752Y-52834053D01*
X133485731Y-52834062D01*
X133215286Y-52967431D01*
X133215279Y-52967435D01*
X132964540Y-53134973D01*
X132737810Y-53333810D01*
X132538973Y-53560540D01*
X132371435Y-53811279D01*
X132371431Y-53811286D01*
X132238062Y-54081731D01*
X132238053Y-54081752D01*
X132141122Y-54367301D01*
X132141118Y-54367316D01*
X132082288Y-54663069D01*
X132082287Y-54663079D01*
X132082287Y-54663080D01*
X132062564Y-54964000D01*
X132080021Y-55230354D01*
X132082287Y-55264918D01*
X132082288Y-55264930D01*
X132141118Y-55560683D01*
X132141122Y-55560698D01*
X132238053Y-55846247D01*
X132238062Y-55846268D01*
X132371431Y-56116713D01*
X132371435Y-56116720D01*
X132538973Y-56367459D01*
X132737810Y-56594189D01*
X132964540Y-56793026D01*
X133215279Y-56960564D01*
X133215286Y-56960568D01*
X133485731Y-57093937D01*
X133485736Y-57093939D01*
X133485748Y-57093945D01*
X133771309Y-57190880D01*
X133950789Y-57226581D01*
X134067069Y-57249711D01*
X134067070Y-57249711D01*
X134067080Y-57249713D01*
X134368000Y-57269436D01*
X134668920Y-57249713D01*
X134964691Y-57190880D01*
X135250252Y-57093945D01*
X135520718Y-56960566D01*
X135771461Y-56793025D01*
X135998189Y-56594189D01*
X136197025Y-56367461D01*
X136364566Y-56116718D01*
X136497945Y-55846252D01*
X136594880Y-55560691D01*
X136653713Y-55264920D01*
X136673436Y-54964000D01*
X136653713Y-54663080D01*
X136594880Y-54367309D01*
X136497945Y-54081748D01*
X136458599Y-54001963D01*
X136437739Y-53959662D01*
X136425743Y-53890830D01*
X136452864Y-53826439D01*
X136510492Y-53786933D01*
X136580331Y-53784854D01*
X136636632Y-53817137D01*
X139013124Y-56193629D01*
X139046609Y-56254952D01*
X139048252Y-56264163D01*
X139048380Y-56265081D01*
X139048382Y-56265089D01*
X139074459Y-56342893D01*
X139075306Y-56345629D01*
X139089142Y-56394259D01*
X139097771Y-56424584D01*
X139108295Y-56445719D01*
X139111580Y-56453651D01*
X139119085Y-56476043D01*
X139119086Y-56476045D01*
X139159024Y-56547746D01*
X139160360Y-56550280D01*
X139196937Y-56623735D01*
X139196944Y-56623748D01*
X139211170Y-56642587D01*
X139215856Y-56649779D01*
X139227348Y-56670409D01*
X139279782Y-56733552D01*
X139281560Y-56735798D01*
X139331016Y-56801289D01*
X139331018Y-56801292D01*
X139391673Y-56856586D01*
X139393745Y-56858564D01*
X140945434Y-58410253D01*
X140947412Y-58412324D01*
X141002705Y-58472979D01*
X141068200Y-58522437D01*
X141070438Y-58524210D01*
X141133591Y-58576652D01*
X141154216Y-58588140D01*
X141161415Y-58592831D01*
X141180253Y-58607057D01*
X141180254Y-58607057D01*
X141180255Y-58607058D01*
X141253740Y-58643649D01*
X141256219Y-58644955D01*
X141327957Y-58684914D01*
X141327955Y-58684914D01*
X141336099Y-58687643D01*
X141350352Y-58692420D01*
X141358283Y-58695705D01*
X141379416Y-58706229D01*
X141454606Y-58727622D01*
X141501207Y-58752600D01*
X141507192Y-58757712D01*
X141545383Y-58816220D01*
X141545879Y-58886088D01*
X141508524Y-58945133D01*
X141507195Y-58946285D01*
X141501312Y-58951310D01*
X141332588Y-59148859D01*
X141196843Y-59370376D01*
X141097427Y-59610389D01*
X141036778Y-59863009D01*
X141016396Y-60122000D01*
X141036778Y-60380990D01*
X141097427Y-60633610D01*
X141196843Y-60873623D01*
X141196845Y-60873627D01*
X141196846Y-60873628D01*
X141332588Y-61095140D01*
X141501311Y-61292689D01*
X141507193Y-61297712D01*
X141545383Y-61356219D01*
X141545881Y-61426087D01*
X141508526Y-61485132D01*
X141507256Y-61486232D01*
X141501311Y-61491311D01*
X141501309Y-61491313D01*
X141332588Y-61688859D01*
X141196843Y-61910376D01*
X141097427Y-62150389D01*
X141036778Y-62403009D01*
X141016396Y-62662000D01*
X141036778Y-62920990D01*
X141097427Y-63173610D01*
X141196843Y-63413623D01*
X141196845Y-63413627D01*
X141196846Y-63413628D01*
X141332588Y-63635140D01*
X141501311Y-63832689D01*
X141507193Y-63837712D01*
X141545383Y-63896219D01*
X141545881Y-63966087D01*
X141508526Y-64025132D01*
X141507256Y-64026232D01*
X141501311Y-64031311D01*
X141501309Y-64031313D01*
X141332588Y-64228859D01*
X141196843Y-64450376D01*
X141097427Y-64690389D01*
X141036778Y-64943009D01*
X141016396Y-65202000D01*
X141036778Y-65460990D01*
X141097427Y-65713610D01*
X141196843Y-65953623D01*
X141196845Y-65953627D01*
X141196846Y-65953628D01*
X141332588Y-66175140D01*
X141501311Y-66372689D01*
X141507193Y-66377712D01*
X141545383Y-66436219D01*
X141545881Y-66506087D01*
X141508526Y-66565132D01*
X141507256Y-66566232D01*
X141501311Y-66571311D01*
X141501309Y-66571313D01*
X141332588Y-66768859D01*
X141196843Y-66990376D01*
X141097427Y-67230389D01*
X141036778Y-67483009D01*
X141016396Y-67742000D01*
X141036778Y-68000990D01*
X141097427Y-68253610D01*
X141196843Y-68493623D01*
X141196845Y-68493627D01*
X141196846Y-68493628D01*
X141332588Y-68715140D01*
X141501311Y-68912689D01*
X141507193Y-68917712D01*
X141545383Y-68976219D01*
X141545881Y-69046087D01*
X141508526Y-69105132D01*
X141507256Y-69106232D01*
X141501311Y-69111311D01*
X141501309Y-69111313D01*
X141332588Y-69308859D01*
X141196843Y-69530376D01*
X141097427Y-69770389D01*
X141036778Y-70023009D01*
X141016396Y-70282000D01*
X141036778Y-70540990D01*
X141097427Y-70793610D01*
X141196843Y-71033623D01*
X141196845Y-71033627D01*
X141196846Y-71033628D01*
X141332588Y-71255140D01*
X141501311Y-71452689D01*
X141608445Y-71544190D01*
X141698861Y-71621413D01*
X141728771Y-71639742D01*
X141775646Y-71691555D01*
X141787067Y-71760485D01*
X141759410Y-71824647D01*
X141751662Y-71833150D01*
X141633886Y-71950926D01*
X141498400Y-72144420D01*
X141498399Y-72144422D01*
X141398570Y-72358507D01*
X141398567Y-72358513D01*
X141341364Y-72571999D01*
X141341364Y-72572000D01*
X142238314Y-72572000D01*
X142212507Y-72612156D01*
X142172000Y-72750111D01*
X142172000Y-72893889D01*
X142212507Y-73031844D01*
X142238314Y-73072000D01*
X141341364Y-73072000D01*
X141398567Y-73285486D01*
X141398570Y-73285492D01*
X141498399Y-73499578D01*
X141633894Y-73693082D01*
X141800917Y-73860105D01*
X141994421Y-73995600D01*
X142208507Y-74095429D01*
X142208516Y-74095433D01*
X142422000Y-74152634D01*
X142422000Y-73257501D01*
X142529685Y-73306680D01*
X142636237Y-73322000D01*
X142707763Y-73322000D01*
X142814315Y-73306680D01*
X142922000Y-73257501D01*
X142922000Y-74152633D01*
X143135483Y-74095433D01*
X143135492Y-74095429D01*
X143349578Y-73995600D01*
X143543082Y-73860105D01*
X143710105Y-73693082D01*
X143845600Y-73499578D01*
X143945429Y-73285492D01*
X143945432Y-73285486D01*
X144002636Y-73072000D01*
X143105686Y-73072000D01*
X143131493Y-73031844D01*
X143172000Y-72893889D01*
X143172000Y-72750111D01*
X143131493Y-72612156D01*
X143105686Y-72572000D01*
X144002636Y-72572000D01*
X144002635Y-72571999D01*
X143945432Y-72358513D01*
X143945429Y-72358507D01*
X143845600Y-72144422D01*
X143845599Y-72144420D01*
X143710113Y-71950926D01*
X143592337Y-71833149D01*
X143558853Y-71771826D01*
X143563837Y-71702134D01*
X143605709Y-71646201D01*
X143615228Y-71639742D01*
X143645140Y-71621412D01*
X143842689Y-71452689D01*
X144011412Y-71255140D01*
X144147154Y-71033628D01*
X144246573Y-70793610D01*
X144307221Y-70540994D01*
X144327604Y-70282000D01*
X144307221Y-70023006D01*
X144246573Y-69770390D01*
X144147154Y-69530372D01*
X144011412Y-69308860D01*
X143842689Y-69111311D01*
X143836809Y-69106289D01*
X143798617Y-69047787D01*
X143798116Y-68977919D01*
X143835468Y-68918872D01*
X143836702Y-68917802D01*
X143842689Y-68912689D01*
X144011412Y-68715140D01*
X144147154Y-68493628D01*
X144246573Y-68253610D01*
X144307221Y-68000994D01*
X144327210Y-67747004D01*
X146046732Y-67747004D01*
X146065777Y-68001154D01*
X146121350Y-68244637D01*
X146122492Y-68249637D01*
X146215607Y-68486888D01*
X146343041Y-68707612D01*
X146485993Y-68886867D01*
X146512401Y-68951554D01*
X146499646Y-69020249D01*
X146488313Y-69038491D01*
X146408647Y-69144911D01*
X146408645Y-69144913D01*
X146358403Y-69279620D01*
X146358401Y-69279627D01*
X146352000Y-69339155D01*
X146352000Y-70037000D01*
X147376722Y-70037000D01*
X147328375Y-70120740D01*
X147298190Y-70252992D01*
X147308327Y-70388265D01*
X147357887Y-70514541D01*
X147375797Y-70537000D01*
X146352000Y-70537000D01*
X146352000Y-71234844D01*
X146358401Y-71294372D01*
X146358403Y-71294379D01*
X146408645Y-71429086D01*
X146408649Y-71429093D01*
X146494809Y-71544187D01*
X146494812Y-71544190D01*
X146609906Y-71630350D01*
X146609913Y-71630354D01*
X146744620Y-71680596D01*
X146744627Y-71680598D01*
X146804155Y-71686999D01*
X146804172Y-71687000D01*
X147661601Y-71687000D01*
X147728640Y-71706685D01*
X147774395Y-71759489D01*
X147776341Y-71770788D01*
X148469600Y-72464046D01*
X148388852Y-72476835D01*
X148275955Y-72534359D01*
X148186359Y-72623955D01*
X148128835Y-72736852D01*
X148116046Y-72817599D01*
X147434973Y-72136526D01*
X147434972Y-72136527D01*
X147383868Y-72209513D01*
X147287734Y-72415673D01*
X147287730Y-72415682D01*
X147228860Y-72635389D01*
X147228858Y-72635400D01*
X147209034Y-72861997D01*
X147209034Y-72862002D01*
X147228858Y-73088599D01*
X147228860Y-73088610D01*
X147287730Y-73308317D01*
X147287734Y-73308326D01*
X147383865Y-73514481D01*
X147383866Y-73514483D01*
X147434973Y-73587471D01*
X147434974Y-73587472D01*
X148116046Y-72906399D01*
X148128835Y-72987148D01*
X148186359Y-73100045D01*
X148275955Y-73189641D01*
X148388852Y-73247165D01*
X148469599Y-73259953D01*
X147788526Y-73941025D01*
X147788526Y-73941026D01*
X147861512Y-73992131D01*
X147861516Y-73992133D01*
X148067673Y-74088265D01*
X148067682Y-74088269D01*
X148287389Y-74147139D01*
X148287400Y-74147141D01*
X148513998Y-74166966D01*
X148514002Y-74166966D01*
X148740599Y-74147141D01*
X148740610Y-74147139D01*
X148960317Y-74088269D01*
X148960331Y-74088264D01*
X149166478Y-73992136D01*
X149239472Y-73941025D01*
X148558401Y-73259953D01*
X148639148Y-73247165D01*
X148752045Y-73189641D01*
X148841641Y-73100045D01*
X148899165Y-72987148D01*
X148911953Y-72906400D01*
X149593025Y-73587472D01*
X149644136Y-73514478D01*
X149740264Y-73308331D01*
X149740269Y-73308317D01*
X149799139Y-73088610D01*
X149799141Y-73088599D01*
X149818966Y-72862002D01*
X149818966Y-72861997D01*
X149799141Y-72635400D01*
X149799139Y-72635389D01*
X149740269Y-72415682D01*
X149740265Y-72415673D01*
X149644133Y-72209516D01*
X149644131Y-72209512D01*
X149593026Y-72136526D01*
X149593025Y-72136526D01*
X148911953Y-72817598D01*
X148899165Y-72736852D01*
X148841641Y-72623955D01*
X148752045Y-72534359D01*
X148639148Y-72476835D01*
X148558400Y-72464046D01*
X149239472Y-71782974D01*
X149239471Y-71782973D01*
X149166483Y-71731866D01*
X149166481Y-71731865D01*
X149084079Y-71693440D01*
X149031640Y-71647267D01*
X149012488Y-71580073D01*
X149032704Y-71513192D01*
X149037218Y-71506746D01*
X149095352Y-71429089D01*
X149095354Y-71429086D01*
X149145596Y-71294379D01*
X149145598Y-71294372D01*
X149151999Y-71234844D01*
X149152000Y-71234827D01*
X149152000Y-70537000D01*
X148127278Y-70537000D01*
X148175625Y-70453260D01*
X148205810Y-70321008D01*
X148195673Y-70185735D01*
X148146113Y-70059459D01*
X148128203Y-70037000D01*
X149152000Y-70037000D01*
X149152000Y-69339172D01*
X149151999Y-69339155D01*
X149145598Y-69279627D01*
X149145596Y-69279620D01*
X149095354Y-69144913D01*
X149095352Y-69144910D01*
X149015687Y-69038492D01*
X148991269Y-68973027D01*
X149006120Y-68904754D01*
X149017998Y-68886878D01*
X149160959Y-68707612D01*
X149288393Y-68486888D01*
X149381508Y-68249637D01*
X149438222Y-68001157D01*
X149457268Y-67747000D01*
X149456893Y-67742000D01*
X149438222Y-67492845D01*
X149437080Y-67487843D01*
X149381508Y-67244363D01*
X149288393Y-67007112D01*
X149199168Y-66852568D01*
X149182695Y-66784667D01*
X149205548Y-66718641D01*
X149218868Y-66702893D01*
X150498944Y-65422819D01*
X150560267Y-65389334D01*
X150586625Y-65386500D01*
X150863459Y-65386500D01*
X150930498Y-65406185D01*
X150943983Y-65416204D01*
X151024341Y-65484836D01*
X151024343Y-65484837D01*
X151024344Y-65484838D01*
X151024346Y-65484839D01*
X151239140Y-65616466D01*
X151411748Y-65687962D01*
X151471889Y-65712873D01*
X151716852Y-65771683D01*
X151968000Y-65791449D01*
X152219148Y-65771683D01*
X152282406Y-65756496D01*
X152352188Y-65759987D01*
X152409006Y-65800651D01*
X152434819Y-65865577D01*
X152428926Y-65916474D01*
X152420381Y-65941969D01*
X152420380Y-65941973D01*
X152417119Y-65965344D01*
X152415346Y-65973750D01*
X152408885Y-65996458D01*
X152408885Y-65996462D01*
X152401310Y-66078204D01*
X152400980Y-66081048D01*
X152389644Y-66162314D01*
X152393434Y-66244300D01*
X152393500Y-66247163D01*
X152393500Y-66487046D01*
X152373815Y-66554085D01*
X152353845Y-66577941D01*
X152343955Y-66587117D01*
X152343949Y-66587123D01*
X152185041Y-66786388D01*
X152057608Y-67007109D01*
X151964492Y-67244362D01*
X151964490Y-67244369D01*
X151907777Y-67492845D01*
X151888732Y-67746995D01*
X151888732Y-67747004D01*
X151907777Y-68001154D01*
X151963350Y-68244637D01*
X151964492Y-68249637D01*
X152057607Y-68486888D01*
X152185041Y-68707612D01*
X152327993Y-68886867D01*
X152354401Y-68951554D01*
X152341646Y-69020249D01*
X152330313Y-69038491D01*
X152250647Y-69144911D01*
X152250645Y-69144913D01*
X152200403Y-69279620D01*
X152200401Y-69279627D01*
X152194000Y-69339155D01*
X152194000Y-70037000D01*
X153218722Y-70037000D01*
X153170375Y-70120740D01*
X153140190Y-70252992D01*
X153150327Y-70388265D01*
X153199887Y-70514541D01*
X153217797Y-70537000D01*
X152194000Y-70537000D01*
X152194000Y-71234844D01*
X152200401Y-71294372D01*
X152200403Y-71294379D01*
X152250645Y-71429086D01*
X152250649Y-71429093D01*
X152336809Y-71544187D01*
X152336812Y-71544190D01*
X152451906Y-71630350D01*
X152451913Y-71630354D01*
X152586620Y-71680596D01*
X152586627Y-71680598D01*
X152646155Y-71686999D01*
X152646172Y-71687000D01*
X153344000Y-71687000D01*
X153344000Y-70661189D01*
X153396547Y-70697016D01*
X153526173Y-70737000D01*
X153627724Y-70737000D01*
X153728138Y-70721865D01*
X153844000Y-70666068D01*
X153844000Y-71687000D01*
X154541828Y-71687000D01*
X154541844Y-71686999D01*
X154601372Y-71680598D01*
X154601379Y-71680596D01*
X154736086Y-71630354D01*
X154736093Y-71630350D01*
X154851187Y-71544190D01*
X154851190Y-71544187D01*
X154937350Y-71429093D01*
X154937354Y-71429086D01*
X154987596Y-71294379D01*
X154987598Y-71294372D01*
X154993999Y-71234844D01*
X154994000Y-71234827D01*
X154994000Y-70537000D01*
X153969278Y-70537000D01*
X154017625Y-70453260D01*
X154047810Y-70321008D01*
X154037673Y-70185735D01*
X153988113Y-70059459D01*
X153970203Y-70037000D01*
X154994000Y-70037000D01*
X154994000Y-69339172D01*
X154993999Y-69339155D01*
X154987598Y-69279627D01*
X154987596Y-69279620D01*
X154937354Y-69144913D01*
X154937352Y-69144910D01*
X154857687Y-69038492D01*
X154833269Y-68973027D01*
X154848120Y-68904754D01*
X154859998Y-68886878D01*
X155002959Y-68707612D01*
X155130393Y-68486888D01*
X155223508Y-68249637D01*
X155280222Y-68001157D01*
X155299268Y-67747000D01*
X155298893Y-67742004D01*
X157984732Y-67742004D01*
X158003777Y-67996154D01*
X158004918Y-68001154D01*
X158060492Y-68244637D01*
X158153607Y-68481888D01*
X158281041Y-68702612D01*
X158423993Y-68881867D01*
X158450401Y-68946554D01*
X158437646Y-69015249D01*
X158426313Y-69033491D01*
X158346647Y-69139911D01*
X158346645Y-69139913D01*
X158296403Y-69274620D01*
X158296401Y-69274627D01*
X158290000Y-69334155D01*
X158290000Y-70032000D01*
X159314722Y-70032000D01*
X159266375Y-70115740D01*
X159236190Y-70247992D01*
X159246327Y-70383265D01*
X159295887Y-70509541D01*
X159313797Y-70532000D01*
X158290000Y-70532000D01*
X158290000Y-71229844D01*
X158296401Y-71289372D01*
X158296403Y-71289379D01*
X158346645Y-71424086D01*
X158346649Y-71424093D01*
X158432809Y-71539187D01*
X158432812Y-71539190D01*
X158547906Y-71625350D01*
X158547913Y-71625354D01*
X158682620Y-71675596D01*
X158682627Y-71675598D01*
X158742155Y-71681999D01*
X158742172Y-71682000D01*
X159440000Y-71682000D01*
X159440000Y-70656189D01*
X159492547Y-70692016D01*
X159622173Y-70732000D01*
X159723724Y-70732000D01*
X159824138Y-70716865D01*
X159940000Y-70661068D01*
X159940000Y-71682000D01*
X160637828Y-71682000D01*
X160637844Y-71681999D01*
X160697372Y-71675598D01*
X160697379Y-71675596D01*
X160832086Y-71625354D01*
X160832093Y-71625350D01*
X160947187Y-71539190D01*
X160947190Y-71539187D01*
X161033350Y-71424093D01*
X161033354Y-71424086D01*
X161083596Y-71289379D01*
X161083598Y-71289372D01*
X161089999Y-71229844D01*
X161090000Y-71229827D01*
X161090000Y-70532000D01*
X160065278Y-70532000D01*
X160113625Y-70448260D01*
X160143810Y-70316008D01*
X160133673Y-70180735D01*
X160084113Y-70054459D01*
X160066203Y-70032000D01*
X161090000Y-70032000D01*
X161090000Y-69334172D01*
X161089999Y-69334155D01*
X161083598Y-69274627D01*
X161083596Y-69274620D01*
X161033354Y-69139913D01*
X161033352Y-69139910D01*
X160953687Y-69033492D01*
X160929269Y-68968027D01*
X160944120Y-68899754D01*
X160955998Y-68881878D01*
X161098959Y-68702612D01*
X161226393Y-68481888D01*
X161319508Y-68244637D01*
X161376222Y-67996157D01*
X161394893Y-67747004D01*
X161395268Y-67742004D01*
X161395268Y-67741995D01*
X161376222Y-67487845D01*
X161375118Y-67483009D01*
X161319508Y-67239363D01*
X161226393Y-67002112D01*
X161098959Y-66781388D01*
X160940050Y-66582123D01*
X160940044Y-66582117D01*
X160939281Y-66581295D01*
X160939100Y-66580933D01*
X160937157Y-66578496D01*
X160937678Y-66578080D01*
X160908109Y-66518765D01*
X160915692Y-66449308D01*
X160942492Y-66409270D01*
X161535853Y-65815908D01*
X161597174Y-65782425D01*
X161613801Y-65779973D01*
X161719148Y-65771683D01*
X161964111Y-65712873D01*
X162196859Y-65616466D01*
X162411659Y-65484836D01*
X162603224Y-65321224D01*
X162766836Y-65129659D01*
X162898466Y-64914859D01*
X162994873Y-64682111D01*
X163053683Y-64437148D01*
X163073449Y-64186000D01*
X163053683Y-63934852D01*
X162994873Y-63689889D01*
X162912485Y-63490985D01*
X162898466Y-63457140D01*
X162766839Y-63242346D01*
X162766838Y-63242343D01*
X162708134Y-63173610D01*
X162603224Y-63050776D01*
X162451264Y-62920990D01*
X162411656Y-62887161D01*
X162411653Y-62887160D01*
X162196859Y-62755533D01*
X161964110Y-62659126D01*
X161719151Y-62600317D01*
X161468000Y-62580551D01*
X161216848Y-62600317D01*
X160971889Y-62659126D01*
X160739140Y-62755533D01*
X160524346Y-62887160D01*
X160524343Y-62887161D01*
X160332776Y-63050776D01*
X160169161Y-63242343D01*
X160169160Y-63242346D01*
X160037533Y-63457140D01*
X159941126Y-63689889D01*
X159891592Y-63896219D01*
X159882317Y-63934852D01*
X159879859Y-63966087D01*
X159874026Y-64040195D01*
X159849141Y-64105483D01*
X159838089Y-64118146D01*
X158861744Y-65094492D01*
X158859673Y-65096469D01*
X158799022Y-65151760D01*
X158749564Y-65217251D01*
X158747787Y-65219495D01*
X158695350Y-65282644D01*
X158695344Y-65282652D01*
X158683860Y-65303271D01*
X158679172Y-65310465D01*
X158671575Y-65320525D01*
X158664943Y-65329309D01*
X158628350Y-65402793D01*
X158627015Y-65405325D01*
X158587083Y-65477017D01*
X158579582Y-65499399D01*
X158576294Y-65507337D01*
X158565773Y-65528466D01*
X158565771Y-65528473D01*
X158543306Y-65607425D01*
X158542459Y-65610160D01*
X158516382Y-65687962D01*
X158516380Y-65687973D01*
X158513119Y-65711344D01*
X158511346Y-65719750D01*
X158504885Y-65742458D01*
X158504885Y-65742462D01*
X158497310Y-65824204D01*
X158496980Y-65827048D01*
X158485644Y-65908314D01*
X158485644Y-65908317D01*
X158485644Y-65908319D01*
X158486021Y-65916474D01*
X158489434Y-65990300D01*
X158489500Y-65993163D01*
X158489500Y-66482046D01*
X158469815Y-66549085D01*
X158449845Y-66572941D01*
X158439955Y-66582117D01*
X158439949Y-66582123D01*
X158281041Y-66781388D01*
X158153608Y-67002109D01*
X158060492Y-67239362D01*
X158060490Y-67239369D01*
X158003777Y-67487845D01*
X157984732Y-67741995D01*
X157984732Y-67742004D01*
X155298893Y-67742004D01*
X155298893Y-67742000D01*
X155280222Y-67492845D01*
X155279080Y-67487843D01*
X155223508Y-67244363D01*
X155130393Y-67007112D01*
X155002959Y-66786388D01*
X154948007Y-66717480D01*
X154921599Y-66652796D01*
X154934354Y-66584101D01*
X154957270Y-66552491D01*
X155862783Y-65646978D01*
X155924104Y-65613495D01*
X155993796Y-65618479D01*
X155997900Y-65620094D01*
X156221889Y-65712873D01*
X156466852Y-65771683D01*
X156718000Y-65791449D01*
X156969148Y-65771683D01*
X157214111Y-65712873D01*
X157446859Y-65616466D01*
X157661659Y-65484836D01*
X157853224Y-65321224D01*
X158016836Y-65129659D01*
X158148466Y-64914859D01*
X158244873Y-64682111D01*
X158303683Y-64437148D01*
X158323449Y-64186000D01*
X158303683Y-63934852D01*
X158244873Y-63689889D01*
X158162485Y-63490985D01*
X158148466Y-63457140D01*
X158016839Y-63242346D01*
X158016838Y-63242343D01*
X157958134Y-63173610D01*
X157853224Y-63050776D01*
X157701264Y-62920990D01*
X157661656Y-62887161D01*
X157661653Y-62887160D01*
X157446859Y-62755533D01*
X157214110Y-62659126D01*
X156969151Y-62600317D01*
X156718000Y-62580551D01*
X156466848Y-62600317D01*
X156221889Y-62659126D01*
X155989140Y-62755533D01*
X155774346Y-62887160D01*
X155774344Y-62887161D01*
X155696204Y-62953899D01*
X155632443Y-62982469D01*
X155609949Y-62983476D01*
X155591458Y-62982621D01*
X155570319Y-62981644D01*
X155570318Y-62981644D01*
X155570315Y-62981644D01*
X155570314Y-62981644D01*
X155489048Y-62992980D01*
X155486204Y-62993310D01*
X155404462Y-63000885D01*
X155404458Y-63000885D01*
X155381750Y-63007346D01*
X155373344Y-63009119D01*
X155349973Y-63012380D01*
X155349962Y-63012382D01*
X155272160Y-63038459D01*
X155269425Y-63039306D01*
X155233842Y-63049430D01*
X155190472Y-63061771D01*
X155190470Y-63061771D01*
X155190466Y-63061773D01*
X155169337Y-63072294D01*
X155161399Y-63075582D01*
X155139017Y-63083083D01*
X155067325Y-63123015D01*
X155064793Y-63124350D01*
X154991309Y-63160943D01*
X154982525Y-63167575D01*
X154972465Y-63175172D01*
X154965274Y-63179857D01*
X154961019Y-63182228D01*
X154944652Y-63191344D01*
X154944644Y-63191350D01*
X154881495Y-63243787D01*
X154879251Y-63245564D01*
X154813760Y-63295022D01*
X154758469Y-63355673D01*
X154756492Y-63357744D01*
X153780811Y-64333424D01*
X153719488Y-64366909D01*
X153649796Y-64361925D01*
X153593863Y-64320053D01*
X153569446Y-64254589D01*
X153569511Y-64236024D01*
X153573449Y-64186000D01*
X153553683Y-63934852D01*
X153494873Y-63689889D01*
X153412485Y-63490985D01*
X153398466Y-63457140D01*
X153266839Y-63242346D01*
X153266838Y-63242343D01*
X153208134Y-63173610D01*
X153103224Y-63050776D01*
X152951264Y-62920990D01*
X152911656Y-62887161D01*
X152911653Y-62887160D01*
X152696859Y-62755533D01*
X152464110Y-62659126D01*
X152219151Y-62600317D01*
X151968000Y-62580551D01*
X151716848Y-62600317D01*
X151471889Y-62659126D01*
X151239140Y-62755533D01*
X151024346Y-62887160D01*
X151024344Y-62887161D01*
X150996328Y-62911088D01*
X150943988Y-62955790D01*
X150880229Y-62984361D01*
X150863459Y-62985500D01*
X150067163Y-62985500D01*
X150064300Y-62985434D01*
X150030118Y-62983853D01*
X149982319Y-62981644D01*
X149982317Y-62981644D01*
X149982314Y-62981644D01*
X149901048Y-62992980D01*
X149898204Y-62993310D01*
X149816462Y-63000885D01*
X149816458Y-63000885D01*
X149793750Y-63007346D01*
X149785344Y-63009119D01*
X149761973Y-63012380D01*
X149761962Y-63012382D01*
X149684160Y-63038459D01*
X149681425Y-63039306D01*
X149645842Y-63049430D01*
X149602472Y-63061771D01*
X149602470Y-63061771D01*
X149602466Y-63061773D01*
X149581337Y-63072294D01*
X149573399Y-63075582D01*
X149551017Y-63083083D01*
X149479325Y-63123015D01*
X149476793Y-63124350D01*
X149403309Y-63160943D01*
X149394525Y-63167575D01*
X149384465Y-63175172D01*
X149377274Y-63179857D01*
X149373019Y-63182228D01*
X149356652Y-63191344D01*
X149356644Y-63191350D01*
X149293495Y-63243787D01*
X149291251Y-63245564D01*
X149225760Y-63295022D01*
X149170469Y-63355673D01*
X149168492Y-63357744D01*
X146923744Y-65602492D01*
X146921673Y-65604469D01*
X146861022Y-65659760D01*
X146811564Y-65725251D01*
X146809787Y-65727495D01*
X146757350Y-65790644D01*
X146757344Y-65790652D01*
X146745860Y-65811271D01*
X146741172Y-65818465D01*
X146735762Y-65825631D01*
X146726943Y-65837309D01*
X146690350Y-65910793D01*
X146689015Y-65913325D01*
X146649083Y-65985017D01*
X146641582Y-66007399D01*
X146638294Y-66015337D01*
X146627773Y-66036466D01*
X146627771Y-66036473D01*
X146605306Y-66115425D01*
X146604459Y-66118160D01*
X146578382Y-66195962D01*
X146578380Y-66195973D01*
X146575119Y-66219344D01*
X146573346Y-66227750D01*
X146566885Y-66250458D01*
X146566885Y-66250462D01*
X146559310Y-66332204D01*
X146558980Y-66335048D01*
X146547644Y-66416314D01*
X146547644Y-66416316D01*
X146550678Y-66481962D01*
X146534109Y-66549839D01*
X146511156Y-66578580D01*
X146501956Y-66587116D01*
X146501949Y-66587123D01*
X146343041Y-66786388D01*
X146215608Y-67007109D01*
X146122492Y-67244362D01*
X146122490Y-67244369D01*
X146065777Y-67492845D01*
X146046732Y-67746995D01*
X146046732Y-67747004D01*
X144327210Y-67747004D01*
X144327604Y-67742000D01*
X144307221Y-67483006D01*
X144246573Y-67230390D01*
X144147154Y-66990372D01*
X144011412Y-66768860D01*
X143842689Y-66571311D01*
X143836806Y-66566287D01*
X143798617Y-66507781D01*
X143798119Y-66437913D01*
X143835474Y-66378868D01*
X143836756Y-66377756D01*
X143842689Y-66372689D01*
X143842692Y-66372685D01*
X143846316Y-66369590D01*
X143892915Y-66344612D01*
X143957528Y-66326229D01*
X143958095Y-66325946D01*
X143978658Y-66315707D01*
X143986601Y-66312416D01*
X144008985Y-66304915D01*
X144080705Y-66264965D01*
X144083209Y-66263646D01*
X144156689Y-66227058D01*
X144175539Y-66212822D01*
X144182710Y-66208149D01*
X144203353Y-66196652D01*
X144266529Y-66144189D01*
X144268722Y-66142452D01*
X144334236Y-66092981D01*
X144389550Y-66032303D01*
X144391497Y-66030264D01*
X146548264Y-63873497D01*
X146550303Y-63871550D01*
X146610981Y-63816236D01*
X146660446Y-63750731D01*
X146662187Y-63748533D01*
X146714652Y-63685354D01*
X146726146Y-63664715D01*
X146730828Y-63657530D01*
X146745058Y-63638689D01*
X146781657Y-63565186D01*
X146782955Y-63562724D01*
X146822914Y-63490985D01*
X146830420Y-63468587D01*
X146833698Y-63460675D01*
X146844229Y-63439528D01*
X146866697Y-63360556D01*
X146867541Y-63357833D01*
X146867911Y-63356731D01*
X146893618Y-63280033D01*
X146896879Y-63256644D01*
X146898648Y-63248259D01*
X146905115Y-63225536D01*
X146912692Y-63143758D01*
X146913011Y-63141002D01*
X146924356Y-63059681D01*
X146921205Y-62991528D01*
X146920566Y-62977698D01*
X146920500Y-62974835D01*
X146920500Y-52278995D01*
X146940185Y-52211956D01*
X146992989Y-52166201D01*
X147062147Y-52156257D01*
X147125703Y-52185282D01*
X147153243Y-52222562D01*
X147154295Y-52221977D01*
X147197024Y-52298690D01*
X147198360Y-52301224D01*
X147234937Y-52374679D01*
X147234944Y-52374692D01*
X147249170Y-52393531D01*
X147253856Y-52400723D01*
X147265348Y-52421353D01*
X147284670Y-52444621D01*
X147317782Y-52484496D01*
X147319560Y-52486742D01*
X147369016Y-52552233D01*
X147369018Y-52552236D01*
X147429673Y-52607530D01*
X147431745Y-52609508D01*
X149676490Y-54854253D01*
X149678468Y-54856324D01*
X149733761Y-54916979D01*
X149733764Y-54916981D01*
X149799250Y-54966433D01*
X149799256Y-54966437D01*
X149801494Y-54968210D01*
X149864647Y-55020652D01*
X149885272Y-55032140D01*
X149892471Y-55036831D01*
X149911309Y-55051057D01*
X149911310Y-55051057D01*
X149911311Y-55051058D01*
X149984796Y-55087649D01*
X149987275Y-55088955D01*
X150059013Y-55128914D01*
X150059011Y-55128914D01*
X150067155Y-55131643D01*
X150081408Y-55136420D01*
X150089339Y-55139705D01*
X150110472Y-55150229D01*
X150189454Y-55172701D01*
X150192143Y-55173534D01*
X150269967Y-55199618D01*
X150269973Y-55199618D01*
X150269974Y-55199619D01*
X150293334Y-55202877D01*
X150301749Y-55204652D01*
X150308450Y-55206558D01*
X150324464Y-55211115D01*
X150406235Y-55218691D01*
X150409001Y-55219012D01*
X150490319Y-55230356D01*
X150566298Y-55226843D01*
X150572300Y-55226566D01*
X150575163Y-55226500D01*
X150863459Y-55226500D01*
X150930498Y-55246185D01*
X150943983Y-55256204D01*
X151024341Y-55324836D01*
X151024343Y-55324837D01*
X151024344Y-55324838D01*
X151024346Y-55324839D01*
X151239140Y-55456466D01*
X151307864Y-55484932D01*
X151471889Y-55552873D01*
X151716852Y-55611683D01*
X151968000Y-55631449D01*
X152219148Y-55611683D01*
X152464111Y-55552873D01*
X152696859Y-55456466D01*
X152911659Y-55324836D01*
X153103224Y-55161224D01*
X153266836Y-54969659D01*
X153398466Y-54754859D01*
X153494873Y-54522111D01*
X153513148Y-54445986D01*
X153547938Y-54385395D01*
X153609963Y-54353230D01*
X153679532Y-54359705D01*
X153721403Y-54387252D01*
X154188404Y-54854253D01*
X154190382Y-54856324D01*
X154245676Y-54916980D01*
X154311163Y-54966433D01*
X154313408Y-54968212D01*
X154376560Y-55020653D01*
X154397186Y-55032141D01*
X154404391Y-55036835D01*
X154423223Y-55051057D01*
X154423234Y-55051063D01*
X154455598Y-55067178D01*
X154496688Y-55087638D01*
X154499175Y-55088948D01*
X154570929Y-55128915D01*
X154570933Y-55128916D01*
X154570934Y-55128917D01*
X154578822Y-55131560D01*
X154593322Y-55136420D01*
X154601253Y-55139705D01*
X154622386Y-55150229D01*
X154701360Y-55172699D01*
X154704049Y-55173532D01*
X154781882Y-55199619D01*
X154805276Y-55202882D01*
X154813663Y-55204652D01*
X154836378Y-55211115D01*
X154918142Y-55218690D01*
X154920908Y-55219011D01*
X155002233Y-55230356D01*
X155079559Y-55226781D01*
X155084222Y-55226566D01*
X155087085Y-55226500D01*
X155613459Y-55226500D01*
X155680498Y-55246185D01*
X155693983Y-55256204D01*
X155774341Y-55324836D01*
X155774343Y-55324837D01*
X155774344Y-55324838D01*
X155774346Y-55324839D01*
X155989140Y-55456466D01*
X156057864Y-55484932D01*
X156221889Y-55552873D01*
X156466852Y-55611683D01*
X156718000Y-55631449D01*
X156969148Y-55611683D01*
X157214111Y-55552873D01*
X157446859Y-55456466D01*
X157661659Y-55324836D01*
X157853224Y-55161224D01*
X158016836Y-54969659D01*
X158148466Y-54754859D01*
X158165391Y-54714000D01*
X158245167Y-54521401D01*
X158289008Y-54466997D01*
X158355302Y-54444932D01*
X158423001Y-54462211D01*
X158447409Y-54481172D01*
X158820490Y-54854253D01*
X158822468Y-54856324D01*
X158877763Y-54916981D01*
X158899438Y-54933348D01*
X158943278Y-54966454D01*
X158945470Y-54968191D01*
X159008646Y-55020652D01*
X159008648Y-55020653D01*
X159008649Y-55020654D01*
X159018707Y-55026255D01*
X159029272Y-55032140D01*
X159036465Y-55036826D01*
X159055311Y-55051058D01*
X159128795Y-55087649D01*
X159131307Y-55088974D01*
X159156722Y-55103129D01*
X159203015Y-55128914D01*
X159203018Y-55128915D01*
X159203020Y-55128916D01*
X159210920Y-55131563D01*
X159225402Y-55136417D01*
X159233328Y-55139700D01*
X159254472Y-55150229D01*
X159254474Y-55150229D01*
X159254475Y-55150230D01*
X159333427Y-55172693D01*
X159336164Y-55173541D01*
X159383853Y-55189524D01*
X159413967Y-55199618D01*
X159413973Y-55199618D01*
X159413974Y-55199619D01*
X159437334Y-55202877D01*
X159445749Y-55204652D01*
X159452450Y-55206558D01*
X159468464Y-55211115D01*
X159550235Y-55218691D01*
X159553001Y-55219012D01*
X159634319Y-55230356D01*
X159710298Y-55226843D01*
X159716300Y-55226566D01*
X159719163Y-55226500D01*
X160363459Y-55226500D01*
X160430498Y-55246185D01*
X160443983Y-55256204D01*
X160524341Y-55324836D01*
X160524343Y-55324837D01*
X160524344Y-55324838D01*
X160524346Y-55324839D01*
X160739140Y-55456466D01*
X160807864Y-55484932D01*
X160971889Y-55552873D01*
X161216852Y-55611683D01*
X161468000Y-55631449D01*
X161719148Y-55611683D01*
X161964111Y-55552873D01*
X162196859Y-55456466D01*
X162411659Y-55324836D01*
X162603224Y-55161224D01*
X162766836Y-54969659D01*
X162898466Y-54754859D01*
X162994873Y-54522111D01*
X163053683Y-54277148D01*
X163073449Y-54026000D01*
X163053683Y-53774852D01*
X162994873Y-53529889D01*
X162949931Y-53421389D01*
X162898466Y-53297140D01*
X162766839Y-53082346D01*
X162766838Y-53082343D01*
X162668696Y-52967434D01*
X162603224Y-52890776D01*
X162454490Y-52763745D01*
X162411656Y-52727161D01*
X162411653Y-52727160D01*
X162196859Y-52595533D01*
X161964110Y-52499126D01*
X161719151Y-52440317D01*
X161468000Y-52420551D01*
X161216848Y-52440317D01*
X160971889Y-52499126D01*
X160739140Y-52595533D01*
X160524346Y-52727160D01*
X160524344Y-52727161D01*
X160496328Y-52751088D01*
X160443988Y-52795790D01*
X160380229Y-52824361D01*
X160363459Y-52825500D01*
X160238625Y-52825500D01*
X160171586Y-52805815D01*
X160150944Y-52789181D01*
X158422346Y-51060583D01*
X158388861Y-50999260D01*
X158393845Y-50929568D01*
X158435717Y-50873635D01*
X158500297Y-50849284D01*
X158678994Y-50835221D01*
X158931610Y-50774573D01*
X159171628Y-50675154D01*
X159393140Y-50539412D01*
X159590689Y-50370689D01*
X159595710Y-50364809D01*
X159654213Y-50326617D01*
X159724081Y-50326116D01*
X159783128Y-50363468D01*
X159784197Y-50364702D01*
X159789311Y-50370689D01*
X159986860Y-50539412D01*
X160208372Y-50675154D01*
X160208374Y-50675154D01*
X160208376Y-50675156D01*
X160238984Y-50687834D01*
X160448390Y-50774573D01*
X160701006Y-50835221D01*
X160960000Y-50855604D01*
X161218994Y-50835221D01*
X161471610Y-50774573D01*
X161711628Y-50675154D01*
X161933140Y-50539412D01*
X162130689Y-50370689D01*
X162135710Y-50364809D01*
X162194213Y-50326617D01*
X162264081Y-50326116D01*
X162323128Y-50363468D01*
X162324197Y-50364702D01*
X162329311Y-50370689D01*
X162526860Y-50539412D01*
X162748372Y-50675154D01*
X162748374Y-50675154D01*
X162748376Y-50675156D01*
X162778984Y-50687834D01*
X162988390Y-50774573D01*
X163241006Y-50835221D01*
X163500000Y-50855604D01*
X163758994Y-50835221D01*
X164011610Y-50774573D01*
X164251628Y-50675154D01*
X164473140Y-50539412D01*
X164670689Y-50370689D01*
X164839412Y-50173140D01*
X164975154Y-49951628D01*
X165074573Y-49711610D01*
X165135221Y-49458994D01*
X165155604Y-49200000D01*
X165135221Y-48941006D01*
X165074573Y-48688390D01*
X165067735Y-48671883D01*
X165060267Y-48602416D01*
X165091542Y-48539936D01*
X165151631Y-48504284D01*
X165221456Y-48506778D01*
X165269978Y-48536751D01*
X165928181Y-49194954D01*
X165961666Y-49256277D01*
X165964500Y-49282635D01*
X165964500Y-59315019D01*
X165961963Y-59334292D01*
X165964264Y-59360591D01*
X165964500Y-59365997D01*
X165964500Y-59373315D01*
X165965769Y-59380516D01*
X165966474Y-59385873D01*
X165967181Y-59393955D01*
X165971651Y-59403541D01*
X165978451Y-59411644D01*
X165978452Y-59411645D01*
X165979500Y-59412250D01*
X166005185Y-59431958D01*
X168468181Y-61894954D01*
X168501666Y-61956277D01*
X168504500Y-61982635D01*
X168504500Y-96107363D01*
X168484815Y-96174402D01*
X168468181Y-96195044D01*
X166018418Y-98644806D01*
X166003002Y-98656636D01*
X165986024Y-98676868D01*
X165982374Y-98680851D01*
X165977197Y-98686027D01*
X165972997Y-98692026D01*
X165969710Y-98696309D01*
X165964501Y-98702517D01*
X165960881Y-98712463D01*
X165959960Y-98722998D01*
X165960274Y-98724169D01*
X165964500Y-98756265D01*
X165964500Y-99234951D01*
X165964201Y-99241033D01*
X165952505Y-99359778D01*
X165947763Y-99383618D01*
X165917832Y-99482290D01*
X165915789Y-99489024D01*
X165906486Y-99511482D01*
X165854561Y-99608627D01*
X165841056Y-99628839D01*
X165771176Y-99713988D01*
X165753988Y-99731176D01*
X165668839Y-99801056D01*
X165648627Y-99814561D01*
X165551482Y-99866486D01*
X165529028Y-99875787D01*
X165487028Y-99888528D01*
X165423618Y-99907763D01*
X165399778Y-99912505D01*
X165281033Y-99924201D01*
X165274951Y-99924500D01*
X138681625Y-99924500D01*
X138614586Y-99904815D01*
X138568831Y-99852011D01*
X138558887Y-99782853D01*
X138587912Y-99719297D01*
X138593934Y-99712827D01*
X138928264Y-99378497D01*
X138930303Y-99376550D01*
X138990981Y-99321236D01*
X139040452Y-99255722D01*
X139042189Y-99253529D01*
X139094652Y-99190353D01*
X139106149Y-99169710D01*
X139110822Y-99162539D01*
X139125058Y-99143689D01*
X139161648Y-99070205D01*
X139162965Y-99067705D01*
X139202915Y-98995985D01*
X139210416Y-98973601D01*
X139213707Y-98965658D01*
X139224227Y-98944532D01*
X139224226Y-98944532D01*
X139224229Y-98944528D01*
X139246705Y-98865530D01*
X139247525Y-98862880D01*
X139273618Y-98785033D01*
X139276879Y-98761644D01*
X139278648Y-98753259D01*
X139285115Y-98730536D01*
X139292690Y-98648781D01*
X139293018Y-98645954D01*
X139294919Y-98632326D01*
X139323438Y-98568925D01*
X139439412Y-98433140D01*
X139457740Y-98403230D01*
X139509550Y-98356355D01*
X139578479Y-98344931D01*
X139642643Y-98372587D01*
X139651149Y-98380337D01*
X139768921Y-98498108D01*
X139962421Y-98633600D01*
X140176507Y-98733429D01*
X140176516Y-98733433D01*
X140390000Y-98790634D01*
X140390000Y-97895501D01*
X140497685Y-97944680D01*
X140604237Y-97960000D01*
X140675763Y-97960000D01*
X140782315Y-97944680D01*
X140890000Y-97895501D01*
X140890000Y-98790633D01*
X141103483Y-98733433D01*
X141103492Y-98733429D01*
X141317578Y-98633600D01*
X141511082Y-98498105D01*
X141678105Y-98331082D01*
X141808425Y-98144968D01*
X141863002Y-98101344D01*
X141932501Y-98094151D01*
X141994855Y-98125673D01*
X142011575Y-98144968D01*
X142141894Y-98331082D01*
X142308917Y-98498105D01*
X142502421Y-98633600D01*
X142716507Y-98733429D01*
X142716516Y-98733433D01*
X142930000Y-98790634D01*
X142930000Y-97895501D01*
X143037685Y-97944680D01*
X143144237Y-97960000D01*
X143215763Y-97960000D01*
X143322315Y-97944680D01*
X143430000Y-97895501D01*
X143430000Y-98790633D01*
X143643483Y-98733433D01*
X143643492Y-98733429D01*
X143857578Y-98633600D01*
X144051082Y-98498105D01*
X144168850Y-98380338D01*
X144230173Y-98346853D01*
X144299865Y-98351837D01*
X144355798Y-98393709D01*
X144362258Y-98403229D01*
X144380584Y-98433135D01*
X144380585Y-98433137D01*
X144428510Y-98489249D01*
X144549311Y-98630689D01*
X144746860Y-98799412D01*
X144968372Y-98935154D01*
X144968374Y-98935154D01*
X144968376Y-98935156D01*
X144991012Y-98944532D01*
X145208390Y-99034573D01*
X145461006Y-99095221D01*
X145720000Y-99115604D01*
X145978994Y-99095221D01*
X146231610Y-99034573D01*
X146471628Y-98935154D01*
X146693140Y-98799412D01*
X146890689Y-98630689D01*
X147059412Y-98433140D01*
X147195154Y-98211628D01*
X147294573Y-97971610D01*
X147355221Y-97718994D01*
X147375604Y-97460000D01*
X147355221Y-97201006D01*
X147294573Y-96948390D01*
X147222432Y-96774227D01*
X147195156Y-96708376D01*
X147174738Y-96675057D01*
X147059412Y-96486860D01*
X146890689Y-96289311D01*
X146693140Y-96120588D01*
X146471628Y-95984846D01*
X146471627Y-95984845D01*
X146471623Y-95984843D01*
X146305627Y-95916086D01*
X146231610Y-95885427D01*
X146231611Y-95885427D01*
X146093921Y-95852370D01*
X145978994Y-95824779D01*
X145978992Y-95824778D01*
X145978991Y-95824778D01*
X145720000Y-95804396D01*
X145461009Y-95824778D01*
X145208389Y-95885427D01*
X144968376Y-95984843D01*
X144746859Y-96120588D01*
X144549311Y-96289311D01*
X144380586Y-96486861D01*
X144362258Y-96516771D01*
X144310445Y-96563646D01*
X144241515Y-96575067D01*
X144177353Y-96547410D01*
X144168850Y-96539662D01*
X144051078Y-96421891D01*
X143857578Y-96286399D01*
X143643492Y-96186570D01*
X143643486Y-96186567D01*
X143430000Y-96129364D01*
X143430000Y-97024498D01*
X143322315Y-96975320D01*
X143215763Y-96960000D01*
X143144237Y-96960000D01*
X143037685Y-96975320D01*
X142930000Y-97024498D01*
X142930000Y-96129364D01*
X142929999Y-96129364D01*
X142716513Y-96186567D01*
X142716507Y-96186570D01*
X142502422Y-96286399D01*
X142502420Y-96286400D01*
X142308926Y-96421886D01*
X142308920Y-96421891D01*
X142141891Y-96588920D01*
X142141890Y-96588922D01*
X142011575Y-96775031D01*
X141956998Y-96818655D01*
X141887499Y-96825848D01*
X141825145Y-96794326D01*
X141808425Y-96775031D01*
X141678109Y-96588922D01*
X141678108Y-96588920D01*
X141511082Y-96421894D01*
X141317578Y-96286399D01*
X141103492Y-96186570D01*
X141103486Y-96186567D01*
X140890000Y-96129364D01*
X140890000Y-97024498D01*
X140782315Y-96975320D01*
X140675763Y-96960000D01*
X140604237Y-96960000D01*
X140497685Y-96975320D01*
X140390000Y-97024498D01*
X140390000Y-96129364D01*
X140389999Y-96129364D01*
X140176513Y-96186567D01*
X140176507Y-96186570D01*
X139962422Y-96286399D01*
X139962420Y-96286400D01*
X139768926Y-96421886D01*
X139651150Y-96539662D01*
X139589827Y-96573146D01*
X139520135Y-96568162D01*
X139464202Y-96526290D01*
X139457742Y-96516771D01*
X139439413Y-96486861D01*
X139391485Y-96430745D01*
X139270689Y-96289311D01*
X139073140Y-96120588D01*
X138851628Y-95984846D01*
X138851627Y-95984845D01*
X138851623Y-95984843D01*
X138685627Y-95916086D01*
X138611610Y-95885427D01*
X138611611Y-95885427D01*
X138473921Y-95852370D01*
X138358994Y-95824779D01*
X138358992Y-95824778D01*
X138358991Y-95824778D01*
X138100000Y-95804396D01*
X137841009Y-95824778D01*
X137588389Y-95885427D01*
X137348376Y-95984843D01*
X137126859Y-96120588D01*
X136929313Y-96289309D01*
X136929311Y-96289311D01*
X136924287Y-96295193D01*
X136865781Y-96333383D01*
X136795913Y-96333881D01*
X136736868Y-96296526D01*
X136735714Y-96295195D01*
X136730689Y-96289311D01*
X136533140Y-96120588D01*
X136311628Y-95984846D01*
X136311627Y-95984845D01*
X136311623Y-95984843D01*
X136145627Y-95916086D01*
X136071610Y-95885427D01*
X136071611Y-95885427D01*
X135933921Y-95852370D01*
X135818994Y-95824779D01*
X135818992Y-95824778D01*
X135818991Y-95824778D01*
X135560000Y-95804396D01*
X135301009Y-95824778D01*
X135048389Y-95885427D01*
X134808376Y-95984843D01*
X134586859Y-96120588D01*
X134389313Y-96289309D01*
X134389311Y-96289311D01*
X134384287Y-96295193D01*
X134325781Y-96333383D01*
X134255913Y-96333881D01*
X134196868Y-96296526D01*
X134195714Y-96295195D01*
X134190689Y-96289311D01*
X133993140Y-96120588D01*
X133771628Y-95984846D01*
X133771627Y-95984845D01*
X133771623Y-95984843D01*
X133605627Y-95916086D01*
X133531610Y-95885427D01*
X133531611Y-95885427D01*
X133393921Y-95852370D01*
X133278994Y-95824779D01*
X133278992Y-95824778D01*
X133278991Y-95824778D01*
X133020000Y-95804396D01*
X132761009Y-95824778D01*
X132508389Y-95885427D01*
X132268376Y-95984843D01*
X132046859Y-96120588D01*
X131849313Y-96289309D01*
X131849311Y-96289311D01*
X131844287Y-96295193D01*
X131785781Y-96333383D01*
X131715913Y-96333881D01*
X131656868Y-96296526D01*
X131655714Y-96295195D01*
X131650689Y-96289311D01*
X131453140Y-96120588D01*
X131231628Y-95984846D01*
X131231627Y-95984845D01*
X131231623Y-95984843D01*
X131065627Y-95916086D01*
X130991610Y-95885427D01*
X130991611Y-95885427D01*
X130853921Y-95852370D01*
X130738994Y-95824779D01*
X130738992Y-95824778D01*
X130738991Y-95824778D01*
X130480000Y-95804396D01*
X130221009Y-95824778D01*
X129968389Y-95885427D01*
X129728373Y-95984845D01*
X129544204Y-96097703D01*
X129476759Y-96115947D01*
X129410156Y-96094830D01*
X129391734Y-96079656D01*
X129292262Y-95980184D01*
X129139523Y-95884211D01*
X128969254Y-95824631D01*
X128969249Y-95824630D01*
X128834960Y-95809500D01*
X128834954Y-95809500D01*
X127045046Y-95809500D01*
X127045039Y-95809500D01*
X126910750Y-95824630D01*
X126910742Y-95824632D01*
X126768830Y-95874289D01*
X126699051Y-95877850D01*
X126638424Y-95843121D01*
X126606197Y-95781127D01*
X126612603Y-95711552D01*
X126640193Y-95669568D01*
X126990264Y-95319497D01*
X126992303Y-95317550D01*
X127052981Y-95262236D01*
X127102452Y-95196722D01*
X127104189Y-95194529D01*
X127156652Y-95131353D01*
X127168149Y-95110710D01*
X127172822Y-95103539D01*
X127187058Y-95084689D01*
X127223648Y-95011205D01*
X127224965Y-95008705D01*
X127264915Y-94936985D01*
X127265250Y-94935984D01*
X127265549Y-94935095D01*
X127266097Y-94934308D01*
X127267231Y-94931741D01*
X127267733Y-94931962D01*
X127305517Y-94877786D01*
X127370124Y-94851183D01*
X127383121Y-94850500D01*
X129180837Y-94850500D01*
X129183700Y-94850566D01*
X129194884Y-94851082D01*
X129265681Y-94854356D01*
X129347002Y-94843011D01*
X129349758Y-94842692D01*
X129431536Y-94835115D01*
X129454259Y-94828648D01*
X129462644Y-94826879D01*
X129486033Y-94823618D01*
X129563880Y-94797525D01*
X129566530Y-94796705D01*
X129645528Y-94774229D01*
X129646095Y-94773946D01*
X129666658Y-94763707D01*
X129674601Y-94760416D01*
X129696985Y-94752915D01*
X129768705Y-94712965D01*
X129771209Y-94711646D01*
X129844689Y-94675058D01*
X129863539Y-94660822D01*
X129870710Y-94656149D01*
X129891353Y-94644652D01*
X129954529Y-94592189D01*
X129956722Y-94590452D01*
X130022236Y-94540981D01*
X130077550Y-94480303D01*
X130079497Y-94478264D01*
X134242944Y-90314819D01*
X134304267Y-90281334D01*
X134330625Y-90278500D01*
X137757459Y-90278500D01*
X137824498Y-90298185D01*
X137837983Y-90308204D01*
X137918341Y-90376836D01*
X137918343Y-90376837D01*
X137918344Y-90376838D01*
X137918346Y-90376839D01*
X138133140Y-90508466D01*
X138306588Y-90580310D01*
X138365889Y-90604873D01*
X138610852Y-90663683D01*
X138862000Y-90683449D01*
X139113148Y-90663683D01*
X139358111Y-90604873D01*
X139590859Y-90508466D01*
X139805659Y-90376836D01*
X139997224Y-90213224D01*
X140160836Y-90021659D01*
X140292466Y-89806859D01*
X140388873Y-89574111D01*
X140447683Y-89329148D01*
X140467449Y-89078000D01*
X140447683Y-88826852D01*
X140388873Y-88581889D01*
X140360110Y-88512449D01*
X140292466Y-88349140D01*
X140160839Y-88134346D01*
X140160838Y-88134344D01*
X140160837Y-88134343D01*
X140160836Y-88134341D01*
X140092208Y-88053988D01*
X140063639Y-87990228D01*
X140062500Y-87973458D01*
X140062500Y-87329163D01*
X140062566Y-87326300D01*
X140064483Y-87284831D01*
X140066356Y-87244319D01*
X140055012Y-87163001D01*
X140054691Y-87160235D01*
X140047115Y-87078464D01*
X140040652Y-87055749D01*
X140038877Y-87047334D01*
X140035619Y-87023974D01*
X140035618Y-87023973D01*
X140035618Y-87023967D01*
X140009534Y-86946143D01*
X140008701Y-86943454D01*
X139986229Y-86864472D01*
X139975705Y-86843339D01*
X139972420Y-86835408D01*
X139964915Y-86813015D01*
X139964914Y-86813012D01*
X139924964Y-86741291D01*
X139923649Y-86738796D01*
X139887058Y-86665311D01*
X139887057Y-86665310D01*
X139887057Y-86665309D01*
X139872831Y-86646471D01*
X139868138Y-86639269D01*
X139856652Y-86618647D01*
X139804210Y-86555494D01*
X139802437Y-86553256D01*
X139781211Y-86525148D01*
X139752981Y-86487764D01*
X139752979Y-86487761D01*
X139692324Y-86432468D01*
X139690253Y-86430490D01*
X137445508Y-84185745D01*
X137443530Y-84183673D01*
X137388236Y-84123018D01*
X137388233Y-84123016D01*
X137322742Y-84073560D01*
X137320496Y-84071782D01*
X137305926Y-84059683D01*
X137257353Y-84019348D01*
X137236723Y-84007856D01*
X137229531Y-84003170D01*
X137210692Y-83988944D01*
X137210690Y-83988943D01*
X137210689Y-83988942D01*
X137144174Y-83955821D01*
X137137224Y-83952360D01*
X137134690Y-83951024D01*
X137062989Y-83911086D01*
X137062987Y-83911085D01*
X137040595Y-83903580D01*
X137032663Y-83900295D01*
X137014121Y-83891062D01*
X137011529Y-83889771D01*
X136932573Y-83867306D01*
X136929855Y-83866464D01*
X136852033Y-83840382D01*
X136852031Y-83840381D01*
X136828659Y-83837121D01*
X136820249Y-83835347D01*
X136797535Y-83828884D01*
X136715794Y-83821310D01*
X136712950Y-83820980D01*
X136631684Y-83809644D01*
X136631681Y-83809644D01*
X136594278Y-83811373D01*
X136549700Y-83813434D01*
X136546837Y-83813500D01*
X134425437Y-83813500D01*
X134358398Y-83793815D01*
X134312643Y-83741011D01*
X134304865Y-83718452D01*
X134252873Y-83501889D01*
X134244986Y-83482848D01*
X134156466Y-83269140D01*
X134024839Y-83054346D01*
X134024838Y-83054343D01*
X133929412Y-82942614D01*
X133861441Y-82863030D01*
X133832871Y-82799270D01*
X133843308Y-82730185D01*
X133889439Y-82677709D01*
X133955732Y-82658500D01*
X134963459Y-82658500D01*
X135030498Y-82678185D01*
X135043983Y-82688204D01*
X135124341Y-82756836D01*
X135124343Y-82756837D01*
X135124344Y-82756838D01*
X135124346Y-82756839D01*
X135339140Y-82888466D01*
X135447537Y-82933365D01*
X135571889Y-82984873D01*
X135816852Y-83043683D01*
X136068000Y-83063449D01*
X136319148Y-83043683D01*
X136564111Y-82984873D01*
X136796859Y-82888466D01*
X137011659Y-82756836D01*
X137203224Y-82593224D01*
X137366836Y-82401659D01*
X137498466Y-82186859D01*
X137594873Y-81954111D01*
X137653683Y-81709148D01*
X137661973Y-81603803D01*
X137686856Y-81538516D01*
X137697903Y-81525858D01*
X138015762Y-81207999D01*
X144949127Y-81207999D01*
X144949128Y-81208000D01*
X145912314Y-81208000D01*
X145900359Y-81219955D01*
X145842835Y-81332852D01*
X145823014Y-81458000D01*
X145842835Y-81583148D01*
X145900359Y-81696045D01*
X145912314Y-81708000D01*
X144949128Y-81708000D01*
X145001730Y-81904317D01*
X145001734Y-81904326D01*
X145097865Y-82110482D01*
X145228342Y-82296820D01*
X145389179Y-82457657D01*
X145575517Y-82588134D01*
X145781673Y-82684265D01*
X145781682Y-82684269D01*
X145977999Y-82736872D01*
X145978000Y-82736871D01*
X145978000Y-81773686D01*
X145989955Y-81785641D01*
X146102852Y-81843165D01*
X146196519Y-81858000D01*
X146259481Y-81858000D01*
X146353148Y-81843165D01*
X146466045Y-81785641D01*
X146478000Y-81773686D01*
X146478000Y-82736872D01*
X146674317Y-82684269D01*
X146674326Y-82684265D01*
X146880482Y-82588134D01*
X147066820Y-82457657D01*
X147227657Y-82296820D01*
X147358134Y-82110482D01*
X147454265Y-81904326D01*
X147454269Y-81904317D01*
X147506872Y-81708000D01*
X146543686Y-81708000D01*
X146555641Y-81696045D01*
X146613165Y-81583148D01*
X146632986Y-81458000D01*
X146613165Y-81332852D01*
X146555641Y-81219955D01*
X146543686Y-81208000D01*
X147506872Y-81208000D01*
X147506872Y-81207999D01*
X147454269Y-81011682D01*
X147454265Y-81011673D01*
X147358134Y-80805517D01*
X147227657Y-80619179D01*
X147066820Y-80458342D01*
X146880482Y-80327865D01*
X146674328Y-80231734D01*
X146478000Y-80179127D01*
X146478000Y-81142314D01*
X146466045Y-81130359D01*
X146353148Y-81072835D01*
X146259481Y-81058000D01*
X146196519Y-81058000D01*
X146102852Y-81072835D01*
X145989955Y-81130359D01*
X145978000Y-81142314D01*
X145978000Y-80179127D01*
X145781671Y-80231734D01*
X145575517Y-80327865D01*
X145389179Y-80458342D01*
X145228342Y-80619179D01*
X145097865Y-80805517D01*
X145001734Y-81011673D01*
X145001730Y-81011682D01*
X144949127Y-81207999D01*
X138015762Y-81207999D01*
X140124944Y-79098819D01*
X140186267Y-79065334D01*
X140212625Y-79062500D01*
X147409459Y-79062500D01*
X147476498Y-79082185D01*
X147489983Y-79092204D01*
X147570341Y-79160836D01*
X147570343Y-79160837D01*
X147570344Y-79160838D01*
X147570346Y-79160839D01*
X147785140Y-79292466D01*
X148017889Y-79388873D01*
X148262852Y-79447683D01*
X148514000Y-79467449D01*
X148765148Y-79447683D01*
X149010111Y-79388873D01*
X149242859Y-79292466D01*
X149457659Y-79160836D01*
X149538011Y-79092209D01*
X149601771Y-79063639D01*
X149618541Y-79062500D01*
X153966625Y-79062500D01*
X154033664Y-79082185D01*
X154047149Y-79092204D01*
X154141542Y-79172823D01*
X154174343Y-79200838D01*
X154174346Y-79200839D01*
X154389140Y-79332466D01*
X154621889Y-79428873D01*
X154866852Y-79487683D01*
X155118000Y-79507449D01*
X155254216Y-79496728D01*
X155322591Y-79511092D01*
X155372348Y-79560143D01*
X155387687Y-79628308D01*
X155363738Y-79693945D01*
X155351624Y-79708027D01*
X154267744Y-80791908D01*
X154265673Y-80793885D01*
X154205022Y-80849176D01*
X154155564Y-80914667D01*
X154153787Y-80916911D01*
X154101350Y-80980060D01*
X154101344Y-80980068D01*
X154089860Y-81000687D01*
X154085172Y-81007881D01*
X154082310Y-81011673D01*
X154070943Y-81026725D01*
X154034350Y-81100209D01*
X154033015Y-81102741D01*
X153993083Y-81174433D01*
X153985582Y-81196815D01*
X153982294Y-81204753D01*
X153971773Y-81225882D01*
X153971771Y-81225889D01*
X153949306Y-81304841D01*
X153948459Y-81307576D01*
X153922382Y-81385378D01*
X153922380Y-81385389D01*
X153919119Y-81408760D01*
X153917346Y-81417166D01*
X153910885Y-81439874D01*
X153910885Y-81439878D01*
X153903310Y-81521620D01*
X153902980Y-81524464D01*
X153891644Y-81605730D01*
X153895434Y-81687716D01*
X153895500Y-81690579D01*
X153895500Y-82579802D01*
X153885056Y-82629612D01*
X153850509Y-82708369D01*
X153793533Y-82933361D01*
X153793531Y-82933372D01*
X153774367Y-83164663D01*
X153774367Y-83164676D01*
X153793532Y-83395973D01*
X153806962Y-83449009D01*
X153804336Y-83518830D01*
X153764379Y-83576147D01*
X153731550Y-83595074D01*
X153626506Y-83635768D01*
X153626503Y-83635770D01*
X153453175Y-83743091D01*
X153302523Y-83880427D01*
X153179669Y-84043113D01*
X153088801Y-84225600D01*
X153088798Y-84225606D01*
X153066043Y-84305586D01*
X153028764Y-84364679D01*
X152965455Y-84394237D01*
X152896215Y-84384875D01*
X152859096Y-84359333D01*
X150905910Y-82406147D01*
X150872425Y-82344824D01*
X150869973Y-82328194D01*
X150861683Y-82222854D01*
X150857907Y-82207127D01*
X150802873Y-81977889D01*
X150761387Y-81877732D01*
X150706466Y-81745140D01*
X150574839Y-81530346D01*
X150574838Y-81530343D01*
X150478175Y-81417166D01*
X150411224Y-81338776D01*
X150230246Y-81184206D01*
X150219656Y-81175161D01*
X150219653Y-81175160D01*
X150004859Y-81043533D01*
X149772110Y-80947126D01*
X149527151Y-80888317D01*
X149276000Y-80868551D01*
X149024848Y-80888317D01*
X148779889Y-80947126D01*
X148547140Y-81043533D01*
X148332346Y-81175160D01*
X148332343Y-81175161D01*
X148140776Y-81338776D01*
X147977161Y-81530343D01*
X147977160Y-81530346D01*
X147845533Y-81745140D01*
X147749126Y-81977889D01*
X147690317Y-82222848D01*
X147670551Y-82474000D01*
X147690317Y-82725151D01*
X147749126Y-82970110D01*
X147845533Y-83202859D01*
X147977160Y-83417653D01*
X147977161Y-83417656D01*
X147977164Y-83417659D01*
X148140776Y-83609224D01*
X148268660Y-83718447D01*
X148332343Y-83772838D01*
X148332346Y-83772839D01*
X148547140Y-83904466D01*
X148751073Y-83988937D01*
X148779889Y-84000873D01*
X149024852Y-84059683D01*
X149130194Y-84067973D01*
X149195483Y-84092856D01*
X149208147Y-84103910D01*
X152361820Y-87257583D01*
X152363790Y-87259646D01*
X152375791Y-87272810D01*
X152419091Y-87320309D01*
X152484586Y-87369767D01*
X152486824Y-87371540D01*
X152549977Y-87423982D01*
X152570602Y-87435470D01*
X152577801Y-87440161D01*
X152596639Y-87454387D01*
X152596640Y-87454387D01*
X152596641Y-87454388D01*
X152670126Y-87490979D01*
X152672605Y-87492285D01*
X152744343Y-87532244D01*
X152744341Y-87532244D01*
X152752485Y-87534973D01*
X152766738Y-87539750D01*
X152774669Y-87543035D01*
X152795802Y-87553559D01*
X152874784Y-87576031D01*
X152877473Y-87576864D01*
X152955297Y-87602948D01*
X152955303Y-87602948D01*
X152955304Y-87602949D01*
X152978664Y-87606207D01*
X152987079Y-87607982D01*
X152993780Y-87609888D01*
X153009794Y-87614445D01*
X153091565Y-87622021D01*
X153094331Y-87622342D01*
X153175649Y-87633686D01*
X153251628Y-87630173D01*
X153257630Y-87629896D01*
X153260493Y-87629830D01*
X153363291Y-87629830D01*
X153422307Y-87644774D01*
X153516903Y-87695967D01*
X153554410Y-87716265D01*
X153554422Y-87716270D01*
X153690942Y-87763137D01*
X153747958Y-87803522D01*
X153774089Y-87868321D01*
X153774209Y-87884202D01*
X153774367Y-87884202D01*
X153774367Y-87889336D01*
X153793531Y-88120627D01*
X153793535Y-88120647D01*
X153847663Y-88334389D01*
X153845039Y-88404210D01*
X153805083Y-88461527D01*
X153740482Y-88488144D01*
X153727458Y-88488830D01*
X152249833Y-88488830D01*
X152246970Y-88488764D01*
X152212788Y-88487183D01*
X152164989Y-88484974D01*
X152164987Y-88484974D01*
X152164984Y-88484974D01*
X152083718Y-88496310D01*
X152080874Y-88496640D01*
X151999132Y-88504215D01*
X151999128Y-88504215D01*
X151976420Y-88510676D01*
X151968014Y-88512449D01*
X151944643Y-88515710D01*
X151944632Y-88515712D01*
X151866830Y-88541789D01*
X151864095Y-88542636D01*
X151828512Y-88552760D01*
X151785142Y-88565101D01*
X151785140Y-88565101D01*
X151785136Y-88565103D01*
X151764007Y-88575624D01*
X151756069Y-88578912D01*
X151733687Y-88586413D01*
X151661995Y-88626345D01*
X151659463Y-88627680D01*
X151585979Y-88664273D01*
X151577195Y-88670905D01*
X151567135Y-88678502D01*
X151559944Y-88683187D01*
X151555689Y-88685558D01*
X151539322Y-88694674D01*
X151539314Y-88694680D01*
X151476165Y-88747117D01*
X151473921Y-88748894D01*
X151408430Y-88798352D01*
X151353139Y-88859003D01*
X151351162Y-88861074D01*
X149208146Y-91004089D01*
X149146823Y-91037574D01*
X149130195Y-91040026D01*
X149108555Y-91041729D01*
X149024852Y-91048317D01*
X149024848Y-91048318D01*
X148779889Y-91107126D01*
X148547140Y-91203533D01*
X148332346Y-91335160D01*
X148332343Y-91335161D01*
X148140776Y-91498776D01*
X147977163Y-91690342D01*
X147886443Y-91838382D01*
X147834631Y-91885257D01*
X147765701Y-91896679D01*
X147701538Y-91869021D01*
X147693035Y-91861272D01*
X146399508Y-90567745D01*
X146397530Y-90565673D01*
X146342236Y-90505018D01*
X146342233Y-90505016D01*
X146276742Y-90455560D01*
X146274496Y-90453782D01*
X146211353Y-90401348D01*
X146190723Y-90389856D01*
X146183531Y-90385170D01*
X146164692Y-90370944D01*
X146164690Y-90370943D01*
X146164689Y-90370942D01*
X146164679Y-90370937D01*
X146091224Y-90334360D01*
X146088690Y-90333024D01*
X146016989Y-90293086D01*
X146016987Y-90293085D01*
X145994595Y-90285580D01*
X145986661Y-90282294D01*
X145972385Y-90275185D01*
X145965529Y-90271771D01*
X145886573Y-90249306D01*
X145883855Y-90248464D01*
X145806033Y-90222382D01*
X145806031Y-90222381D01*
X145782659Y-90219121D01*
X145774249Y-90217347D01*
X145751535Y-90210884D01*
X145669794Y-90203310D01*
X145666950Y-90202980D01*
X145585684Y-90191644D01*
X145585681Y-90191644D01*
X145548278Y-90193373D01*
X145503700Y-90195434D01*
X145500837Y-90195500D01*
X141479163Y-90195500D01*
X141476300Y-90195434D01*
X141441732Y-90193836D01*
X141394319Y-90191644D01*
X141394317Y-90191644D01*
X141394314Y-90191644D01*
X141313048Y-90202980D01*
X141310204Y-90203310D01*
X141228462Y-90210885D01*
X141228458Y-90210885D01*
X141205750Y-90217346D01*
X141197344Y-90219119D01*
X141173973Y-90222380D01*
X141173962Y-90222382D01*
X141096160Y-90248459D01*
X141093425Y-90249306D01*
X141057842Y-90259430D01*
X141014472Y-90271771D01*
X141014470Y-90271771D01*
X141014466Y-90271773D01*
X140993337Y-90282294D01*
X140985399Y-90285582D01*
X140963017Y-90293083D01*
X140891325Y-90333015D01*
X140888793Y-90334350D01*
X140815309Y-90370943D01*
X140815308Y-90370944D01*
X140796469Y-90385170D01*
X140789274Y-90389857D01*
X140789267Y-90389862D01*
X140768652Y-90401344D01*
X140768644Y-90401350D01*
X140705495Y-90453787D01*
X140703251Y-90455564D01*
X140637760Y-90505022D01*
X140582469Y-90565673D01*
X140580492Y-90567744D01*
X139382146Y-91766089D01*
X139320823Y-91799574D01*
X139304195Y-91802026D01*
X139282555Y-91803729D01*
X139198852Y-91810317D01*
X139198848Y-91810318D01*
X138953889Y-91869126D01*
X138721140Y-91965533D01*
X138506346Y-92097160D01*
X138506343Y-92097161D01*
X138314776Y-92260776D01*
X138190715Y-92406032D01*
X138132208Y-92444225D01*
X138096425Y-92449500D01*
X137426541Y-92449500D01*
X137359502Y-92429815D01*
X137346016Y-92419795D01*
X137265659Y-92351164D01*
X137265657Y-92351162D01*
X137265655Y-92351161D01*
X137265653Y-92351160D01*
X137050859Y-92219533D01*
X136818110Y-92123126D01*
X136573151Y-92064317D01*
X136322000Y-92044551D01*
X136070848Y-92064317D01*
X135825889Y-92123126D01*
X135593140Y-92219533D01*
X135378346Y-92351160D01*
X135378343Y-92351161D01*
X135186776Y-92514776D01*
X135023161Y-92706343D01*
X135023160Y-92706346D01*
X134891533Y-92921140D01*
X134795126Y-93153889D01*
X134736317Y-93398848D01*
X134716551Y-93650000D01*
X134736317Y-93901151D01*
X134795126Y-94146110D01*
X134891533Y-94378859D01*
X135023160Y-94593653D01*
X135023161Y-94593656D01*
X135023164Y-94593659D01*
X135186776Y-94785224D01*
X135303450Y-94884873D01*
X135378343Y-94948838D01*
X135378346Y-94948839D01*
X135593140Y-95080466D01*
X135825889Y-95176873D01*
X136070852Y-95235683D01*
X136322000Y-95255449D01*
X136573148Y-95235683D01*
X136818111Y-95176873D01*
X137050859Y-95080466D01*
X137265659Y-94948836D01*
X137346011Y-94880209D01*
X137409771Y-94851639D01*
X137426541Y-94850500D01*
X138754500Y-94850500D01*
X138801950Y-94859938D01*
X138953889Y-94922873D01*
X139198852Y-94981683D01*
X139450000Y-95001449D01*
X139701148Y-94981683D01*
X139946111Y-94922873D01*
X140178859Y-94826466D01*
X140393659Y-94694836D01*
X140585224Y-94531224D01*
X140748836Y-94339659D01*
X140880466Y-94124859D01*
X140976873Y-93892111D01*
X141035683Y-93647148D01*
X141043973Y-93541803D01*
X141068856Y-93476516D01*
X141079902Y-93463859D01*
X141910944Y-92632819D01*
X141972267Y-92599334D01*
X141998625Y-92596500D01*
X143193780Y-92596500D01*
X143260819Y-92616185D01*
X143306574Y-92668989D01*
X143316518Y-92738147D01*
X143306162Y-92772904D01*
X143223735Y-92949668D01*
X143223730Y-92949682D01*
X143164860Y-93169389D01*
X143164858Y-93169400D01*
X143145034Y-93395997D01*
X143145034Y-93396002D01*
X143164858Y-93622599D01*
X143164860Y-93622610D01*
X143223730Y-93842317D01*
X143223734Y-93842326D01*
X143319865Y-94048481D01*
X143319866Y-94048483D01*
X143370973Y-94121471D01*
X143370973Y-94121472D01*
X144052045Y-93440399D01*
X144064835Y-93521148D01*
X144122359Y-93634045D01*
X144211955Y-93723641D01*
X144324852Y-93781165D01*
X144405599Y-93793953D01*
X143724526Y-94475025D01*
X143724526Y-94475026D01*
X143797512Y-94526131D01*
X143797516Y-94526133D01*
X144003673Y-94622265D01*
X144003682Y-94622269D01*
X144223389Y-94681139D01*
X144223400Y-94681141D01*
X144449998Y-94700966D01*
X144450002Y-94700966D01*
X144676599Y-94681141D01*
X144676610Y-94681139D01*
X144896317Y-94622269D01*
X144896331Y-94622264D01*
X145102478Y-94526136D01*
X145175472Y-94475025D01*
X144494401Y-93793953D01*
X144575148Y-93781165D01*
X144688045Y-93723641D01*
X144777641Y-93634045D01*
X144835165Y-93521148D01*
X144847953Y-93440400D01*
X145529025Y-94121472D01*
X145580136Y-94048478D01*
X145676264Y-93842331D01*
X145676269Y-93842317D01*
X145735139Y-93622610D01*
X145735141Y-93622599D01*
X145738006Y-93589853D01*
X145763458Y-93524784D01*
X145820048Y-93483805D01*
X145889810Y-93479926D01*
X145949215Y-93512978D01*
X146120524Y-93684287D01*
X146154009Y-93745610D01*
X146156843Y-93771968D01*
X146156843Y-93988178D01*
X146156777Y-93991041D01*
X146152987Y-94073027D01*
X146164323Y-94154293D01*
X146164653Y-94157137D01*
X146172227Y-94238878D01*
X146178690Y-94261592D01*
X146180464Y-94270002D01*
X146183724Y-94293374D01*
X146183725Y-94293376D01*
X146209802Y-94371180D01*
X146210648Y-94373913D01*
X146233114Y-94452871D01*
X146243638Y-94474006D01*
X146246923Y-94481938D01*
X146254428Y-94504330D01*
X146254429Y-94504332D01*
X146294367Y-94576033D01*
X146295703Y-94578567D01*
X146332280Y-94652022D01*
X146332287Y-94652035D01*
X146346513Y-94670874D01*
X146351199Y-94678066D01*
X146362691Y-94698696D01*
X146415081Y-94761786D01*
X146415125Y-94761839D01*
X146416903Y-94764085D01*
X146466359Y-94829576D01*
X146466361Y-94829579D01*
X146527016Y-94884873D01*
X146529088Y-94886851D01*
X149113181Y-97470944D01*
X149146666Y-97532267D01*
X149149500Y-97558625D01*
X149149500Y-98354960D01*
X149164630Y-98489249D01*
X149164631Y-98489254D01*
X149224211Y-98659523D01*
X149306594Y-98790634D01*
X149320184Y-98812262D01*
X149447738Y-98939816D01*
X149495004Y-98969515D01*
X149598542Y-99034573D01*
X149600478Y-99035789D01*
X149695230Y-99068944D01*
X149770745Y-99095368D01*
X149770750Y-99095369D01*
X149861246Y-99105565D01*
X149905040Y-99110499D01*
X149905043Y-99110500D01*
X149905046Y-99110500D01*
X151694957Y-99110500D01*
X151694958Y-99110499D01*
X151762104Y-99102934D01*
X151829249Y-99095369D01*
X151829252Y-99095368D01*
X151829255Y-99095368D01*
X151999522Y-99035789D01*
X152152262Y-98939816D01*
X152251737Y-98840340D01*
X152313056Y-98806858D01*
X152382748Y-98811842D01*
X152404205Y-98822297D01*
X152588371Y-98935154D01*
X152611012Y-98944532D01*
X152828390Y-99034573D01*
X153081006Y-99095221D01*
X153340000Y-99115604D01*
X153598994Y-99095221D01*
X153851610Y-99034573D01*
X154091628Y-98935154D01*
X154313140Y-98799412D01*
X154510689Y-98630689D01*
X154515710Y-98624809D01*
X154574213Y-98586617D01*
X154644081Y-98586116D01*
X154703128Y-98623468D01*
X154704197Y-98624702D01*
X154709311Y-98630689D01*
X154906860Y-98799412D01*
X155128372Y-98935154D01*
X155128374Y-98935154D01*
X155128376Y-98935156D01*
X155151012Y-98944532D01*
X155368390Y-99034573D01*
X155621006Y-99095221D01*
X155880000Y-99115604D01*
X156138994Y-99095221D01*
X156391610Y-99034573D01*
X156631628Y-98935154D01*
X156853140Y-98799412D01*
X157050689Y-98630689D01*
X157055710Y-98624809D01*
X157114213Y-98586617D01*
X157184081Y-98586116D01*
X157243128Y-98623468D01*
X157244197Y-98624702D01*
X157249311Y-98630689D01*
X157446860Y-98799412D01*
X157668372Y-98935154D01*
X157668374Y-98935154D01*
X157668376Y-98935156D01*
X157691012Y-98944532D01*
X157908390Y-99034573D01*
X158161006Y-99095221D01*
X158420000Y-99115604D01*
X158678994Y-99095221D01*
X158931610Y-99034573D01*
X159171628Y-98935154D01*
X159393140Y-98799412D01*
X159590689Y-98630689D01*
X159595710Y-98624809D01*
X159654213Y-98586617D01*
X159724081Y-98586116D01*
X159783128Y-98623468D01*
X159784197Y-98624702D01*
X159789311Y-98630689D01*
X159986860Y-98799412D01*
X160208372Y-98935154D01*
X160208374Y-98935154D01*
X160208376Y-98935156D01*
X160231012Y-98944532D01*
X160448390Y-99034573D01*
X160701006Y-99095221D01*
X160960000Y-99115604D01*
X161218994Y-99095221D01*
X161471610Y-99034573D01*
X161711628Y-98935154D01*
X161933140Y-98799412D01*
X162130689Y-98630689D01*
X162135710Y-98624809D01*
X162194213Y-98586617D01*
X162264081Y-98586116D01*
X162323128Y-98623468D01*
X162324197Y-98624702D01*
X162329311Y-98630689D01*
X162526860Y-98799412D01*
X162748372Y-98935154D01*
X162748374Y-98935154D01*
X162748376Y-98935156D01*
X162771012Y-98944532D01*
X162988390Y-99034573D01*
X163241006Y-99095221D01*
X163500000Y-99115604D01*
X163758994Y-99095221D01*
X164011610Y-99034573D01*
X164251628Y-98935154D01*
X164473140Y-98799412D01*
X164670689Y-98630689D01*
X164839412Y-98433140D01*
X164975154Y-98211628D01*
X165074573Y-97971610D01*
X165135221Y-97718994D01*
X165155604Y-97460000D01*
X165135221Y-97201006D01*
X165074573Y-96948390D01*
X165002432Y-96774227D01*
X164975156Y-96708376D01*
X164954738Y-96675057D01*
X164839412Y-96486860D01*
X164670689Y-96289311D01*
X164473140Y-96120588D01*
X164251628Y-95984846D01*
X164251627Y-95984845D01*
X164251623Y-95984843D01*
X164085627Y-95916086D01*
X164011610Y-95885427D01*
X164011611Y-95885427D01*
X163873921Y-95852370D01*
X163758994Y-95824779D01*
X163758992Y-95824778D01*
X163758991Y-95824778D01*
X163500000Y-95804396D01*
X163241009Y-95824778D01*
X162988389Y-95885427D01*
X162748376Y-95984843D01*
X162526859Y-96120588D01*
X162329313Y-96289309D01*
X162329311Y-96289311D01*
X162324287Y-96295193D01*
X162265781Y-96333383D01*
X162195913Y-96333881D01*
X162136868Y-96296526D01*
X162135714Y-96295195D01*
X162130689Y-96289311D01*
X161933140Y-96120588D01*
X161711628Y-95984846D01*
X161711627Y-95984845D01*
X161711623Y-95984843D01*
X161545627Y-95916086D01*
X161471610Y-95885427D01*
X161471611Y-95885427D01*
X161333921Y-95852370D01*
X161218994Y-95824779D01*
X161218992Y-95824778D01*
X161218991Y-95824778D01*
X160960000Y-95804396D01*
X160701009Y-95824778D01*
X160448389Y-95885427D01*
X160208376Y-95984843D01*
X159986859Y-96120588D01*
X159789313Y-96289309D01*
X159789311Y-96289311D01*
X159784287Y-96295193D01*
X159725781Y-96333383D01*
X159655913Y-96333881D01*
X159596868Y-96296526D01*
X159595714Y-96295195D01*
X159590689Y-96289311D01*
X159393140Y-96120588D01*
X159171628Y-95984846D01*
X159171627Y-95984845D01*
X159171623Y-95984843D01*
X159005627Y-95916086D01*
X158931610Y-95885427D01*
X158931611Y-95885427D01*
X158793921Y-95852370D01*
X158678994Y-95824779D01*
X158678992Y-95824778D01*
X158678991Y-95824778D01*
X158420000Y-95804396D01*
X158161009Y-95824778D01*
X157908389Y-95885427D01*
X157668376Y-95984843D01*
X157446859Y-96120588D01*
X157249313Y-96289309D01*
X157249311Y-96289311D01*
X157244287Y-96295193D01*
X157185781Y-96333383D01*
X157115913Y-96333881D01*
X157056868Y-96296526D01*
X157055714Y-96295195D01*
X157050689Y-96289311D01*
X156853140Y-96120588D01*
X156631628Y-95984846D01*
X156631627Y-95984845D01*
X156631623Y-95984843D01*
X156465627Y-95916086D01*
X156391610Y-95885427D01*
X156391611Y-95885427D01*
X156253921Y-95852370D01*
X156138994Y-95824779D01*
X156138992Y-95824778D01*
X156138991Y-95824778D01*
X155880000Y-95804396D01*
X155621009Y-95824778D01*
X155368389Y-95885427D01*
X155128376Y-95984843D01*
X154906859Y-96120588D01*
X154757989Y-96247736D01*
X154709314Y-96289309D01*
X154709310Y-96289312D01*
X154704285Y-96295195D01*
X154645775Y-96333384D01*
X154575907Y-96333878D01*
X154516863Y-96296520D01*
X154515712Y-96295192D01*
X154510600Y-96289207D01*
X154485623Y-96242609D01*
X154464229Y-96167416D01*
X154453705Y-96146283D01*
X154450420Y-96138352D01*
X154445560Y-96123852D01*
X154442917Y-96115964D01*
X154442916Y-96115963D01*
X154442915Y-96115959D01*
X154402948Y-96044205D01*
X154401642Y-96041725D01*
X154381178Y-96000628D01*
X154365063Y-95968264D01*
X154365057Y-95968253D01*
X154358596Y-95959699D01*
X154350830Y-95949415D01*
X154346140Y-95942216D01*
X154334655Y-95921594D01*
X154334653Y-95921591D01*
X154282191Y-95858414D01*
X154280462Y-95856233D01*
X154241318Y-95804396D01*
X154230981Y-95790707D01*
X154170335Y-95735422D01*
X154168264Y-95733444D01*
X153670502Y-95235682D01*
X153098878Y-94664059D01*
X153065394Y-94602737D01*
X153070378Y-94533045D01*
X153112250Y-94477112D01*
X153157612Y-94455805D01*
X153328111Y-94414873D01*
X153560859Y-94318466D01*
X153775659Y-94186836D01*
X153967224Y-94023224D01*
X154130836Y-93831659D01*
X154262466Y-93616859D01*
X154358873Y-93384111D01*
X154417683Y-93139148D01*
X154437449Y-92888000D01*
X154417683Y-92636852D01*
X154358873Y-92391889D01*
X154333445Y-92330501D01*
X154262466Y-92159140D01*
X154130839Y-91944346D01*
X154130838Y-91944343D01*
X154066596Y-91869126D01*
X153967224Y-91752776D01*
X153834027Y-91639015D01*
X153775656Y-91589161D01*
X153775653Y-91589160D01*
X153560859Y-91457533D01*
X153328110Y-91361126D01*
X153083151Y-91302317D01*
X152864489Y-91285108D01*
X152832000Y-91282551D01*
X152831999Y-91282551D01*
X152616998Y-91299472D01*
X152548621Y-91285108D01*
X152498864Y-91236056D01*
X152483525Y-91167891D01*
X152507474Y-91102254D01*
X152519571Y-91088190D01*
X152681616Y-90926146D01*
X152742938Y-90892664D01*
X152769295Y-90889830D01*
X155896088Y-90889830D01*
X155898951Y-90889896D01*
X155910135Y-90890412D01*
X155980932Y-90893686D01*
X156062253Y-90882341D01*
X156065009Y-90882022D01*
X156146787Y-90874445D01*
X156169510Y-90867978D01*
X156177895Y-90866209D01*
X156201284Y-90862948D01*
X156279131Y-90836855D01*
X156281781Y-90836035D01*
X156360779Y-90813559D01*
X156361346Y-90813276D01*
X156381909Y-90803037D01*
X156389852Y-90799746D01*
X156412236Y-90792245D01*
X156483956Y-90752295D01*
X156486460Y-90750976D01*
X156559940Y-90714388D01*
X156578790Y-90700152D01*
X156585961Y-90695479D01*
X156606604Y-90683982D01*
X156669780Y-90631519D01*
X156671973Y-90629782D01*
X156737487Y-90580311D01*
X156792801Y-90519633D01*
X156794748Y-90517594D01*
X157724264Y-89588078D01*
X157726303Y-89586131D01*
X157786981Y-89530817D01*
X157786992Y-89530802D01*
X157787939Y-89529765D01*
X157803421Y-89515441D01*
X157847784Y-89480913D01*
X158004979Y-89310153D01*
X158031488Y-89269576D01*
X158084632Y-89224220D01*
X158153863Y-89214795D01*
X158175560Y-89220116D01*
X158267348Y-89251627D01*
X158267350Y-89251627D01*
X158267352Y-89251628D01*
X158496284Y-89289830D01*
X158496285Y-89289830D01*
X158728381Y-89289830D01*
X158728382Y-89289830D01*
X158957314Y-89251628D01*
X159176836Y-89176266D01*
X159380959Y-89065800D01*
X159564117Y-88923243D01*
X159721312Y-88752483D01*
X159848257Y-88558179D01*
X159860952Y-88529236D01*
X159905906Y-88475752D01*
X159972641Y-88455060D01*
X160039970Y-88473733D01*
X160062189Y-88491365D01*
X161755181Y-90184357D01*
X161788666Y-90245680D01*
X161791500Y-90272038D01*
X161791500Y-91783458D01*
X161771815Y-91850497D01*
X161761791Y-91863988D01*
X161757403Y-91869127D01*
X161693161Y-91944344D01*
X161693160Y-91944346D01*
X161561533Y-92159140D01*
X161465126Y-92391889D01*
X161406317Y-92636848D01*
X161386551Y-92888000D01*
X161406317Y-93139151D01*
X161465126Y-93384110D01*
X161561533Y-93616859D01*
X161693160Y-93831653D01*
X161693161Y-93831656D01*
X161741322Y-93888045D01*
X161856776Y-94023224D01*
X162000657Y-94146110D01*
X162048343Y-94186838D01*
X162048346Y-94186839D01*
X162263140Y-94318466D01*
X162408943Y-94378859D01*
X162495889Y-94414873D01*
X162740852Y-94473683D01*
X162992000Y-94493449D01*
X163243148Y-94473683D01*
X163488111Y-94414873D01*
X163720859Y-94318466D01*
X163935659Y-94186836D01*
X164127224Y-94023224D01*
X164290836Y-93831659D01*
X164422466Y-93616859D01*
X164518873Y-93384111D01*
X164577683Y-93139148D01*
X164597449Y-92888000D01*
X164577683Y-92636852D01*
X164518873Y-92391889D01*
X164493445Y-92330501D01*
X164422466Y-92159140D01*
X164290839Y-91944346D01*
X164290838Y-91944344D01*
X164290837Y-91944343D01*
X164290836Y-91944341D01*
X164222208Y-91863988D01*
X164193639Y-91800228D01*
X164192500Y-91783458D01*
X164192500Y-89752576D01*
X164192566Y-89749713D01*
X164193046Y-89739320D01*
X164196356Y-89667732D01*
X164185012Y-89586415D01*
X164184691Y-89583649D01*
X164177115Y-89501877D01*
X164170650Y-89479155D01*
X164168880Y-89470768D01*
X164165618Y-89447381D01*
X164139536Y-89369565D01*
X164138695Y-89366848D01*
X164122564Y-89310153D01*
X164116229Y-89287885D01*
X164105700Y-89266741D01*
X164102418Y-89258816D01*
X164094915Y-89236428D01*
X164054957Y-89164691D01*
X164053641Y-89162194D01*
X164017058Y-89088724D01*
X164017057Y-89088723D01*
X164017057Y-89088722D01*
X164002835Y-89069890D01*
X163998141Y-89062685D01*
X163986653Y-89042059D01*
X163934212Y-88978907D01*
X163932433Y-88976662D01*
X163882980Y-88911175D01*
X163828021Y-88861074D01*
X163822316Y-88855873D01*
X163820253Y-88853903D01*
X161047702Y-86081352D01*
X161015177Y-86024110D01*
X161014858Y-86022852D01*
X161002242Y-85973030D01*
X160909009Y-85760481D01*
X160800777Y-85594820D01*
X160780591Y-85527932D01*
X160799771Y-85460747D01*
X160800739Y-85459238D01*
X160909009Y-85293519D01*
X161002242Y-85080970D01*
X161059219Y-84855975D01*
X161059301Y-84854985D01*
X161078385Y-84624676D01*
X161078385Y-84624663D01*
X161059220Y-84393372D01*
X161059218Y-84393361D01*
X161002242Y-84168369D01*
X160909009Y-83955821D01*
X160782068Y-83761522D01*
X160782065Y-83761519D01*
X160782064Y-83761517D01*
X160624869Y-83590757D01*
X160624864Y-83590753D01*
X160624862Y-83590751D01*
X160441719Y-83448205D01*
X160441713Y-83448201D01*
X160237589Y-83337734D01*
X160237580Y-83337731D01*
X160101056Y-83290862D01*
X160044041Y-83250477D01*
X160017910Y-83185677D01*
X160017792Y-83169799D01*
X160017633Y-83169799D01*
X160017633Y-83164677D01*
X160017632Y-83164673D01*
X160017633Y-83164670D01*
X159998467Y-82933365D01*
X159998466Y-82933361D01*
X159941490Y-82708369D01*
X159848257Y-82495821D01*
X159721316Y-82301522D01*
X159721313Y-82301519D01*
X159721312Y-82301517D01*
X159564117Y-82130757D01*
X159564112Y-82130753D01*
X159564110Y-82130751D01*
X159380967Y-81988205D01*
X159380961Y-81988201D01*
X159176837Y-81877734D01*
X159176828Y-81877731D01*
X158957317Y-81802372D01*
X158785615Y-81773720D01*
X158728382Y-81764170D01*
X158496284Y-81764170D01*
X158450497Y-81771810D01*
X158267348Y-81802372D01*
X158047834Y-81877732D01*
X158047821Y-81877738D01*
X158012794Y-81896693D01*
X157944465Y-81911287D01*
X157879094Y-81886622D01*
X157843563Y-81844455D01*
X157825589Y-81809589D01*
X157695731Y-81644462D01*
X157695728Y-81644459D01*
X157536969Y-81506894D01*
X157536958Y-81506885D01*
X157355039Y-81401855D01*
X157355029Y-81401850D01*
X157318093Y-81389066D01*
X157261180Y-81348537D01*
X157235213Y-81283671D01*
X157248438Y-81215065D01*
X157270965Y-81184213D01*
X159316360Y-79138819D01*
X159377683Y-79105334D01*
X159404041Y-79102500D01*
X164173459Y-79102500D01*
X164240498Y-79122185D01*
X164253983Y-79132204D01*
X164334341Y-79200836D01*
X164334343Y-79200837D01*
X164334344Y-79200838D01*
X164334346Y-79200839D01*
X164549140Y-79332466D01*
X164781889Y-79428873D01*
X165026852Y-79487683D01*
X165278000Y-79507449D01*
X165529148Y-79487683D01*
X165774111Y-79428873D01*
X166006859Y-79332466D01*
X166221659Y-79200836D01*
X166413224Y-79037224D01*
X166576836Y-78845659D01*
X166708466Y-78630859D01*
X166804873Y-78398111D01*
X166863683Y-78153148D01*
X166883449Y-77902000D01*
X166863683Y-77650852D01*
X166804873Y-77405889D01*
X166708466Y-77173141D01*
X166708466Y-77173140D01*
X166576839Y-76958346D01*
X166576838Y-76958343D01*
X166519466Y-76891169D01*
X166413224Y-76766776D01*
X166285447Y-76657644D01*
X166221656Y-76603161D01*
X166221653Y-76603160D01*
X166006859Y-76471533D01*
X165774110Y-76375126D01*
X165529151Y-76316317D01*
X165278000Y-76296551D01*
X165026848Y-76316317D01*
X164781889Y-76375126D01*
X164549140Y-76471533D01*
X164334346Y-76603160D01*
X164334344Y-76603161D01*
X164306328Y-76627088D01*
X164253988Y-76671790D01*
X164190229Y-76700361D01*
X164173459Y-76701500D01*
X158884579Y-76701500D01*
X158881716Y-76701434D01*
X158847534Y-76699853D01*
X158799735Y-76697644D01*
X158799733Y-76697644D01*
X158799730Y-76697644D01*
X158718464Y-76708980D01*
X158715620Y-76709310D01*
X158633878Y-76716885D01*
X158633874Y-76716885D01*
X158611166Y-76723346D01*
X158602760Y-76725119D01*
X158579389Y-76728380D01*
X158579378Y-76728382D01*
X158501576Y-76754459D01*
X158498841Y-76755306D01*
X158485567Y-76759083D01*
X158419888Y-76777771D01*
X158419886Y-76777771D01*
X158419882Y-76777773D01*
X158398753Y-76788294D01*
X158390815Y-76791582D01*
X158368433Y-76799083D01*
X158296741Y-76839015D01*
X158294209Y-76840350D01*
X158220725Y-76876943D01*
X158211941Y-76883575D01*
X158201881Y-76891172D01*
X158194690Y-76895857D01*
X158190435Y-76898228D01*
X158174068Y-76907344D01*
X158174060Y-76907350D01*
X158110911Y-76959787D01*
X158108667Y-76961564D01*
X158043176Y-77011022D01*
X157987885Y-77071673D01*
X157985908Y-77073744D01*
X156924027Y-78135624D01*
X156862704Y-78169109D01*
X156793012Y-78164125D01*
X156737079Y-78122253D01*
X156712662Y-78056789D01*
X156712727Y-78038222D01*
X156723449Y-77902000D01*
X156703683Y-77650852D01*
X156644873Y-77405889D01*
X156548466Y-77173141D01*
X156548466Y-77173140D01*
X156416839Y-76958346D01*
X156416838Y-76958343D01*
X156359466Y-76891169D01*
X156253224Y-76766776D01*
X156125447Y-76657644D01*
X156061656Y-76603161D01*
X156061653Y-76603160D01*
X155846859Y-76471533D01*
X155614110Y-76375126D01*
X155369151Y-76316317D01*
X155118000Y-76296551D01*
X154866848Y-76316317D01*
X154621889Y-76375126D01*
X154389140Y-76471533D01*
X154174343Y-76603162D01*
X154174338Y-76603165D01*
X154140824Y-76631790D01*
X154077063Y-76660361D01*
X154060292Y-76661500D01*
X149618541Y-76661500D01*
X149551502Y-76641815D01*
X149538016Y-76631795D01*
X149457659Y-76563164D01*
X149457657Y-76563162D01*
X149457655Y-76563161D01*
X149457653Y-76563160D01*
X149242859Y-76431533D01*
X149010110Y-76335126D01*
X148765151Y-76276317D01*
X148514000Y-76256551D01*
X148262848Y-76276317D01*
X148017889Y-76335126D01*
X147785140Y-76431533D01*
X147570346Y-76563160D01*
X147570344Y-76563161D01*
X147542328Y-76587088D01*
X147489988Y-76631790D01*
X147426229Y-76660361D01*
X147409459Y-76661500D01*
X139693164Y-76661500D01*
X139690301Y-76661434D01*
X139656023Y-76659849D01*
X139608319Y-76657644D01*
X139608317Y-76657644D01*
X139608314Y-76657644D01*
X139527048Y-76668980D01*
X139524204Y-76669310D01*
X139442462Y-76676885D01*
X139442458Y-76676885D01*
X139419750Y-76683346D01*
X139411344Y-76685119D01*
X139387973Y-76688380D01*
X139387962Y-76688382D01*
X139310160Y-76714459D01*
X139307425Y-76715306D01*
X139301876Y-76716885D01*
X139228472Y-76737771D01*
X139228470Y-76737771D01*
X139228466Y-76737773D01*
X139207337Y-76748294D01*
X139199399Y-76751582D01*
X139177017Y-76759083D01*
X139105325Y-76799015D01*
X139102793Y-76800350D01*
X139029309Y-76836943D01*
X139020525Y-76843575D01*
X139010465Y-76851172D01*
X139003274Y-76855857D01*
X138999019Y-76858228D01*
X138982652Y-76867344D01*
X138982644Y-76867350D01*
X138919495Y-76919787D01*
X138917251Y-76921564D01*
X138851760Y-76971022D01*
X138796469Y-77031673D01*
X138794492Y-77033744D01*
X136000146Y-79828089D01*
X135938823Y-79861574D01*
X135922195Y-79864026D01*
X135900555Y-79865729D01*
X135816852Y-79872317D01*
X135816848Y-79872318D01*
X135571889Y-79931126D01*
X135339140Y-80027533D01*
X135124346Y-80159160D01*
X135124344Y-80159161D01*
X135123190Y-80160147D01*
X135043988Y-80227790D01*
X134980229Y-80256361D01*
X134963459Y-80257500D01*
X124921163Y-80257500D01*
X124918300Y-80257434D01*
X124884118Y-80255853D01*
X124836319Y-80253644D01*
X124836317Y-80253644D01*
X124836314Y-80253644D01*
X124755048Y-80264980D01*
X124752204Y-80265310D01*
X124670462Y-80272885D01*
X124670458Y-80272885D01*
X124647750Y-80279346D01*
X124639344Y-80281119D01*
X124615973Y-80284380D01*
X124615962Y-80284382D01*
X124538160Y-80310459D01*
X124535425Y-80311306D01*
X124499842Y-80321430D01*
X124456472Y-80333771D01*
X124456470Y-80333771D01*
X124456466Y-80333773D01*
X124435337Y-80344294D01*
X124427399Y-80347582D01*
X124405017Y-80355083D01*
X124333325Y-80395015D01*
X124330793Y-80396350D01*
X124257309Y-80432943D01*
X124248525Y-80439575D01*
X124238465Y-80447172D01*
X124231274Y-80451857D01*
X124227019Y-80454228D01*
X124210652Y-80463344D01*
X124210644Y-80463350D01*
X124147495Y-80515787D01*
X124145251Y-80517564D01*
X124079760Y-80567022D01*
X124024469Y-80627673D01*
X124022492Y-80629744D01*
X122641749Y-82010486D01*
X122580426Y-82043971D01*
X122510734Y-82038987D01*
X122454801Y-81997115D01*
X122430384Y-81931651D01*
X122445236Y-81863378D01*
X122452498Y-81851675D01*
X122456132Y-81846484D01*
X122456133Y-81846483D01*
X122552265Y-81640326D01*
X122552269Y-81640317D01*
X122604872Y-81444000D01*
X121641686Y-81444000D01*
X121653641Y-81432045D01*
X121711165Y-81319148D01*
X121730986Y-81194000D01*
X121711165Y-81068852D01*
X121653641Y-80955955D01*
X121641686Y-80944000D01*
X122604872Y-80944000D01*
X122604872Y-80943999D01*
X122552269Y-80747682D01*
X122552265Y-80747673D01*
X122456134Y-80541517D01*
X122325657Y-80355179D01*
X122164820Y-80194342D01*
X121978482Y-80063865D01*
X121772328Y-79967734D01*
X121576000Y-79915127D01*
X121576000Y-80878314D01*
X121564045Y-80866359D01*
X121451148Y-80808835D01*
X121357481Y-80794000D01*
X121294519Y-80794000D01*
X121200852Y-80808835D01*
X121087955Y-80866359D01*
X121076000Y-80878314D01*
X121076000Y-79915127D01*
X120879671Y-79967734D01*
X120673517Y-80063865D01*
X120487179Y-80194342D01*
X120326342Y-80355179D01*
X120195865Y-80541517D01*
X120099734Y-80747673D01*
X120099730Y-80747682D01*
X120047127Y-80943999D01*
X120047128Y-80944000D01*
X121010314Y-80944000D01*
X120998359Y-80955955D01*
X120940835Y-81068852D01*
X120921014Y-81194000D01*
X120940835Y-81319148D01*
X120998359Y-81432045D01*
X121010314Y-81444000D01*
X120047128Y-81444000D01*
X120099730Y-81640317D01*
X120099734Y-81640326D01*
X120195865Y-81846482D01*
X120326342Y-82032820D01*
X120485865Y-82192343D01*
X120519350Y-82253666D01*
X120514366Y-82323358D01*
X120472494Y-82379291D01*
X120462974Y-82385751D01*
X120382346Y-82435160D01*
X120382343Y-82435161D01*
X120190776Y-82598776D01*
X120027161Y-82790343D01*
X120027160Y-82790346D01*
X119895533Y-83005140D01*
X119799126Y-83237889D01*
X119740317Y-83482848D01*
X119720551Y-83734000D01*
X119740317Y-83985151D01*
X119799126Y-84230110D01*
X119895533Y-84462859D01*
X120027160Y-84677653D01*
X120027161Y-84677656D01*
X120056304Y-84711778D01*
X120190776Y-84869224D01*
X120238179Y-84909710D01*
X120276372Y-84968217D01*
X120276870Y-85038085D01*
X120239516Y-85097131D01*
X120238186Y-85098283D01*
X120212796Y-85119969D01*
X120190776Y-85138776D01*
X120027161Y-85330343D01*
X120027160Y-85330346D01*
X119895533Y-85545140D01*
X119799126Y-85777889D01*
X119740317Y-86022848D01*
X119720551Y-86274000D01*
X119740317Y-86525151D01*
X119799126Y-86770110D01*
X119895533Y-87002859D01*
X120027162Y-87217656D01*
X120027166Y-87217662D01*
X120027850Y-87218463D01*
X120028014Y-87218830D01*
X120030029Y-87221603D01*
X120029446Y-87222026D01*
X120056422Y-87282223D01*
X120045987Y-87351309D01*
X120021244Y-87386678D01*
X119896183Y-87511739D01*
X119800211Y-87664476D01*
X119740631Y-87834745D01*
X119740630Y-87834750D01*
X119725500Y-87969039D01*
X119725500Y-89658960D01*
X119740630Y-89793249D01*
X119740631Y-89793254D01*
X119800211Y-89963523D01*
X119892234Y-90109976D01*
X119896184Y-90116262D01*
X120023738Y-90243816D01*
X120090205Y-90285580D01*
X120167837Y-90334360D01*
X120176478Y-90339789D01*
X120344807Y-90398690D01*
X120346745Y-90399368D01*
X120346750Y-90399369D01*
X120437246Y-90409565D01*
X120481040Y-90414499D01*
X120481043Y-90414500D01*
X120481046Y-90414500D01*
X122170957Y-90414500D01*
X122170958Y-90414499D01*
X122238104Y-90406934D01*
X122305249Y-90399369D01*
X122305252Y-90399368D01*
X122305255Y-90399368D01*
X122475522Y-90339789D01*
X122628262Y-90243816D01*
X122755816Y-90116262D01*
X122851789Y-89963522D01*
X122911368Y-89793255D01*
X122915203Y-89759223D01*
X122926499Y-89658960D01*
X122926500Y-89658956D01*
X122926500Y-87969043D01*
X122926499Y-87969039D01*
X122925964Y-87964294D01*
X122917065Y-87885310D01*
X122911369Y-87834750D01*
X122911368Y-87834745D01*
X122869910Y-87716265D01*
X122851789Y-87664478D01*
X122851788Y-87664476D01*
X122851782Y-87664466D01*
X122851778Y-87664454D01*
X122848769Y-87658205D01*
X122849864Y-87657677D01*
X122832787Y-87597228D01*
X122853158Y-87530394D01*
X122906428Y-87485183D01*
X122956780Y-87474500D01*
X125420837Y-87474500D01*
X125423700Y-87474566D01*
X125434884Y-87475082D01*
X125505681Y-87478356D01*
X125587002Y-87467011D01*
X125589758Y-87466692D01*
X125671536Y-87459115D01*
X125694259Y-87452648D01*
X125702644Y-87450879D01*
X125726033Y-87447618D01*
X125803880Y-87421525D01*
X125806530Y-87420705D01*
X125885528Y-87398229D01*
X125886095Y-87397946D01*
X125906658Y-87387707D01*
X125914601Y-87384416D01*
X125936985Y-87376915D01*
X126008705Y-87336965D01*
X126011209Y-87335646D01*
X126024229Y-87329163D01*
X126084689Y-87299058D01*
X126103539Y-87284822D01*
X126110710Y-87280149D01*
X126131353Y-87268652D01*
X126194529Y-87216189D01*
X126196722Y-87214452D01*
X126262236Y-87164981D01*
X126317550Y-87104303D01*
X126319497Y-87102264D01*
X127289820Y-86131942D01*
X127351142Y-86098458D01*
X127420834Y-86103442D01*
X127476767Y-86145314D01*
X127501184Y-86210778D01*
X127501500Y-86219624D01*
X127501500Y-87753500D01*
X127481815Y-87820539D01*
X127429011Y-87866294D01*
X127377500Y-87877500D01*
X126445164Y-87877500D01*
X126442301Y-87877434D01*
X126408023Y-87875849D01*
X126360319Y-87873644D01*
X126360317Y-87873644D01*
X126360314Y-87873644D01*
X126279048Y-87884980D01*
X126276204Y-87885310D01*
X126194462Y-87892885D01*
X126194458Y-87892885D01*
X126171750Y-87899346D01*
X126163344Y-87901119D01*
X126139973Y-87904380D01*
X126139962Y-87904382D01*
X126062160Y-87930459D01*
X126059425Y-87931306D01*
X126023842Y-87941430D01*
X125980472Y-87953771D01*
X125980470Y-87953771D01*
X125980466Y-87953773D01*
X125959337Y-87964294D01*
X125951399Y-87967582D01*
X125929016Y-87975083D01*
X125857303Y-88015027D01*
X125854771Y-88016361D01*
X125781320Y-88052936D01*
X125781304Y-88052946D01*
X125762476Y-88067164D01*
X125755278Y-88071854D01*
X125734647Y-88083346D01*
X125734637Y-88083353D01*
X125671502Y-88135781D01*
X125669258Y-88137559D01*
X125603768Y-88187015D01*
X125603761Y-88187021D01*
X125548469Y-88247673D01*
X125546492Y-88249744D01*
X122539744Y-91256492D01*
X122537673Y-91258469D01*
X122477022Y-91313760D01*
X122427564Y-91379251D01*
X122425787Y-91381495D01*
X122373350Y-91444644D01*
X122373344Y-91444652D01*
X122361860Y-91465271D01*
X122357172Y-91472465D01*
X122349575Y-91482525D01*
X122342943Y-91491309D01*
X122306350Y-91564793D01*
X122305015Y-91567325D01*
X122265083Y-91639017D01*
X122257582Y-91661399D01*
X122254294Y-91669337D01*
X122243773Y-91690466D01*
X122243771Y-91690473D01*
X122221306Y-91769425D01*
X122220459Y-91772160D01*
X122194382Y-91849962D01*
X122194380Y-91849973D01*
X122191119Y-91873344D01*
X122189346Y-91881750D01*
X122182885Y-91904458D01*
X122182885Y-91904462D01*
X122175310Y-91986204D01*
X122174980Y-91989048D01*
X122163644Y-92070314D01*
X122167434Y-92152300D01*
X122167500Y-92155163D01*
X122167500Y-92545458D01*
X122147815Y-92612497D01*
X122137791Y-92625989D01*
X122069161Y-92706344D01*
X122069160Y-92706346D01*
X121937533Y-92921140D01*
X121841126Y-93153889D01*
X121800681Y-93322359D01*
X121782317Y-93398852D01*
X121771486Y-93536474D01*
X121765211Y-93616198D01*
X121740327Y-93681486D01*
X121684095Y-93722956D01*
X121614370Y-93727443D01*
X121553912Y-93694149D01*
X117238819Y-89379056D01*
X117205334Y-89317733D01*
X117202500Y-89291375D01*
X117202500Y-85259163D01*
X117202566Y-85256300D01*
X117204165Y-85221711D01*
X117206356Y-85174319D01*
X117195012Y-85093001D01*
X117194691Y-85090235D01*
X117187115Y-85008464D01*
X117182558Y-84992450D01*
X117180652Y-84985749D01*
X117178877Y-84977334D01*
X117175619Y-84953974D01*
X117175618Y-84953973D01*
X117175618Y-84953967D01*
X117160083Y-84907618D01*
X117149541Y-84876164D01*
X117148693Y-84873427D01*
X117147233Y-84868297D01*
X117128422Y-84802181D01*
X117126230Y-84794475D01*
X117126229Y-84794474D01*
X117126229Y-84794472D01*
X117115700Y-84773328D01*
X117112417Y-84765402D01*
X117104914Y-84743015D01*
X117079129Y-84696722D01*
X117064974Y-84671307D01*
X117063649Y-84668795D01*
X117027058Y-84595311D01*
X117012826Y-84576465D01*
X117008138Y-84569269D01*
X117005378Y-84564314D01*
X116996652Y-84548646D01*
X116944191Y-84485470D01*
X116942454Y-84483278D01*
X116903453Y-84431631D01*
X116892981Y-84417763D01*
X116845709Y-84374670D01*
X116832316Y-84362460D01*
X116830253Y-84360490D01*
X115375508Y-82905745D01*
X115373530Y-82903673D01*
X115318236Y-82843018D01*
X115318233Y-82843016D01*
X115252742Y-82793560D01*
X115250496Y-82791782D01*
X115208415Y-82756838D01*
X115187353Y-82739348D01*
X115166723Y-82727856D01*
X115159531Y-82723170D01*
X115140692Y-82708944D01*
X115140690Y-82708943D01*
X115140689Y-82708942D01*
X115139538Y-82708369D01*
X115067224Y-82672360D01*
X115064690Y-82671024D01*
X114992989Y-82631086D01*
X114992987Y-82631085D01*
X114970595Y-82623580D01*
X114962663Y-82620295D01*
X114948385Y-82613185D01*
X114941529Y-82609771D01*
X114862580Y-82587308D01*
X114859841Y-82586460D01*
X114837848Y-82579087D01*
X114780540Y-82539117D01*
X114753940Y-82474509D01*
X114766493Y-82405776D01*
X114796723Y-82367231D01*
X114841224Y-82329224D01*
X115004836Y-82137659D01*
X115136466Y-81922859D01*
X115232873Y-81690111D01*
X115291683Y-81445148D01*
X115311449Y-81194000D01*
X115291683Y-80942852D01*
X115232873Y-80697889D01*
X115203789Y-80627673D01*
X115136466Y-80465140D01*
X115004839Y-80250346D01*
X115004838Y-80250343D01*
X114875428Y-80098824D01*
X114841224Y-80058776D01*
X114673033Y-79915127D01*
X114649656Y-79895161D01*
X114649653Y-79895160D01*
X114434859Y-79763533D01*
X114202110Y-79667126D01*
X113957151Y-79608317D01*
X113706000Y-79588551D01*
X113454848Y-79608317D01*
X113209889Y-79667126D01*
X112977140Y-79763533D01*
X112762346Y-79895160D01*
X112762343Y-79895161D01*
X112570776Y-80058776D01*
X112407161Y-80250343D01*
X112407160Y-80250346D01*
X112275533Y-80465140D01*
X112179126Y-80697889D01*
X112120317Y-80942848D01*
X112100551Y-81194000D01*
X112120317Y-81445151D01*
X112179126Y-81690110D01*
X112275533Y-81922859D01*
X112407160Y-82137653D01*
X112407161Y-82137656D01*
X112462604Y-82202571D01*
X112570776Y-82329224D01*
X112616418Y-82368206D01*
X112618179Y-82369710D01*
X112656372Y-82428217D01*
X112656870Y-82498085D01*
X112619516Y-82557131D01*
X112618179Y-82558290D01*
X112570776Y-82598776D01*
X112407161Y-82790343D01*
X112407160Y-82790346D01*
X112275533Y-83005140D01*
X112179126Y-83237889D01*
X112120317Y-83482848D01*
X112100551Y-83734000D01*
X112120317Y-83985151D01*
X112179126Y-84230110D01*
X112275533Y-84462859D01*
X112407160Y-84677653D01*
X112407161Y-84677656D01*
X112436304Y-84711778D01*
X112570558Y-84868969D01*
X112599129Y-84932730D01*
X112588692Y-85001815D01*
X112542561Y-85054291D01*
X112476268Y-85073500D01*
X111928625Y-85073500D01*
X111861586Y-85053815D01*
X111840944Y-85037181D01*
X106963910Y-80160147D01*
X106930425Y-80098824D01*
X106927973Y-80082194D01*
X106919683Y-79976854D01*
X106900071Y-79895164D01*
X106860873Y-79731889D01*
X106834048Y-79667127D01*
X106764466Y-79499140D01*
X106632839Y-79284346D01*
X106632838Y-79284343D01*
X106595875Y-79241066D01*
X106469224Y-79092776D01*
X106342571Y-78984604D01*
X106277656Y-78929161D01*
X106277653Y-78929160D01*
X106062859Y-78797533D01*
X105830110Y-78701126D01*
X105585151Y-78642317D01*
X105334000Y-78622551D01*
X105082848Y-78642317D01*
X104837889Y-78701126D01*
X104605140Y-78797533D01*
X104390346Y-78929160D01*
X104390344Y-78929161D01*
X104254871Y-79044866D01*
X104191110Y-79073436D01*
X104122024Y-79062999D01*
X104069548Y-79016868D01*
X104050340Y-78950575D01*
X104050340Y-76964000D01*
X110062564Y-76964000D01*
X110069690Y-77072731D01*
X110082287Y-77264918D01*
X110082288Y-77264930D01*
X110141118Y-77560683D01*
X110141122Y-77560698D01*
X110238053Y-77846247D01*
X110238062Y-77846268D01*
X110371431Y-78116713D01*
X110371435Y-78116720D01*
X110538973Y-78367459D01*
X110737810Y-78594189D01*
X110964540Y-78793026D01*
X111215279Y-78960564D01*
X111215286Y-78960568D01*
X111485731Y-79093937D01*
X111485736Y-79093939D01*
X111485748Y-79093945D01*
X111771309Y-79190880D01*
X111971251Y-79230651D01*
X112067069Y-79249711D01*
X112067070Y-79249711D01*
X112067080Y-79249713D01*
X112368000Y-79269436D01*
X112668920Y-79249713D01*
X112964691Y-79190880D01*
X113250252Y-79093945D01*
X113520718Y-78960566D01*
X113771461Y-78793025D01*
X113998189Y-78594189D01*
X114197025Y-78367461D01*
X114364566Y-78116718D01*
X114497945Y-77846252D01*
X114594880Y-77560691D01*
X114653713Y-77264920D01*
X114673436Y-76964000D01*
X132062564Y-76964000D01*
X132069690Y-77072731D01*
X132082287Y-77264918D01*
X132082288Y-77264930D01*
X132141118Y-77560683D01*
X132141122Y-77560698D01*
X132238053Y-77846247D01*
X132238062Y-77846268D01*
X132371431Y-78116713D01*
X132371435Y-78116720D01*
X132538973Y-78367459D01*
X132737810Y-78594189D01*
X132964540Y-78793026D01*
X133215279Y-78960564D01*
X133215286Y-78960568D01*
X133485731Y-79093937D01*
X133485736Y-79093939D01*
X133485748Y-79093945D01*
X133771309Y-79190880D01*
X133971251Y-79230651D01*
X134067069Y-79249711D01*
X134067070Y-79249711D01*
X134067080Y-79249713D01*
X134368000Y-79269436D01*
X134668920Y-79249713D01*
X134964691Y-79190880D01*
X135250252Y-79093945D01*
X135520718Y-78960566D01*
X135771461Y-78793025D01*
X135998189Y-78594189D01*
X136197025Y-78367461D01*
X136364566Y-78116718D01*
X136497945Y-77846252D01*
X136594880Y-77560691D01*
X136653713Y-77264920D01*
X136673436Y-76964000D01*
X136653713Y-76663080D01*
X136641794Y-76603162D01*
X136615612Y-76471534D01*
X136594880Y-76367309D01*
X136497945Y-76081748D01*
X136364566Y-75811282D01*
X136197025Y-75560539D01*
X135998189Y-75333810D01*
X135771459Y-75134973D01*
X135520720Y-74967435D01*
X135520713Y-74967431D01*
X135250268Y-74834062D01*
X135250247Y-74834053D01*
X134964698Y-74737122D01*
X134964692Y-74737120D01*
X134964691Y-74737120D01*
X134964689Y-74737119D01*
X134964683Y-74737118D01*
X134668930Y-74678288D01*
X134668921Y-74678287D01*
X134668920Y-74678287D01*
X134368000Y-74658564D01*
X134067080Y-74678287D01*
X134067079Y-74678287D01*
X134067069Y-74678288D01*
X133771316Y-74737118D01*
X133771301Y-74737122D01*
X133485752Y-74834053D01*
X133485731Y-74834062D01*
X133215286Y-74967431D01*
X133215279Y-74967435D01*
X132964540Y-75134973D01*
X132737810Y-75333810D01*
X132538973Y-75560540D01*
X132371435Y-75811279D01*
X132371431Y-75811286D01*
X132238062Y-76081731D01*
X132238053Y-76081752D01*
X132141122Y-76367301D01*
X132141118Y-76367316D01*
X132082288Y-76663069D01*
X132082287Y-76663079D01*
X132082287Y-76663080D01*
X132062564Y-76964000D01*
X114673436Y-76964000D01*
X114653713Y-76663080D01*
X114641794Y-76603162D01*
X114615612Y-76471534D01*
X114594880Y-76367309D01*
X114497945Y-76081748D01*
X114364566Y-75811282D01*
X114197025Y-75560539D01*
X113998189Y-75333810D01*
X113771459Y-75134973D01*
X113520720Y-74967435D01*
X113520713Y-74967431D01*
X113250268Y-74834062D01*
X113250247Y-74834053D01*
X112964698Y-74737122D01*
X112964692Y-74737120D01*
X112964691Y-74737120D01*
X112964689Y-74737119D01*
X112964683Y-74737118D01*
X112668930Y-74678288D01*
X112668921Y-74678287D01*
X112668920Y-74678287D01*
X112368000Y-74658564D01*
X112067080Y-74678287D01*
X112067079Y-74678287D01*
X112067069Y-74678288D01*
X111771316Y-74737118D01*
X111771301Y-74737122D01*
X111485752Y-74834053D01*
X111485731Y-74834062D01*
X111215286Y-74967431D01*
X111215279Y-74967435D01*
X110964540Y-75134973D01*
X110737810Y-75333810D01*
X110538973Y-75560540D01*
X110371435Y-75811279D01*
X110371431Y-75811286D01*
X110238062Y-76081731D01*
X110238053Y-76081752D01*
X110141122Y-76367301D01*
X110141118Y-76367316D01*
X110082288Y-76663069D01*
X110082287Y-76663079D01*
X110082287Y-76663080D01*
X110062564Y-76964000D01*
X104050340Y-76964000D01*
X104050340Y-54964000D01*
X110062564Y-54964000D01*
X110080021Y-55230354D01*
X110082287Y-55264918D01*
X110082288Y-55264930D01*
X110141118Y-55560683D01*
X110141122Y-55560698D01*
X110238053Y-55846247D01*
X110238062Y-55846268D01*
X110371431Y-56116713D01*
X110371435Y-56116720D01*
X110538973Y-56367459D01*
X110737810Y-56594189D01*
X110964540Y-56793026D01*
X111215279Y-56960564D01*
X111215286Y-56960568D01*
X111485731Y-57093937D01*
X111485736Y-57093939D01*
X111485748Y-57093945D01*
X111771309Y-57190880D01*
X111950789Y-57226581D01*
X112067069Y-57249711D01*
X112067070Y-57249711D01*
X112067080Y-57249713D01*
X112368000Y-57269436D01*
X112668920Y-57249713D01*
X112964691Y-57190880D01*
X113250252Y-57093945D01*
X113520718Y-56960566D01*
X113771461Y-56793025D01*
X113998189Y-56594189D01*
X114197025Y-56367461D01*
X114364566Y-56116718D01*
X114497945Y-55846252D01*
X114594880Y-55560691D01*
X114653713Y-55264920D01*
X114673436Y-54964000D01*
X114653713Y-54663080D01*
X114594880Y-54367309D01*
X114497945Y-54081748D01*
X114463503Y-54011907D01*
X114364568Y-53811286D01*
X114364564Y-53811279D01*
X114197026Y-53560540D01*
X113998189Y-53333810D01*
X113771459Y-53134973D01*
X113520720Y-52967435D01*
X113520713Y-52967431D01*
X113250268Y-52834062D01*
X113250247Y-52834053D01*
X112964698Y-52737122D01*
X112964692Y-52737120D01*
X112964691Y-52737120D01*
X112964689Y-52737119D01*
X112964683Y-52737118D01*
X112668930Y-52678288D01*
X112668921Y-52678287D01*
X112668920Y-52678287D01*
X112368000Y-52658564D01*
X112067080Y-52678287D01*
X112067079Y-52678287D01*
X112067069Y-52678288D01*
X111771316Y-52737118D01*
X111771301Y-52737122D01*
X111485752Y-52834053D01*
X111485731Y-52834062D01*
X111215286Y-52967431D01*
X111215279Y-52967435D01*
X110964540Y-53134973D01*
X110737810Y-53333810D01*
X110538973Y-53560540D01*
X110371435Y-53811279D01*
X110371431Y-53811286D01*
X110238062Y-54081731D01*
X110238053Y-54081752D01*
X110141122Y-54367301D01*
X110141118Y-54367316D01*
X110082288Y-54663069D01*
X110082287Y-54663079D01*
X110082287Y-54663080D01*
X110062564Y-54964000D01*
X104050340Y-54964000D01*
X104050340Y-46859500D01*
X104070025Y-46792461D01*
X104122829Y-46746706D01*
X104174340Y-46735500D01*
X163417365Y-46735500D01*
X163484404Y-46755185D01*
G37*
%TD.AperFunction*%
%TA.AperFunction,Conductor*%
G36*
X112613029Y-89985311D02*
G01*
X112762341Y-90112836D01*
X112762343Y-90112837D01*
X112762344Y-90112838D01*
X112762346Y-90112839D01*
X112977140Y-90244466D01*
X113131033Y-90308210D01*
X113209889Y-90340873D01*
X113454852Y-90399683D01*
X113706000Y-90419449D01*
X113957148Y-90399683D01*
X114202111Y-90340873D01*
X114434859Y-90244466D01*
X114649659Y-90112836D01*
X114649669Y-90112826D01*
X114653595Y-90109976D01*
X114654556Y-90111298D01*
X114711782Y-90085636D01*
X114780871Y-90096051D01*
X114833361Y-90142165D01*
X114846160Y-90169079D01*
X114854468Y-90193867D01*
X114855306Y-90196573D01*
X114876702Y-90271773D01*
X114877771Y-90275528D01*
X114888295Y-90296663D01*
X114891580Y-90304595D01*
X114899085Y-90326987D01*
X114899086Y-90326989D01*
X114939024Y-90398690D01*
X114940360Y-90401224D01*
X114976937Y-90474679D01*
X114976944Y-90474692D01*
X114991170Y-90493531D01*
X114995856Y-90500723D01*
X115007348Y-90521353D01*
X115045030Y-90566731D01*
X115059782Y-90584496D01*
X115061560Y-90586742D01*
X115111016Y-90652233D01*
X115111018Y-90652236D01*
X115171673Y-90707530D01*
X115173745Y-90709508D01*
X120942490Y-96478253D01*
X120944468Y-96480324D01*
X120999762Y-96540980D01*
X121065249Y-96590433D01*
X121067494Y-96592212D01*
X121130646Y-96644653D01*
X121151272Y-96656141D01*
X121158477Y-96660835D01*
X121177309Y-96675057D01*
X121177320Y-96675063D01*
X121209684Y-96691178D01*
X121250781Y-96711642D01*
X121253261Y-96712948D01*
X121325015Y-96752915D01*
X121325019Y-96752916D01*
X121325020Y-96752917D01*
X121332908Y-96755560D01*
X121347408Y-96760420D01*
X121355339Y-96763705D01*
X121376472Y-96774229D01*
X121455446Y-96796699D01*
X121458135Y-96797532D01*
X121535968Y-96823619D01*
X121559362Y-96826882D01*
X121567749Y-96828652D01*
X121590464Y-96835115D01*
X121672228Y-96842690D01*
X121674994Y-96843011D01*
X121756319Y-96854356D01*
X121832272Y-96850844D01*
X121838301Y-96850566D01*
X121841164Y-96850500D01*
X124932837Y-96850500D01*
X124935700Y-96850566D01*
X124946884Y-96851082D01*
X125017681Y-96854356D01*
X125099002Y-96843011D01*
X125101758Y-96842692D01*
X125183536Y-96835115D01*
X125206259Y-96828648D01*
X125214644Y-96826879D01*
X125238033Y-96823618D01*
X125315880Y-96797525D01*
X125318530Y-96796705D01*
X125397528Y-96774229D01*
X125398095Y-96773946D01*
X125418658Y-96763707D01*
X125426601Y-96760416D01*
X125448985Y-96752915D01*
X125520705Y-96712965D01*
X125523209Y-96711646D01*
X125529784Y-96708372D01*
X125596689Y-96675058D01*
X125615539Y-96660822D01*
X125622710Y-96656149D01*
X125643353Y-96644652D01*
X125706529Y-96592189D01*
X125708722Y-96590452D01*
X125774236Y-96540981D01*
X125829550Y-96480303D01*
X125831497Y-96478264D01*
X126149568Y-96160193D01*
X126210889Y-96126710D01*
X126280581Y-96131694D01*
X126336514Y-96173566D01*
X126360931Y-96239030D01*
X126354289Y-96288830D01*
X126304632Y-96430742D01*
X126304630Y-96430750D01*
X126289500Y-96565039D01*
X126289500Y-98200500D01*
X126269815Y-98267539D01*
X126217011Y-98313294D01*
X126165500Y-98324500D01*
X113027625Y-98324500D01*
X112960586Y-98304815D01*
X112939944Y-98288181D01*
X112444819Y-97793056D01*
X112411334Y-97731733D01*
X112408500Y-97705375D01*
X112408500Y-94906219D01*
X112428185Y-94839180D01*
X112480989Y-94793425D01*
X112550147Y-94783481D01*
X112584905Y-94793837D01*
X112761673Y-94876266D01*
X112761682Y-94876269D01*
X112957999Y-94928872D01*
X112958000Y-94928871D01*
X112958000Y-93965686D01*
X112969955Y-93977641D01*
X113082852Y-94035165D01*
X113176519Y-94050000D01*
X113239481Y-94050000D01*
X113333148Y-94035165D01*
X113446045Y-93977641D01*
X113458000Y-93965686D01*
X113458000Y-94928872D01*
X113654317Y-94876269D01*
X113654326Y-94876265D01*
X113860482Y-94780134D01*
X114046820Y-94649657D01*
X114207657Y-94488820D01*
X114338134Y-94302482D01*
X114434265Y-94096326D01*
X114434269Y-94096317D01*
X114486872Y-93900000D01*
X113523686Y-93900000D01*
X113535641Y-93888045D01*
X113593165Y-93775148D01*
X113612986Y-93650000D01*
X113593165Y-93524852D01*
X113535641Y-93411955D01*
X113523686Y-93400000D01*
X114486872Y-93400000D01*
X114486872Y-93399999D01*
X114434269Y-93203682D01*
X114434265Y-93203673D01*
X114338134Y-92997517D01*
X114207657Y-92811179D01*
X114046820Y-92650342D01*
X113860482Y-92519865D01*
X113654328Y-92423734D01*
X113458000Y-92371127D01*
X113458000Y-93334314D01*
X113446045Y-93322359D01*
X113333148Y-93264835D01*
X113239481Y-93250000D01*
X113176519Y-93250000D01*
X113082852Y-93264835D01*
X112969955Y-93322359D01*
X112958000Y-93334314D01*
X112958000Y-92371127D01*
X112761669Y-92423735D01*
X112584904Y-92506162D01*
X112515827Y-92516654D01*
X112452043Y-92488134D01*
X112413804Y-92429657D01*
X112408500Y-92393780D01*
X112408500Y-90079603D01*
X112428185Y-90012564D01*
X112480989Y-89966809D01*
X112550147Y-89956865D01*
X112613029Y-89985311D01*
G37*
%TD.AperFunction*%
%TA.AperFunction,Conductor*%
G36*
X142720507Y-97250156D02*
G01*
X142680000Y-97388111D01*
X142680000Y-97531889D01*
X142720507Y-97669844D01*
X142746314Y-97710000D01*
X141073686Y-97710000D01*
X141099493Y-97669844D01*
X141140000Y-97531889D01*
X141140000Y-97388111D01*
X141099493Y-97250156D01*
X141073686Y-97210000D01*
X142746314Y-97210000D01*
X142720507Y-97250156D01*
G37*
%TD.AperFunction*%
%TA.AperFunction,Conductor*%
G36*
X157146000Y-83878257D02*
G01*
X157257410Y-83851229D01*
X157260970Y-83849604D01*
X157262918Y-83849323D01*
X157262993Y-83849298D01*
X157262997Y-83849312D01*
X157330128Y-83839656D01*
X157393686Y-83868677D01*
X157416298Y-83894574D01*
X157503349Y-84027817D01*
X157503352Y-84027821D01*
X157503354Y-84027823D01*
X157660549Y-84198583D01*
X157660552Y-84198585D01*
X157660555Y-84198588D01*
X157843698Y-84341134D01*
X157843704Y-84341138D01*
X157843707Y-84341140D01*
X157985294Y-84417763D01*
X158047828Y-84451605D01*
X158047840Y-84451610D01*
X158184360Y-84498477D01*
X158241376Y-84538862D01*
X158267507Y-84603661D01*
X158267627Y-84619542D01*
X158267785Y-84619542D01*
X158267785Y-84624676D01*
X158286949Y-84855967D01*
X158286951Y-84855978D01*
X158343927Y-85080970D01*
X158437160Y-85293518D01*
X158545391Y-85459179D01*
X158565579Y-85526068D01*
X158546398Y-85593254D01*
X158545391Y-85594821D01*
X158437160Y-85760481D01*
X158343927Y-85973029D01*
X158286951Y-86198021D01*
X158286949Y-86198032D01*
X158267785Y-86429323D01*
X158267785Y-86434458D01*
X158266350Y-86434458D01*
X158253586Y-86496451D01*
X158204735Y-86546404D01*
X158184361Y-86555522D01*
X158047837Y-86602391D01*
X158047828Y-86602394D01*
X157843704Y-86712861D01*
X157843698Y-86712865D01*
X157660555Y-86855411D01*
X157660552Y-86855414D01*
X157660549Y-86855416D01*
X157660549Y-86855417D01*
X157503354Y-87026177D01*
X157486740Y-87051607D01*
X157476843Y-87066755D01*
X157423696Y-87112111D01*
X157354464Y-87121533D01*
X157332773Y-87116213D01*
X157240986Y-87084702D01*
X157050204Y-87052867D01*
X157012049Y-87046500D01*
X156779951Y-87046500D01*
X156724525Y-87055749D01*
X156551018Y-87084702D01*
X156459225Y-87116213D01*
X156389426Y-87119361D01*
X156329005Y-87084274D01*
X156315155Y-87066752D01*
X156288647Y-87026179D01*
X156288646Y-87026177D01*
X156131451Y-86855417D01*
X156131446Y-86855413D01*
X156131444Y-86855411D01*
X155948301Y-86712865D01*
X155948295Y-86712861D01*
X155744171Y-86602394D01*
X155744162Y-86602391D01*
X155607638Y-86555522D01*
X155550623Y-86515137D01*
X155524492Y-86450337D01*
X155524374Y-86434459D01*
X155524215Y-86434459D01*
X155524215Y-86429337D01*
X155524214Y-86429333D01*
X155524215Y-86429330D01*
X155505049Y-86198025D01*
X155491701Y-86145314D01*
X155448072Y-85973029D01*
X155354839Y-85760481D01*
X155227898Y-85566182D01*
X155227895Y-85566179D01*
X155227894Y-85566177D01*
X155070699Y-85395417D01*
X155070694Y-85395413D01*
X155070691Y-85395410D01*
X155069246Y-85394285D01*
X155068808Y-85393676D01*
X155066923Y-85391941D01*
X155067280Y-85391552D01*
X155028439Y-85337570D01*
X155024773Y-85267797D01*
X155046467Y-85221711D01*
X155058160Y-85206227D01*
X155149024Y-85023748D01*
X155149029Y-85023735D01*
X155191443Y-84874670D01*
X154364496Y-84874670D01*
X154415975Y-84818749D01*
X154462897Y-84711778D01*
X154472543Y-84595368D01*
X154443868Y-84482132D01*
X154379979Y-84384343D01*
X154367551Y-84374670D01*
X154441597Y-84374670D01*
X154500614Y-84389615D01*
X154576332Y-84430591D01*
X154615164Y-84451606D01*
X154729154Y-84490738D01*
X154834682Y-84526967D01*
X154834684Y-84526967D01*
X154834686Y-84526968D01*
X155063618Y-84565170D01*
X155063619Y-84565170D01*
X155295715Y-84565170D01*
X155295716Y-84565170D01*
X155524648Y-84526968D01*
X155744170Y-84451606D01*
X155948293Y-84341140D01*
X155950646Y-84339309D01*
X156066485Y-84249148D01*
X156131451Y-84198583D01*
X156288646Y-84027823D01*
X156377996Y-83891061D01*
X156431142Y-83845705D01*
X156500373Y-83836281D01*
X156522362Y-83841703D01*
X156635487Y-83880856D01*
X156646000Y-83882367D01*
X156646000Y-82855938D01*
X156727115Y-82919072D01*
X156837595Y-82957000D01*
X156925005Y-82957000D01*
X157011216Y-82942614D01*
X157113947Y-82887019D01*
X157146000Y-82852200D01*
X157146000Y-83878257D01*
G37*
%TD.AperFunction*%
%TD*%
M02*
