%TF.GenerationSoftware,KiCad,Pcbnew,7.0.8*%
%TF.CreationDate,2025-01-06T14:28:22+01:00*%
%TF.ProjectId,Arduino_UNO,41726475-696e-46f5-9f55-4e4f2e6b6963,rev?*%
%TF.SameCoordinates,Original*%
%TF.FileFunction,Legend,Bot*%
%TF.FilePolarity,Positive*%
%FSLAX46Y46*%
G04 Gerber Fmt 4.6, Leading zero omitted, Abs format (unit mm)*
G04 Created by KiCad (PCBNEW 7.0.8) date 2025-01-06 14:28:22*
%MOMM*%
%LPD*%
G01*
G04 APERTURE LIST*
%ADD10C,0.150000*%
%ADD11C,0.127000*%
%ADD12C,0.200000*%
%ADD13C,0.120000*%
G04 APERTURE END LIST*
D10*
X124461904Y-65086819D02*
X124461904Y-65896342D01*
X124461904Y-65896342D02*
X124414285Y-65991580D01*
X124414285Y-65991580D02*
X124366666Y-66039200D01*
X124366666Y-66039200D02*
X124271428Y-66086819D01*
X124271428Y-66086819D02*
X124080952Y-66086819D01*
X124080952Y-66086819D02*
X123985714Y-66039200D01*
X123985714Y-66039200D02*
X123938095Y-65991580D01*
X123938095Y-65991580D02*
X123890476Y-65896342D01*
X123890476Y-65896342D02*
X123890476Y-65086819D01*
X123461904Y-65182057D02*
X123414285Y-65134438D01*
X123414285Y-65134438D02*
X123319047Y-65086819D01*
X123319047Y-65086819D02*
X123080952Y-65086819D01*
X123080952Y-65086819D02*
X122985714Y-65134438D01*
X122985714Y-65134438D02*
X122938095Y-65182057D01*
X122938095Y-65182057D02*
X122890476Y-65277295D01*
X122890476Y-65277295D02*
X122890476Y-65372533D01*
X122890476Y-65372533D02*
X122938095Y-65515390D01*
X122938095Y-65515390D02*
X123509523Y-66086819D01*
X123509523Y-66086819D02*
X122890476Y-66086819D01*
X143005333Y-51726819D02*
X143005333Y-52441104D01*
X143005333Y-52441104D02*
X143052952Y-52583961D01*
X143052952Y-52583961D02*
X143148190Y-52679200D01*
X143148190Y-52679200D02*
X143291047Y-52726819D01*
X143291047Y-52726819D02*
X143386285Y-52726819D01*
X142052952Y-51726819D02*
X142529142Y-51726819D01*
X142529142Y-51726819D02*
X142576761Y-52203009D01*
X142576761Y-52203009D02*
X142529142Y-52155390D01*
X142529142Y-52155390D02*
X142433904Y-52107771D01*
X142433904Y-52107771D02*
X142195809Y-52107771D01*
X142195809Y-52107771D02*
X142100571Y-52155390D01*
X142100571Y-52155390D02*
X142052952Y-52203009D01*
X142052952Y-52203009D02*
X142005333Y-52298247D01*
X142005333Y-52298247D02*
X142005333Y-52536342D01*
X142005333Y-52536342D02*
X142052952Y-52631580D01*
X142052952Y-52631580D02*
X142100571Y-52679200D01*
X142100571Y-52679200D02*
X142195809Y-52726819D01*
X142195809Y-52726819D02*
X142433904Y-52726819D01*
X142433904Y-52726819D02*
X142529142Y-52679200D01*
X142529142Y-52679200D02*
X142576761Y-52631580D01*
D11*
%TO.C,U2*%
X136368000Y-78964000D02*
X136368000Y-52964000D01*
X136368000Y-52964000D02*
X110368000Y-52964000D01*
X130368000Y-78964000D02*
X136368000Y-78964000D01*
X130368000Y-76964000D02*
X130368000Y-78964000D01*
X116368000Y-78964000D02*
X116368000Y-76964000D01*
X116368000Y-76964000D02*
X130368000Y-76964000D01*
X110368000Y-78964000D02*
X116368000Y-78964000D01*
X110368000Y-52964000D02*
X110368000Y-78964000D01*
D12*
X127468000Y-52464000D02*
G75*
G03*
X127468000Y-52464000I-100000J0D01*
G01*
D13*
%TO.C,J5*%
X144002000Y-74152000D02*
X141342000Y-74152000D01*
X144002000Y-56312000D02*
X144002000Y-74152000D01*
X144002000Y-56312000D02*
X141342000Y-56312000D01*
X142672000Y-53712000D02*
X141342000Y-53712000D01*
X141342000Y-56312000D02*
X141342000Y-74152000D01*
X141342000Y-53712000D02*
X141342000Y-55042000D01*
%TD*%
M02*
