%TF.GenerationSoftware,KiCad,Pcbnew,7.0.8*%
%TF.CreationDate,2025-01-06T14:28:21+01:00*%
%TF.ProjectId,Arduino_UNO,41726475-696e-46f5-9f55-4e4f2e6b6963,rev?*%
%TF.SameCoordinates,Original*%
%TF.FileFunction,Copper,L1,Top*%
%TF.FilePolarity,Positive*%
%FSLAX46Y46*%
G04 Gerber Fmt 4.6, Leading zero omitted, Abs format (unit mm)*
G04 Created by KiCad (PCBNEW 7.0.8) date 2025-01-06 14:28:21*
%MOMM*%
%LPD*%
G01*
G04 APERTURE LIST*
%TA.AperFunction,ComponentPad*%
%ADD10R,1.700000X1.700000*%
%TD*%
%TA.AperFunction,ComponentPad*%
%ADD11O,1.700000X1.700000*%
%TD*%
%TA.AperFunction,ComponentPad*%
%ADD12C,1.600000*%
%TD*%
%TA.AperFunction,ComponentPad*%
%ADD13O,1.600000X1.600000*%
%TD*%
%TA.AperFunction,ComponentPad*%
%ADD14R,1.600000X1.600000*%
%TD*%
%TA.AperFunction,ComponentPad*%
%ADD15C,1.800000*%
%TD*%
%TA.AperFunction,ComponentPad*%
%ADD16R,1.800000X1.800000*%
%TD*%
%TA.AperFunction,ComponentPad*%
%ADD17O,1.200000X1.600000*%
%TD*%
%TA.AperFunction,ComponentPad*%
%ADD18O,1.200000X1.200000*%
%TD*%
%TA.AperFunction,ComponentPad*%
%ADD19R,1.508000X1.508000*%
%TD*%
%TA.AperFunction,ComponentPad*%
%ADD20C,1.508000*%
%TD*%
%TA.AperFunction,ComponentPad*%
%ADD21C,3.000000*%
%TD*%
%TA.AperFunction,Conductor*%
%ADD22C,0.800000*%
%TD*%
G04 APERTURE END LIST*
D10*
%TO.P,J1,1,Pin_1*%
%TO.N,unconnected-(J1-Pin_1-Pad1)*%
X127940000Y-97460000D03*
D11*
%TO.P,J1,2,Pin_2*%
%TO.N,unconnected-(J1-Pin_2-Pad2)*%
X130480000Y-97460000D03*
%TO.P,J1,3,Pin_3*%
%TO.N,unconnected-(J1-Pin_3-Pad3)*%
X133020000Y-97460000D03*
%TO.P,J1,4,Pin_4*%
%TO.N,+3V3*%
X135560000Y-97460000D03*
%TO.P,J1,5,Pin_5*%
%TO.N,+5V*%
X138100000Y-97460000D03*
%TO.P,J1,6,Pin_6*%
%TO.N,GND*%
X140640000Y-97460000D03*
%TO.P,J1,7,Pin_7*%
X143180000Y-97460000D03*
%TO.P,J1,8,Pin_8*%
%TO.N,VCC*%
X145720000Y-97460000D03*
%TD*%
D10*
%TO.P,J3,1,Pin_1*%
%TO.N,ADC1*%
X150800000Y-97460000D03*
D11*
%TO.P,J3,2,Pin_2*%
%TO.N,ADC2*%
X153340000Y-97460000D03*
%TO.P,J3,3,Pin_3*%
%TO.N,unconnected-(J3-Pin_3-Pad3)*%
X155880000Y-97460000D03*
%TO.P,J3,4,Pin_4*%
%TO.N,unconnected-(J3-Pin_4-Pad4)*%
X158420000Y-97460000D03*
%TO.P,J3,5,Pin_5*%
%TO.N,OLED_SDA*%
X160960000Y-97460000D03*
%TO.P,J3,6,Pin_6*%
%TO.N,OLED_SCL*%
X163500000Y-97460000D03*
%TD*%
D10*
%TO.P,J2,1,Pin_1*%
%TO.N,OLED_SCL*%
X118796000Y-49200000D03*
D11*
%TO.P,J2,2,Pin_2*%
%TO.N,OLED_SDA*%
X121336000Y-49200000D03*
%TO.P,J2,3,Pin_3*%
%TO.N,unconnected-(J2-Pin_3-Pad3)*%
X123876000Y-49200000D03*
%TO.P,J2,4,Pin_4*%
%TO.N,GND*%
X126416000Y-49200000D03*
%TO.P,J2,5,Pin_5*%
%TO.N,unconnected-(J2-Pin_5-Pad5)*%
X128956000Y-49200000D03*
%TO.P,J2,6,Pin_6*%
%TO.N,unconnected-(J2-Pin_6-Pad6)*%
X131496000Y-49200000D03*
%TO.P,J2,7,Pin_7*%
%TO.N,Rx_LoRa*%
X134036000Y-49200000D03*
%TO.P,J2,8,Pin_8*%
%TO.N,Tx_LoRa*%
X136576000Y-49200000D03*
%TO.P,J2,9,Pin_9*%
%TO.N,unconnected-(J2-Pin_9-Pad9)*%
X139116000Y-49200000D03*
%TO.P,J2,10,Pin_10*%
%TO.N,unconnected-(J2-Pin_10-Pad10)*%
X141656000Y-49200000D03*
%TD*%
D10*
%TO.P,J4,1,Pin_1*%
%TO.N,RST*%
X145720000Y-49200000D03*
D11*
%TO.P,J4,2,Pin_2*%
%TO.N,LED_R*%
X148260000Y-49200000D03*
%TO.P,J4,3,Pin_3*%
%TO.N,LED_J*%
X150800000Y-49200000D03*
%TO.P,J4,4,Pin_4*%
%TO.N,LED_V*%
X153340000Y-49200000D03*
%TO.P,J4,5,Pin_5*%
%TO.N,unconnected-(J4-Pin_5-Pad5)*%
X155880000Y-49200000D03*
%TO.P,J4,6,Pin_6*%
%TO.N,unconnected-(J4-Pin_6-Pad6)*%
X158420000Y-49200000D03*
%TO.P,J4,7,Pin_7*%
%TO.N,unconnected-(J4-Pin_7-Pad7)*%
X160960000Y-49200000D03*
%TO.P,J4,8,Pin_8*%
%TO.N,unconnected-(J4-Pin_8-Pad8)*%
X163500000Y-49200000D03*
%TD*%
D12*
%TO.P,C2,1*%
%TO.N,ADC1*%
X139450000Y-93396000D03*
%TO.P,C2,2*%
%TO.N,GND*%
X144450000Y-93396000D03*
%TD*%
%TO.P,R2,1*%
%TO.N,Net-(U1--IN)*%
X123368000Y-93650000D03*
D13*
%TO.P,R2,2*%
%TO.N,GND*%
X113208000Y-93650000D03*
%TD*%
D12*
%TO.P,R7,1*%
%TO.N,Net-(U3-ResB)*%
X162992000Y-92888000D03*
D13*
%TO.P,R7,2*%
%TO.N,+12V*%
X152832000Y-92888000D03*
%TD*%
D12*
%TO.P,R3,1*%
%TO.N,Net-(U1--IN)*%
X128702000Y-89078000D03*
D13*
%TO.P,R3,2*%
%TO.N,Net-(U1-OUT)*%
X138862000Y-89078000D03*
%TD*%
D14*
%TO.P,U1,1,NC_2*%
%TO.N,unconnected-(U1-NC_2-Pad1)*%
X121326000Y-88814000D03*
D13*
%TO.P,U1,2,-IN*%
%TO.N,Net-(U1--IN)*%
X121326000Y-86274000D03*
%TO.P,U1,3,+IN*%
%TO.N,Net-(U1-+IN)*%
X121326000Y-83734000D03*
%TO.P,U1,4,V-*%
%TO.N,GND*%
X121326000Y-81194000D03*
%TO.P,U1,5,EXTCLOCKINPUT*%
%TO.N,unconnected-(U1-EXTCLOCKINPUT-Pad5)*%
X113706000Y-81194000D03*
%TO.P,U1,6,OUT*%
%TO.N,Net-(U1-OUT)*%
X113706000Y-83734000D03*
%TO.P,U1,7,V+*%
%TO.N,+5V*%
X113706000Y-86274000D03*
%TO.P,U1,8,NC*%
%TO.N,unconnected-(U1-NC-Pad8)*%
X113706000Y-88814000D03*
%TD*%
D12*
%TO.P,C4,1*%
%TO.N,Net-(U1--IN)*%
X127726000Y-83998000D03*
%TO.P,C4,2*%
%TO.N,Net-(U1-OUT)*%
X132726000Y-83998000D03*
%TD*%
D15*
%TO.P,D3,2,A*%
%TO.N,Net-(D3-A)*%
X147752000Y-67747000D03*
D16*
%TO.P,D3,1,K*%
%TO.N,GND*%
X147752000Y-70287000D03*
%TD*%
D12*
%TO.P,R1,1*%
%TO.N,Net-(U1-+IN)*%
X136068000Y-81458000D03*
D13*
%TO.P,R1,2*%
%TO.N,GND*%
X146228000Y-81458000D03*
%TD*%
D12*
%TO.P,R9,1*%
%TO.N,LED_J*%
X156718000Y-54026000D03*
D13*
%TO.P,R9,2*%
%TO.N,Net-(D2-A)*%
X156718000Y-64186000D03*
%TD*%
D16*
%TO.P,D1,1,K*%
%TO.N,GND*%
X159690000Y-70282000D03*
D15*
%TO.P,D1,2,A*%
%TO.N,Net-(D1-A)*%
X159690000Y-67742000D03*
%TD*%
D12*
%TO.P,C3,1*%
%TO.N,+5V*%
X105334000Y-80228000D03*
%TO.P,C3,2*%
%TO.N,GND*%
X105334000Y-85228000D03*
%TD*%
%TO.P,R10,1*%
%TO.N,LED_R*%
X151968000Y-54026000D03*
D13*
%TO.P,R10,2*%
%TO.N,Net-(D3-A)*%
X151968000Y-64186000D03*
%TD*%
D16*
%TO.P,D2,1,K*%
%TO.N,GND*%
X153594000Y-70287000D03*
D15*
%TO.P,D2,2,A*%
%TO.N,Net-(D2-A)*%
X153594000Y-67747000D03*
%TD*%
D12*
%TO.P,R5,1*%
%TO.N,Net-(U1-+IN)*%
X155118000Y-77902000D03*
D13*
%TO.P,R5,2*%
%TO.N,GAS1*%
X165278000Y-77902000D03*
%TD*%
D12*
%TO.P,R4,1*%
%TO.N,ADC2*%
X149276000Y-92634000D03*
D13*
%TO.P,R4,2*%
%TO.N,+5V*%
X149276000Y-82474000D03*
%TD*%
D12*
%TO.P,C1,1*%
%TO.N,Net-(U1-+IN)*%
X148514000Y-77862000D03*
%TO.P,C1,2*%
%TO.N,GND*%
X148514000Y-72862000D03*
%TD*%
%TO.P,R6,1*%
%TO.N,Net-(U1-OUT)*%
X126162000Y-93650000D03*
D13*
%TO.P,R6,2*%
%TO.N,ADC1*%
X136322000Y-93650000D03*
%TD*%
D12*
%TO.P,R8,1*%
%TO.N,LED_V*%
X161468000Y-54026000D03*
D13*
%TO.P,R8,2*%
%TO.N,Net-(D1-A)*%
X161468000Y-64186000D03*
%TD*%
D17*
%TO.P,U3,1,TempA*%
%TO.N,GND*%
X156896000Y-82607000D03*
D18*
%TO.P,U3,2,Gas1A*%
%TO.N,GAS1*%
X155179667Y-83164670D03*
%TO.P,U3,3,ResA*%
%TO.N,GND*%
X154118915Y-84624670D03*
%TO.P,U3,4,Gas1B*%
%TO.N,+5V*%
X154118915Y-86429330D03*
%TO.P,U3,5,NC*%
%TO.N,unconnected-(U3-NC-Pad5)*%
X155179667Y-87889330D03*
%TO.P,U3,6,TempB*%
%TO.N,ADC2*%
X156896000Y-88447000D03*
%TO.P,U3,7,Gas2A*%
%TO.N,unconnected-(U3-Gas2A-Pad7)*%
X158612333Y-87889330D03*
%TO.P,U3,8,ResB*%
%TO.N,Net-(U3-ResB)*%
X159673085Y-86429330D03*
%TO.P,U3,9,Gas2B*%
%TO.N,unconnected-(U3-Gas2B-Pad9)*%
X159673085Y-84624670D03*
%TO.P,U3,10,NC*%
%TO.N,unconnected-(U3-NC-Pad10)*%
X158612333Y-83164670D03*
%TD*%
D19*
%TO.P,U2,1,GND*%
%TO.N,GND*%
X127178000Y-54464000D03*
D20*
%TO.P,U2,2,VCC*%
%TO.N,+5V*%
X124638000Y-54464000D03*
%TO.P,U2,3,SCL*%
%TO.N,OLED_SCL*%
X122098000Y-54464000D03*
%TO.P,U2,4,SDA*%
%TO.N,OLED_SDA*%
X119558000Y-54464000D03*
D21*
%TO.P,U2,S1*%
%TO.N,N/C*%
X134368000Y-54964000D03*
%TO.P,U2,S2*%
X112368000Y-54964000D03*
%TO.P,U2,S3*%
X112368000Y-76964000D03*
%TO.P,U2,S4*%
X134368000Y-76964000D03*
%TD*%
D10*
%TO.P,J5,1,Pin_1*%
%TO.N,Tx_LoRa*%
X142672000Y-55042000D03*
D11*
%TO.P,J5,2,Pin_2*%
%TO.N,Rx_LoRa*%
X142672000Y-57582000D03*
%TO.P,J5,3,Pin_3*%
%TO.N,unconnected-(J5-Pin_3-Pad3)*%
X142672000Y-60122000D03*
%TO.P,J5,4,Pin_4*%
%TO.N,unconnected-(J5-Pin_4-Pad4)*%
X142672000Y-62662000D03*
%TO.P,J5,5,Pin_5*%
%TO.N,RST*%
X142672000Y-65202000D03*
%TO.P,J5,6,Pin_6*%
%TO.N,+3.3V*%
X142672000Y-67742000D03*
%TO.P,J5,7,Pin_7*%
%TO.N,unconnected-(J5-Pin_7-Pad7)*%
X142672000Y-70282000D03*
%TO.P,J5,8,Pin_8*%
%TO.N,GND*%
X142672000Y-72822000D03*
%TD*%
D22*
%TO.N,GND*%
X159690000Y-79172000D02*
X159690000Y-70282000D01*
X156896000Y-81966000D02*
X159690000Y-79172000D01*
X156896000Y-82607000D02*
X156896000Y-81966000D01*
%TO.N,OLED_SCL*%
X122098000Y-53264000D02*
X122098000Y-54464000D01*
X118796000Y-49962000D02*
X122098000Y-53264000D01*
X118796000Y-49200000D02*
X118796000Y-49962000D01*
%TO.N,+5V*%
X141910000Y-89840000D02*
X149276000Y-82474000D01*
X138880656Y-95396000D02*
X140672000Y-95396000D01*
X140672000Y-95396000D02*
X141910000Y-94158000D01*
X138100000Y-96176656D02*
X138880656Y-95396000D01*
X138100000Y-97460000D02*
X138100000Y-96176656D01*
X141910000Y-94158000D02*
X141910000Y-89840000D01*
X124638000Y-57328000D02*
X124638000Y-54464000D01*
X105334000Y-76632000D02*
X124638000Y-57328000D01*
X105334000Y-80228000D02*
X105334000Y-76632000D01*
%TD*%
M02*
