%TF.GenerationSoftware,KiCad,Pcbnew,7.0.8*%
%TF.CreationDate,2025-01-06T14:28:22+01:00*%
%TF.ProjectId,Arduino_UNO,41726475-696e-46f5-9f55-4e4f2e6b6963,rev?*%
%TF.SameCoordinates,Original*%
%TF.FileFunction,Legend,Top*%
%TF.FilePolarity,Positive*%
%FSLAX46Y46*%
G04 Gerber Fmt 4.6, Leading zero omitted, Abs format (unit mm)*
G04 Created by KiCad (PCBNEW 7.0.8) date 2025-01-06 14:28:22*
%MOMM*%
%LPD*%
G01*
G04 APERTURE LIST*
%ADD10C,0.150000*%
%ADD11C,0.120000*%
G04 APERTURE END LIST*
D10*
X141783333Y-90905580D02*
X141735714Y-90953200D01*
X141735714Y-90953200D02*
X141592857Y-91000819D01*
X141592857Y-91000819D02*
X141497619Y-91000819D01*
X141497619Y-91000819D02*
X141354762Y-90953200D01*
X141354762Y-90953200D02*
X141259524Y-90857961D01*
X141259524Y-90857961D02*
X141211905Y-90762723D01*
X141211905Y-90762723D02*
X141164286Y-90572247D01*
X141164286Y-90572247D02*
X141164286Y-90429390D01*
X141164286Y-90429390D02*
X141211905Y-90238914D01*
X141211905Y-90238914D02*
X141259524Y-90143676D01*
X141259524Y-90143676D02*
X141354762Y-90048438D01*
X141354762Y-90048438D02*
X141497619Y-90000819D01*
X141497619Y-90000819D02*
X141592857Y-90000819D01*
X141592857Y-90000819D02*
X141735714Y-90048438D01*
X141735714Y-90048438D02*
X141783333Y-90096057D01*
X142164286Y-90096057D02*
X142211905Y-90048438D01*
X142211905Y-90048438D02*
X142307143Y-90000819D01*
X142307143Y-90000819D02*
X142545238Y-90000819D01*
X142545238Y-90000819D02*
X142640476Y-90048438D01*
X142640476Y-90048438D02*
X142688095Y-90096057D01*
X142688095Y-90096057D02*
X142735714Y-90191295D01*
X142735714Y-90191295D02*
X142735714Y-90286533D01*
X142735714Y-90286533D02*
X142688095Y-90429390D01*
X142688095Y-90429390D02*
X142116667Y-91000819D01*
X142116667Y-91000819D02*
X142735714Y-91000819D01*
X118121333Y-96474819D02*
X117788000Y-95998628D01*
X117549905Y-96474819D02*
X117549905Y-95474819D01*
X117549905Y-95474819D02*
X117930857Y-95474819D01*
X117930857Y-95474819D02*
X118026095Y-95522438D01*
X118026095Y-95522438D02*
X118073714Y-95570057D01*
X118073714Y-95570057D02*
X118121333Y-95665295D01*
X118121333Y-95665295D02*
X118121333Y-95808152D01*
X118121333Y-95808152D02*
X118073714Y-95903390D01*
X118073714Y-95903390D02*
X118026095Y-95951009D01*
X118026095Y-95951009D02*
X117930857Y-95998628D01*
X117930857Y-95998628D02*
X117549905Y-95998628D01*
X118502286Y-95570057D02*
X118549905Y-95522438D01*
X118549905Y-95522438D02*
X118645143Y-95474819D01*
X118645143Y-95474819D02*
X118883238Y-95474819D01*
X118883238Y-95474819D02*
X118978476Y-95522438D01*
X118978476Y-95522438D02*
X119026095Y-95570057D01*
X119026095Y-95570057D02*
X119073714Y-95665295D01*
X119073714Y-95665295D02*
X119073714Y-95760533D01*
X119073714Y-95760533D02*
X119026095Y-95903390D01*
X119026095Y-95903390D02*
X118454667Y-96474819D01*
X118454667Y-96474819D02*
X119073714Y-96474819D01*
X157745333Y-95712819D02*
X157412000Y-95236628D01*
X157173905Y-95712819D02*
X157173905Y-94712819D01*
X157173905Y-94712819D02*
X157554857Y-94712819D01*
X157554857Y-94712819D02*
X157650095Y-94760438D01*
X157650095Y-94760438D02*
X157697714Y-94808057D01*
X157697714Y-94808057D02*
X157745333Y-94903295D01*
X157745333Y-94903295D02*
X157745333Y-95046152D01*
X157745333Y-95046152D02*
X157697714Y-95141390D01*
X157697714Y-95141390D02*
X157650095Y-95189009D01*
X157650095Y-95189009D02*
X157554857Y-95236628D01*
X157554857Y-95236628D02*
X157173905Y-95236628D01*
X158078667Y-94712819D02*
X158745333Y-94712819D01*
X158745333Y-94712819D02*
X158316762Y-95712819D01*
X126503333Y-91564819D02*
X126170000Y-91088628D01*
X125931905Y-91564819D02*
X125931905Y-90564819D01*
X125931905Y-90564819D02*
X126312857Y-90564819D01*
X126312857Y-90564819D02*
X126408095Y-90612438D01*
X126408095Y-90612438D02*
X126455714Y-90660057D01*
X126455714Y-90660057D02*
X126503333Y-90755295D01*
X126503333Y-90755295D02*
X126503333Y-90898152D01*
X126503333Y-90898152D02*
X126455714Y-90993390D01*
X126455714Y-90993390D02*
X126408095Y-91041009D01*
X126408095Y-91041009D02*
X126312857Y-91088628D01*
X126312857Y-91088628D02*
X125931905Y-91088628D01*
X126836667Y-90564819D02*
X127455714Y-90564819D01*
X127455714Y-90564819D02*
X127122381Y-90945771D01*
X127122381Y-90945771D02*
X127265238Y-90945771D01*
X127265238Y-90945771D02*
X127360476Y-90993390D01*
X127360476Y-90993390D02*
X127408095Y-91041009D01*
X127408095Y-91041009D02*
X127455714Y-91136247D01*
X127455714Y-91136247D02*
X127455714Y-91374342D01*
X127455714Y-91374342D02*
X127408095Y-91469580D01*
X127408095Y-91469580D02*
X127360476Y-91517200D01*
X127360476Y-91517200D02*
X127265238Y-91564819D01*
X127265238Y-91564819D02*
X126979524Y-91564819D01*
X126979524Y-91564819D02*
X126884286Y-91517200D01*
X126884286Y-91517200D02*
X126836667Y-91469580D01*
X116754095Y-90598819D02*
X116754095Y-91408342D01*
X116754095Y-91408342D02*
X116801714Y-91503580D01*
X116801714Y-91503580D02*
X116849333Y-91551200D01*
X116849333Y-91551200D02*
X116944571Y-91598819D01*
X116944571Y-91598819D02*
X117135047Y-91598819D01*
X117135047Y-91598819D02*
X117230285Y-91551200D01*
X117230285Y-91551200D02*
X117277904Y-91503580D01*
X117277904Y-91503580D02*
X117325523Y-91408342D01*
X117325523Y-91408342D02*
X117325523Y-90598819D01*
X118325523Y-91598819D02*
X117754095Y-91598819D01*
X118039809Y-91598819D02*
X118039809Y-90598819D01*
X118039809Y-90598819D02*
X117944571Y-90741676D01*
X117944571Y-90741676D02*
X117849333Y-90836914D01*
X117849333Y-90836914D02*
X117754095Y-90884533D01*
X130059333Y-79857580D02*
X130011714Y-79905200D01*
X130011714Y-79905200D02*
X129868857Y-79952819D01*
X129868857Y-79952819D02*
X129773619Y-79952819D01*
X129773619Y-79952819D02*
X129630762Y-79905200D01*
X129630762Y-79905200D02*
X129535524Y-79809961D01*
X129535524Y-79809961D02*
X129487905Y-79714723D01*
X129487905Y-79714723D02*
X129440286Y-79524247D01*
X129440286Y-79524247D02*
X129440286Y-79381390D01*
X129440286Y-79381390D02*
X129487905Y-79190914D01*
X129487905Y-79190914D02*
X129535524Y-79095676D01*
X129535524Y-79095676D02*
X129630762Y-79000438D01*
X129630762Y-79000438D02*
X129773619Y-78952819D01*
X129773619Y-78952819D02*
X129868857Y-78952819D01*
X129868857Y-78952819D02*
X130011714Y-79000438D01*
X130011714Y-79000438D02*
X130059333Y-79048057D01*
X130916476Y-79286152D02*
X130916476Y-79952819D01*
X130678381Y-78905200D02*
X130440286Y-79619485D01*
X130440286Y-79619485D02*
X131059333Y-79619485D01*
X145246819Y-69755094D02*
X144246819Y-69755094D01*
X144246819Y-69755094D02*
X144246819Y-69516999D01*
X144246819Y-69516999D02*
X144294438Y-69374142D01*
X144294438Y-69374142D02*
X144389676Y-69278904D01*
X144389676Y-69278904D02*
X144484914Y-69231285D01*
X144484914Y-69231285D02*
X144675390Y-69183666D01*
X144675390Y-69183666D02*
X144818247Y-69183666D01*
X144818247Y-69183666D02*
X145008723Y-69231285D01*
X145008723Y-69231285D02*
X145103961Y-69278904D01*
X145103961Y-69278904D02*
X145199200Y-69374142D01*
X145199200Y-69374142D02*
X145246819Y-69516999D01*
X145246819Y-69516999D02*
X145246819Y-69755094D01*
X144246819Y-68850332D02*
X144246819Y-68231285D01*
X144246819Y-68231285D02*
X144627771Y-68564618D01*
X144627771Y-68564618D02*
X144627771Y-68421761D01*
X144627771Y-68421761D02*
X144675390Y-68326523D01*
X144675390Y-68326523D02*
X144723009Y-68278904D01*
X144723009Y-68278904D02*
X144818247Y-68231285D01*
X144818247Y-68231285D02*
X145056342Y-68231285D01*
X145056342Y-68231285D02*
X145151580Y-68278904D01*
X145151580Y-68278904D02*
X145199200Y-68326523D01*
X145199200Y-68326523D02*
X145246819Y-68421761D01*
X145246819Y-68421761D02*
X145246819Y-68707475D01*
X145246819Y-68707475D02*
X145199200Y-68802713D01*
X145199200Y-68802713D02*
X145151580Y-68850332D01*
X140981333Y-79542819D02*
X140648000Y-79066628D01*
X140409905Y-79542819D02*
X140409905Y-78542819D01*
X140409905Y-78542819D02*
X140790857Y-78542819D01*
X140790857Y-78542819D02*
X140886095Y-78590438D01*
X140886095Y-78590438D02*
X140933714Y-78638057D01*
X140933714Y-78638057D02*
X140981333Y-78733295D01*
X140981333Y-78733295D02*
X140981333Y-78876152D01*
X140981333Y-78876152D02*
X140933714Y-78971390D01*
X140933714Y-78971390D02*
X140886095Y-79019009D01*
X140886095Y-79019009D02*
X140790857Y-79066628D01*
X140790857Y-79066628D02*
X140409905Y-79066628D01*
X141933714Y-79542819D02*
X141362286Y-79542819D01*
X141648000Y-79542819D02*
X141648000Y-78542819D01*
X141648000Y-78542819D02*
X141552762Y-78685676D01*
X141552762Y-78685676D02*
X141457524Y-78780914D01*
X141457524Y-78780914D02*
X141362286Y-78828533D01*
X159542819Y-59272666D02*
X159066628Y-59605999D01*
X159542819Y-59844094D02*
X158542819Y-59844094D01*
X158542819Y-59844094D02*
X158542819Y-59463142D01*
X158542819Y-59463142D02*
X158590438Y-59367904D01*
X158590438Y-59367904D02*
X158638057Y-59320285D01*
X158638057Y-59320285D02*
X158733295Y-59272666D01*
X158733295Y-59272666D02*
X158876152Y-59272666D01*
X158876152Y-59272666D02*
X158971390Y-59320285D01*
X158971390Y-59320285D02*
X159019009Y-59367904D01*
X159019009Y-59367904D02*
X159066628Y-59463142D01*
X159066628Y-59463142D02*
X159066628Y-59844094D01*
X159542819Y-58796475D02*
X159542819Y-58605999D01*
X159542819Y-58605999D02*
X159495200Y-58510761D01*
X159495200Y-58510761D02*
X159447580Y-58463142D01*
X159447580Y-58463142D02*
X159304723Y-58367904D01*
X159304723Y-58367904D02*
X159114247Y-58320285D01*
X159114247Y-58320285D02*
X158733295Y-58320285D01*
X158733295Y-58320285D02*
X158638057Y-58367904D01*
X158638057Y-58367904D02*
X158590438Y-58415523D01*
X158590438Y-58415523D02*
X158542819Y-58510761D01*
X158542819Y-58510761D02*
X158542819Y-58701237D01*
X158542819Y-58701237D02*
X158590438Y-58796475D01*
X158590438Y-58796475D02*
X158638057Y-58844094D01*
X158638057Y-58844094D02*
X158733295Y-58891713D01*
X158733295Y-58891713D02*
X158971390Y-58891713D01*
X158971390Y-58891713D02*
X159066628Y-58844094D01*
X159066628Y-58844094D02*
X159114247Y-58796475D01*
X159114247Y-58796475D02*
X159161866Y-58701237D01*
X159161866Y-58701237D02*
X159161866Y-58510761D01*
X159161866Y-58510761D02*
X159114247Y-58415523D01*
X159114247Y-58415523D02*
X159066628Y-58367904D01*
X159066628Y-58367904D02*
X158971390Y-58320285D01*
X157184819Y-69750094D02*
X156184819Y-69750094D01*
X156184819Y-69750094D02*
X156184819Y-69511999D01*
X156184819Y-69511999D02*
X156232438Y-69369142D01*
X156232438Y-69369142D02*
X156327676Y-69273904D01*
X156327676Y-69273904D02*
X156422914Y-69226285D01*
X156422914Y-69226285D02*
X156613390Y-69178666D01*
X156613390Y-69178666D02*
X156756247Y-69178666D01*
X156756247Y-69178666D02*
X156946723Y-69226285D01*
X156946723Y-69226285D02*
X157041961Y-69273904D01*
X157041961Y-69273904D02*
X157137200Y-69369142D01*
X157137200Y-69369142D02*
X157184819Y-69511999D01*
X157184819Y-69511999D02*
X157184819Y-69750094D01*
X157184819Y-68226285D02*
X157184819Y-68797713D01*
X157184819Y-68511999D02*
X156184819Y-68511999D01*
X156184819Y-68511999D02*
X156327676Y-68607237D01*
X156327676Y-68607237D02*
X156422914Y-68702475D01*
X156422914Y-68702475D02*
X156470533Y-68797713D01*
X108543580Y-82894666D02*
X108591200Y-82942285D01*
X108591200Y-82942285D02*
X108638819Y-83085142D01*
X108638819Y-83085142D02*
X108638819Y-83180380D01*
X108638819Y-83180380D02*
X108591200Y-83323237D01*
X108591200Y-83323237D02*
X108495961Y-83418475D01*
X108495961Y-83418475D02*
X108400723Y-83466094D01*
X108400723Y-83466094D02*
X108210247Y-83513713D01*
X108210247Y-83513713D02*
X108067390Y-83513713D01*
X108067390Y-83513713D02*
X107876914Y-83466094D01*
X107876914Y-83466094D02*
X107781676Y-83418475D01*
X107781676Y-83418475D02*
X107686438Y-83323237D01*
X107686438Y-83323237D02*
X107638819Y-83180380D01*
X107638819Y-83180380D02*
X107638819Y-83085142D01*
X107638819Y-83085142D02*
X107686438Y-82942285D01*
X107686438Y-82942285D02*
X107734057Y-82894666D01*
X107638819Y-82561332D02*
X107638819Y-81942285D01*
X107638819Y-81942285D02*
X108019771Y-82275618D01*
X108019771Y-82275618D02*
X108019771Y-82132761D01*
X108019771Y-82132761D02*
X108067390Y-82037523D01*
X108067390Y-82037523D02*
X108115009Y-81989904D01*
X108115009Y-81989904D02*
X108210247Y-81942285D01*
X108210247Y-81942285D02*
X108448342Y-81942285D01*
X108448342Y-81942285D02*
X108543580Y-81989904D01*
X108543580Y-81989904D02*
X108591200Y-82037523D01*
X108591200Y-82037523D02*
X108638819Y-82132761D01*
X108638819Y-82132761D02*
X108638819Y-82418475D01*
X108638819Y-82418475D02*
X108591200Y-82513713D01*
X108591200Y-82513713D02*
X108543580Y-82561332D01*
X154792819Y-59748857D02*
X154316628Y-60082190D01*
X154792819Y-60320285D02*
X153792819Y-60320285D01*
X153792819Y-60320285D02*
X153792819Y-59939333D01*
X153792819Y-59939333D02*
X153840438Y-59844095D01*
X153840438Y-59844095D02*
X153888057Y-59796476D01*
X153888057Y-59796476D02*
X153983295Y-59748857D01*
X153983295Y-59748857D02*
X154126152Y-59748857D01*
X154126152Y-59748857D02*
X154221390Y-59796476D01*
X154221390Y-59796476D02*
X154269009Y-59844095D01*
X154269009Y-59844095D02*
X154316628Y-59939333D01*
X154316628Y-59939333D02*
X154316628Y-60320285D01*
X154792819Y-58796476D02*
X154792819Y-59367904D01*
X154792819Y-59082190D02*
X153792819Y-59082190D01*
X153792819Y-59082190D02*
X153935676Y-59177428D01*
X153935676Y-59177428D02*
X154030914Y-59272666D01*
X154030914Y-59272666D02*
X154078533Y-59367904D01*
X153792819Y-58177428D02*
X153792819Y-58082190D01*
X153792819Y-58082190D02*
X153840438Y-57986952D01*
X153840438Y-57986952D02*
X153888057Y-57939333D01*
X153888057Y-57939333D02*
X153983295Y-57891714D01*
X153983295Y-57891714D02*
X154173771Y-57844095D01*
X154173771Y-57844095D02*
X154411866Y-57844095D01*
X154411866Y-57844095D02*
X154602342Y-57891714D01*
X154602342Y-57891714D02*
X154697580Y-57939333D01*
X154697580Y-57939333D02*
X154745200Y-57986952D01*
X154745200Y-57986952D02*
X154792819Y-58082190D01*
X154792819Y-58082190D02*
X154792819Y-58177428D01*
X154792819Y-58177428D02*
X154745200Y-58272666D01*
X154745200Y-58272666D02*
X154697580Y-58320285D01*
X154697580Y-58320285D02*
X154602342Y-58367904D01*
X154602342Y-58367904D02*
X154411866Y-58415523D01*
X154411866Y-58415523D02*
X154173771Y-58415523D01*
X154173771Y-58415523D02*
X153983295Y-58367904D01*
X153983295Y-58367904D02*
X153888057Y-58320285D01*
X153888057Y-58320285D02*
X153840438Y-58272666D01*
X153840438Y-58272666D02*
X153792819Y-58177428D01*
X151088819Y-69755094D02*
X150088819Y-69755094D01*
X150088819Y-69755094D02*
X150088819Y-69516999D01*
X150088819Y-69516999D02*
X150136438Y-69374142D01*
X150136438Y-69374142D02*
X150231676Y-69278904D01*
X150231676Y-69278904D02*
X150326914Y-69231285D01*
X150326914Y-69231285D02*
X150517390Y-69183666D01*
X150517390Y-69183666D02*
X150660247Y-69183666D01*
X150660247Y-69183666D02*
X150850723Y-69231285D01*
X150850723Y-69231285D02*
X150945961Y-69278904D01*
X150945961Y-69278904D02*
X151041200Y-69374142D01*
X151041200Y-69374142D02*
X151088819Y-69516999D01*
X151088819Y-69516999D02*
X151088819Y-69755094D01*
X150184057Y-68802713D02*
X150136438Y-68755094D01*
X150136438Y-68755094D02*
X150088819Y-68659856D01*
X150088819Y-68659856D02*
X150088819Y-68421761D01*
X150088819Y-68421761D02*
X150136438Y-68326523D01*
X150136438Y-68326523D02*
X150184057Y-68278904D01*
X150184057Y-68278904D02*
X150279295Y-68231285D01*
X150279295Y-68231285D02*
X150374533Y-68231285D01*
X150374533Y-68231285D02*
X150517390Y-68278904D01*
X150517390Y-68278904D02*
X151088819Y-68850332D01*
X151088819Y-68850332D02*
X151088819Y-68231285D01*
X160031333Y-75986819D02*
X159698000Y-75510628D01*
X159459905Y-75986819D02*
X159459905Y-74986819D01*
X159459905Y-74986819D02*
X159840857Y-74986819D01*
X159840857Y-74986819D02*
X159936095Y-75034438D01*
X159936095Y-75034438D02*
X159983714Y-75082057D01*
X159983714Y-75082057D02*
X160031333Y-75177295D01*
X160031333Y-75177295D02*
X160031333Y-75320152D01*
X160031333Y-75320152D02*
X159983714Y-75415390D01*
X159983714Y-75415390D02*
X159936095Y-75463009D01*
X159936095Y-75463009D02*
X159840857Y-75510628D01*
X159840857Y-75510628D02*
X159459905Y-75510628D01*
X160936095Y-74986819D02*
X160459905Y-74986819D01*
X160459905Y-74986819D02*
X160412286Y-75463009D01*
X160412286Y-75463009D02*
X160459905Y-75415390D01*
X160459905Y-75415390D02*
X160555143Y-75367771D01*
X160555143Y-75367771D02*
X160793238Y-75367771D01*
X160793238Y-75367771D02*
X160888476Y-75415390D01*
X160888476Y-75415390D02*
X160936095Y-75463009D01*
X160936095Y-75463009D02*
X160983714Y-75558247D01*
X160983714Y-75558247D02*
X160983714Y-75796342D01*
X160983714Y-75796342D02*
X160936095Y-75891580D01*
X160936095Y-75891580D02*
X160888476Y-75939200D01*
X160888476Y-75939200D02*
X160793238Y-75986819D01*
X160793238Y-75986819D02*
X160555143Y-75986819D01*
X160555143Y-75986819D02*
X160459905Y-75939200D01*
X160459905Y-75939200D02*
X160412286Y-75891580D01*
X147360819Y-87720666D02*
X146884628Y-88053999D01*
X147360819Y-88292094D02*
X146360819Y-88292094D01*
X146360819Y-88292094D02*
X146360819Y-87911142D01*
X146360819Y-87911142D02*
X146408438Y-87815904D01*
X146408438Y-87815904D02*
X146456057Y-87768285D01*
X146456057Y-87768285D02*
X146551295Y-87720666D01*
X146551295Y-87720666D02*
X146694152Y-87720666D01*
X146694152Y-87720666D02*
X146789390Y-87768285D01*
X146789390Y-87768285D02*
X146837009Y-87815904D01*
X146837009Y-87815904D02*
X146884628Y-87911142D01*
X146884628Y-87911142D02*
X146884628Y-88292094D01*
X146694152Y-86863523D02*
X147360819Y-86863523D01*
X146313200Y-87101618D02*
X147027485Y-87339713D01*
X147027485Y-87339713D02*
X147027485Y-86720666D01*
X146023580Y-75528666D02*
X146071200Y-75576285D01*
X146071200Y-75576285D02*
X146118819Y-75719142D01*
X146118819Y-75719142D02*
X146118819Y-75814380D01*
X146118819Y-75814380D02*
X146071200Y-75957237D01*
X146071200Y-75957237D02*
X145975961Y-76052475D01*
X145975961Y-76052475D02*
X145880723Y-76100094D01*
X145880723Y-76100094D02*
X145690247Y-76147713D01*
X145690247Y-76147713D02*
X145547390Y-76147713D01*
X145547390Y-76147713D02*
X145356914Y-76100094D01*
X145356914Y-76100094D02*
X145261676Y-76052475D01*
X145261676Y-76052475D02*
X145166438Y-75957237D01*
X145166438Y-75957237D02*
X145118819Y-75814380D01*
X145118819Y-75814380D02*
X145118819Y-75719142D01*
X145118819Y-75719142D02*
X145166438Y-75576285D01*
X145166438Y-75576285D02*
X145214057Y-75528666D01*
X146118819Y-74576285D02*
X146118819Y-75147713D01*
X146118819Y-74861999D02*
X145118819Y-74861999D01*
X145118819Y-74861999D02*
X145261676Y-74957237D01*
X145261676Y-74957237D02*
X145356914Y-75052475D01*
X145356914Y-75052475D02*
X145404533Y-75147713D01*
X131075333Y-91734819D02*
X130742000Y-91258628D01*
X130503905Y-91734819D02*
X130503905Y-90734819D01*
X130503905Y-90734819D02*
X130884857Y-90734819D01*
X130884857Y-90734819D02*
X130980095Y-90782438D01*
X130980095Y-90782438D02*
X131027714Y-90830057D01*
X131027714Y-90830057D02*
X131075333Y-90925295D01*
X131075333Y-90925295D02*
X131075333Y-91068152D01*
X131075333Y-91068152D02*
X131027714Y-91163390D01*
X131027714Y-91163390D02*
X130980095Y-91211009D01*
X130980095Y-91211009D02*
X130884857Y-91258628D01*
X130884857Y-91258628D02*
X130503905Y-91258628D01*
X131932476Y-90734819D02*
X131742000Y-90734819D01*
X131742000Y-90734819D02*
X131646762Y-90782438D01*
X131646762Y-90782438D02*
X131599143Y-90830057D01*
X131599143Y-90830057D02*
X131503905Y-90972914D01*
X131503905Y-90972914D02*
X131456286Y-91163390D01*
X131456286Y-91163390D02*
X131456286Y-91544342D01*
X131456286Y-91544342D02*
X131503905Y-91639580D01*
X131503905Y-91639580D02*
X131551524Y-91687200D01*
X131551524Y-91687200D02*
X131646762Y-91734819D01*
X131646762Y-91734819D02*
X131837238Y-91734819D01*
X131837238Y-91734819D02*
X131932476Y-91687200D01*
X131932476Y-91687200D02*
X131980095Y-91639580D01*
X131980095Y-91639580D02*
X132027714Y-91544342D01*
X132027714Y-91544342D02*
X132027714Y-91306247D01*
X132027714Y-91306247D02*
X131980095Y-91211009D01*
X131980095Y-91211009D02*
X131932476Y-91163390D01*
X131932476Y-91163390D02*
X131837238Y-91115771D01*
X131837238Y-91115771D02*
X131646762Y-91115771D01*
X131646762Y-91115771D02*
X131551524Y-91163390D01*
X131551524Y-91163390D02*
X131503905Y-91211009D01*
X131503905Y-91211009D02*
X131456286Y-91306247D01*
X164292819Y-59272666D02*
X163816628Y-59605999D01*
X164292819Y-59844094D02*
X163292819Y-59844094D01*
X163292819Y-59844094D02*
X163292819Y-59463142D01*
X163292819Y-59463142D02*
X163340438Y-59367904D01*
X163340438Y-59367904D02*
X163388057Y-59320285D01*
X163388057Y-59320285D02*
X163483295Y-59272666D01*
X163483295Y-59272666D02*
X163626152Y-59272666D01*
X163626152Y-59272666D02*
X163721390Y-59320285D01*
X163721390Y-59320285D02*
X163769009Y-59367904D01*
X163769009Y-59367904D02*
X163816628Y-59463142D01*
X163816628Y-59463142D02*
X163816628Y-59844094D01*
X163721390Y-58701237D02*
X163673771Y-58796475D01*
X163673771Y-58796475D02*
X163626152Y-58844094D01*
X163626152Y-58844094D02*
X163530914Y-58891713D01*
X163530914Y-58891713D02*
X163483295Y-58891713D01*
X163483295Y-58891713D02*
X163388057Y-58844094D01*
X163388057Y-58844094D02*
X163340438Y-58796475D01*
X163340438Y-58796475D02*
X163292819Y-58701237D01*
X163292819Y-58701237D02*
X163292819Y-58510761D01*
X163292819Y-58510761D02*
X163340438Y-58415523D01*
X163340438Y-58415523D02*
X163388057Y-58367904D01*
X163388057Y-58367904D02*
X163483295Y-58320285D01*
X163483295Y-58320285D02*
X163530914Y-58320285D01*
X163530914Y-58320285D02*
X163626152Y-58367904D01*
X163626152Y-58367904D02*
X163673771Y-58415523D01*
X163673771Y-58415523D02*
X163721390Y-58510761D01*
X163721390Y-58510761D02*
X163721390Y-58701237D01*
X163721390Y-58701237D02*
X163769009Y-58796475D01*
X163769009Y-58796475D02*
X163816628Y-58844094D01*
X163816628Y-58844094D02*
X163911866Y-58891713D01*
X163911866Y-58891713D02*
X164102342Y-58891713D01*
X164102342Y-58891713D02*
X164197580Y-58844094D01*
X164197580Y-58844094D02*
X164245200Y-58796475D01*
X164245200Y-58796475D02*
X164292819Y-58701237D01*
X164292819Y-58701237D02*
X164292819Y-58510761D01*
X164292819Y-58510761D02*
X164245200Y-58415523D01*
X164245200Y-58415523D02*
X164197580Y-58367904D01*
X164197580Y-58367904D02*
X164102342Y-58320285D01*
X164102342Y-58320285D02*
X163911866Y-58320285D01*
X163911866Y-58320285D02*
X163816628Y-58367904D01*
X163816628Y-58367904D02*
X163769009Y-58415523D01*
X163769009Y-58415523D02*
X163721390Y-58510761D01*
X162170819Y-86288904D02*
X162980342Y-86288904D01*
X162980342Y-86288904D02*
X163075580Y-86241285D01*
X163075580Y-86241285D02*
X163123200Y-86193666D01*
X163123200Y-86193666D02*
X163170819Y-86098428D01*
X163170819Y-86098428D02*
X163170819Y-85907952D01*
X163170819Y-85907952D02*
X163123200Y-85812714D01*
X163123200Y-85812714D02*
X163075580Y-85765095D01*
X163075580Y-85765095D02*
X162980342Y-85717476D01*
X162980342Y-85717476D02*
X162170819Y-85717476D01*
X162170819Y-85336523D02*
X162170819Y-84717476D01*
X162170819Y-84717476D02*
X162551771Y-85050809D01*
X162551771Y-85050809D02*
X162551771Y-84907952D01*
X162551771Y-84907952D02*
X162599390Y-84812714D01*
X162599390Y-84812714D02*
X162647009Y-84765095D01*
X162647009Y-84765095D02*
X162742247Y-84717476D01*
X162742247Y-84717476D02*
X162980342Y-84717476D01*
X162980342Y-84717476D02*
X163075580Y-84765095D01*
X163075580Y-84765095D02*
X163123200Y-84812714D01*
X163123200Y-84812714D02*
X163170819Y-84907952D01*
X163170819Y-84907952D02*
X163170819Y-85193666D01*
X163170819Y-85193666D02*
X163123200Y-85288904D01*
X163123200Y-85288904D02*
X163075580Y-85336523D01*
D11*
%TO.C,J1*%
X129210000Y-98790000D02*
X147050000Y-98790000D01*
X129210000Y-98790000D02*
X129210000Y-96130000D01*
X147050000Y-98790000D02*
X147050000Y-96130000D01*
X126610000Y-97460000D02*
X126610000Y-96130000D01*
X126610000Y-96130000D02*
X127940000Y-96130000D01*
X129210000Y-96130000D02*
X147050000Y-96130000D01*
%TO.C,J3*%
X152070000Y-98790000D02*
X164830000Y-98790000D01*
X152070000Y-98790000D02*
X152070000Y-96130000D01*
X164830000Y-98790000D02*
X164830000Y-96130000D01*
X149470000Y-97460000D02*
X149470000Y-96130000D01*
X149470000Y-96130000D02*
X150800000Y-96130000D01*
X152070000Y-96130000D02*
X164830000Y-96130000D01*
%TO.C,J2*%
X120066000Y-50530000D02*
X142986000Y-50530000D01*
X120066000Y-50530000D02*
X120066000Y-47870000D01*
X142986000Y-50530000D02*
X142986000Y-47870000D01*
X117466000Y-49200000D02*
X117466000Y-47870000D01*
X117466000Y-47870000D02*
X118796000Y-47870000D01*
X120066000Y-47870000D02*
X142986000Y-47870000D01*
%TO.C,J4*%
X146990000Y-50530000D02*
X164830000Y-50530000D01*
X146990000Y-50530000D02*
X146990000Y-47870000D01*
X164830000Y-50530000D02*
X164830000Y-47870000D01*
X144390000Y-49200000D02*
X144390000Y-47870000D01*
X144390000Y-47870000D02*
X145720000Y-47870000D01*
X146990000Y-47870000D02*
X164830000Y-47870000D01*
%TO.C,C2*%
X139280000Y-91675000D02*
X139280000Y-92341000D01*
X139280000Y-91675000D02*
X144620000Y-91675000D01*
X139280000Y-94451000D02*
X139280000Y-95117000D01*
X139280000Y-95117000D02*
X144620000Y-95117000D01*
X144620000Y-91675000D02*
X144620000Y-92341000D01*
X144620000Y-94451000D02*
X144620000Y-95117000D01*
%TO.C,R2*%
X122328000Y-93650000D02*
X121558000Y-93650000D01*
X121558000Y-95020000D02*
X121558000Y-92280000D01*
X121558000Y-92280000D02*
X115018000Y-92280000D01*
X115018000Y-95020000D02*
X121558000Y-95020000D01*
X115018000Y-92280000D02*
X115018000Y-95020000D01*
X114248000Y-93650000D02*
X115018000Y-93650000D01*
%TO.C,R7*%
X161952000Y-92888000D02*
X161182000Y-92888000D01*
X161182000Y-94258000D02*
X161182000Y-91518000D01*
X161182000Y-91518000D02*
X154642000Y-91518000D01*
X154642000Y-94258000D02*
X161182000Y-94258000D01*
X154642000Y-91518000D02*
X154642000Y-94258000D01*
X153872000Y-92888000D02*
X154642000Y-92888000D01*
%TO.C,R3*%
X129742000Y-89078000D02*
X130512000Y-89078000D01*
X130512000Y-87708000D02*
X130512000Y-90448000D01*
X130512000Y-90448000D02*
X137052000Y-90448000D01*
X137052000Y-87708000D02*
X130512000Y-87708000D01*
X137052000Y-90448000D02*
X137052000Y-87708000D01*
X137822000Y-89078000D02*
X137052000Y-89078000D01*
%TO.C,U1*%
X120166000Y-90144000D02*
X120166000Y-79864000D01*
X120166000Y-79864000D02*
X114866000Y-79864000D01*
X118516000Y-90144000D02*
X120166000Y-90144000D01*
X114866000Y-90144000D02*
X116516000Y-90144000D01*
X114866000Y-79864000D02*
X114866000Y-90144000D01*
X118516000Y-90144000D02*
G75*
G03*
X116516000Y-90144000I-1000000J0D01*
G01*
%TO.C,C4*%
X126356000Y-80628000D02*
X126356000Y-87368000D01*
X126356000Y-80628000D02*
X134096000Y-80628000D01*
X126356000Y-87368000D02*
X134096000Y-87368000D01*
X134096000Y-80628000D02*
X134096000Y-87368000D01*
%TO.C,D3*%
X148987515Y-70576999D02*
G75*
G03*
X148830608Y-67344666I-1235515J1559999D01*
G01*
X148831999Y-70057960D02*
G75*
G03*
X148831836Y-67975871I-1079999J1040960D01*
G01*
X146672164Y-67975871D02*
G75*
G03*
X146672001Y-70057960I1079836J-1041129D01*
G01*
X146673392Y-67344666D02*
G75*
G03*
X146516485Y-70576999I1078608J-1672334D01*
G01*
X148832000Y-70577000D02*
X148988000Y-70577000D01*
X146516000Y-70577000D02*
X146672000Y-70577000D01*
%TO.C,R1*%
X137108000Y-81458000D02*
X137878000Y-81458000D01*
X137878000Y-80088000D02*
X137878000Y-82828000D01*
X137878000Y-82828000D02*
X144418000Y-82828000D01*
X144418000Y-80088000D02*
X137878000Y-80088000D01*
X144418000Y-82828000D02*
X144418000Y-80088000D01*
X145188000Y-81458000D02*
X144418000Y-81458000D01*
%TO.C,R9*%
X156718000Y-55066000D02*
X156718000Y-55836000D01*
X158088000Y-55836000D02*
X155348000Y-55836000D01*
X155348000Y-55836000D02*
X155348000Y-62376000D01*
X158088000Y-62376000D02*
X158088000Y-55836000D01*
X155348000Y-62376000D02*
X158088000Y-62376000D01*
X156718000Y-63146000D02*
X156718000Y-62376000D01*
%TO.C,D1*%
X158454000Y-70572000D02*
X158610000Y-70572000D01*
X160770000Y-70572000D02*
X160926000Y-70572000D01*
X158611392Y-67339666D02*
G75*
G03*
X158454485Y-70571999I1078608J-1672334D01*
G01*
X158610164Y-67970871D02*
G75*
G03*
X158610001Y-70052960I1079836J-1041129D01*
G01*
X160769999Y-70052960D02*
G75*
G03*
X160769836Y-67970871I-1079999J1040960D01*
G01*
X160925515Y-70571999D02*
G75*
G03*
X160768608Y-67339666I-1235515J1559999D01*
G01*
%TO.C,C3*%
X107055000Y-80058000D02*
X106389000Y-80058000D01*
X107055000Y-80058000D02*
X107055000Y-85398000D01*
X104279000Y-80058000D02*
X103613000Y-80058000D01*
X103613000Y-80058000D02*
X103613000Y-85398000D01*
X107055000Y-85398000D02*
X106389000Y-85398000D01*
X104279000Y-85398000D02*
X103613000Y-85398000D01*
%TO.C,R10*%
X151968000Y-55066000D02*
X151968000Y-55836000D01*
X153338000Y-55836000D02*
X150598000Y-55836000D01*
X150598000Y-55836000D02*
X150598000Y-62376000D01*
X153338000Y-62376000D02*
X153338000Y-55836000D01*
X150598000Y-62376000D02*
X153338000Y-62376000D01*
X151968000Y-63146000D02*
X151968000Y-62376000D01*
%TO.C,D2*%
X152358000Y-70577000D02*
X152514000Y-70577000D01*
X154674000Y-70577000D02*
X154830000Y-70577000D01*
X152515392Y-67344666D02*
G75*
G03*
X152358485Y-70576999I1078608J-1672334D01*
G01*
X152514164Y-67975871D02*
G75*
G03*
X152514001Y-70057960I1079836J-1041129D01*
G01*
X154673999Y-70057960D02*
G75*
G03*
X154673836Y-67975871I-1079999J1040960D01*
G01*
X154829515Y-70576999D02*
G75*
G03*
X154672608Y-67344666I-1235515J1559999D01*
G01*
%TO.C,R5*%
X156158000Y-77902000D02*
X156928000Y-77902000D01*
X156928000Y-76532000D02*
X156928000Y-79272000D01*
X156928000Y-79272000D02*
X163468000Y-79272000D01*
X163468000Y-76532000D02*
X156928000Y-76532000D01*
X163468000Y-79272000D02*
X163468000Y-76532000D01*
X164238000Y-77902000D02*
X163468000Y-77902000D01*
%TO.C,R4*%
X149276000Y-91594000D02*
X149276000Y-90824000D01*
X147906000Y-90824000D02*
X150646000Y-90824000D01*
X150646000Y-90824000D02*
X150646000Y-84284000D01*
X147906000Y-84284000D02*
X147906000Y-90824000D01*
X150646000Y-84284000D02*
X147906000Y-84284000D01*
X149276000Y-83514000D02*
X149276000Y-84284000D01*
%TO.C,C1*%
X146793000Y-78032000D02*
X147459000Y-78032000D01*
X146793000Y-78032000D02*
X146793000Y-72692000D01*
X149569000Y-78032000D02*
X150235000Y-78032000D01*
X150235000Y-78032000D02*
X150235000Y-72692000D01*
X146793000Y-72692000D02*
X147459000Y-72692000D01*
X149569000Y-72692000D02*
X150235000Y-72692000D01*
%TO.C,R6*%
X127202000Y-93650000D02*
X127972000Y-93650000D01*
X127972000Y-92280000D02*
X127972000Y-95020000D01*
X127972000Y-95020000D02*
X134512000Y-95020000D01*
X134512000Y-92280000D02*
X127972000Y-92280000D01*
X134512000Y-95020000D02*
X134512000Y-92280000D01*
X135282000Y-93650000D02*
X134512000Y-93650000D01*
%TO.C,R8*%
X161468000Y-55066000D02*
X161468000Y-55836000D01*
X162838000Y-55836000D02*
X160098000Y-55836000D01*
X160098000Y-55836000D02*
X160098000Y-62376000D01*
X162838000Y-62376000D02*
X162838000Y-55836000D01*
X160098000Y-62376000D02*
X162838000Y-62376000D01*
X161468000Y-63146000D02*
X161468000Y-62376000D01*
%TO.C,U3*%
X160784039Y-80861144D02*
X159893084Y-81752098D01*
X161561856Y-81638961D02*
X160784039Y-80861144D01*
X160670902Y-82529916D02*
X161561856Y-81638961D01*
X159893371Y-81752327D02*
G75*
G03*
X160670901Y-82529916I-2997371J-3774673D01*
G01*
%TD*%
M02*
